<?xml version="1.0" standalone="no"?>
<!DOCTYPE svg PUBLIC "-//W3C//DTD SVG 1.1//EN" "http://www.w3.org/Graphics/SVG/1.1/DTD/svg11.dtd" >
<svg xmlns="http://www.w3.org/2000/svg" xmlns:xlink="http://www.w3.org/1999/xlink" version="1.1">
<metadata>
Created by FontForge 20191125 at Fri Feb 23 16:40:58 2018
 By convertio
Copyright \(c\) 2017 by atipo. All rights reserved.
</metadata>
<defs>
<font id="BasierSquare-Bold" horiz-adv-x="574" >
  <font-face 
    font-family="Basier Square Bold"
    font-weight="700"
    font-stretch="normal"
    units-per-em="1000"
    panose-1="0 0 8 0 0 0 0 0 0 0"
    ascent="800"
    descent="-200"
    x-height="523"
    cap-height="700"
    bbox="-201 -245 1184 972"
    underline-thickness="50"
    underline-position="-100"
    stemh="145"
    stemv="154"
    unicode-range="U+0020-2265"
  />
<missing-glyph horiz-adv-x="940" 
 />
    <glyph glyph-name=".notdef" horiz-adv-x="940" 
 />
    <glyph glyph-name="A" unicode="A" horiz-adv-x="702" 
d="M451 700l241 -690v-10h-174l-41 133h-260l-41 -133h-166v10l240 690h201zM260 271h174l-85 272h-4z" />
    <glyph glyph-name="Aacute" unicode="&#xc1;" horiz-adv-x="702" 
d="M509 906l-116 -146h-110v10l66 146h160v-10zM451 700l241 -690v-10h-174l-41 133h-260l-41 -133h-166v10l240 690h201zM260 271h174l-85 272h-4z" />
    <glyph glyph-name="Abreve" unicode="&#x102;" horiz-adv-x="702" 
d="M350 762c-102 0 -161 53 -161 149h108c2 -37 22 -50 53 -50s51 14 53 50h108c0 -96 -57 -149 -161 -149zM451 700l241 -690v-10h-174l-41 133h-260l-41 -133h-166v10l240 690h201zM260 271h174l-85 272h-4z" />
    <glyph glyph-name="uni01CD" unicode="&#x1cd;" horiz-adv-x="702" 
d="M434 762h-163l-94 142v10h118l55 -54h4l56 54h118v-10zM451 700l241 -690v-10h-174l-41 133h-260l-41 -133h-166v10l240 690h201zM260 271h174l-85 272h-4z" />
    <glyph glyph-name="Acircumflex" unicode="&#xc2;" horiz-adv-x="702" 
d="M351 816l-56 -54h-118v10l94 142h163l94 -142v-10h-118l-55 54h-4zM451 700l241 -690v-10h-174l-41 133h-260l-41 -133h-166v10l240 690h201zM260 271h174l-85 272h-4z" />
    <glyph glyph-name="Adieresis" unicode="&#xc4;" horiz-adv-x="702" 
d="M317 907v-130h-129v130h129zM518 907v-130h-129v130h129zM451 700l241 -690v-10h-174l-41 133h-260l-41 -133h-166v10l240 690h201zM260 271h174l-85 272h-4z" />
    <glyph glyph-name="Agrave" unicode="&#xc0;" horiz-adv-x="702" 
d="M432 760h-110l-116 146v10h160l66 -146v-10zM451 700l241 -690v-10h-174l-41 133h-260l-41 -133h-166v10l240 690h201zM260 271h174l-85 272h-4z" />
    <glyph glyph-name="Amacron" unicode="&#x100;" horiz-adv-x="702" 
d="M498 895v-111h-293v111h293zM451 700l241 -690v-10h-174l-41 133h-260l-41 -133h-166v10l240 690h201zM260 271h174l-85 272h-4z" />
    <glyph glyph-name="Aogonek" unicode="&#x104;" horiz-adv-x="702" 
d="M451 700l241 -690v-10h-1c-46 -18 -85 -55 -85 -94c0 -27 18 -42 49 -42h36v-92h-70c-62 0 -135 32 -135 106c0 59 36 98 73 122h-41l-41 133h-260l-41 -133h-166v10l240 690h201zM260 271h174l-85 272h-4z" />
    <glyph glyph-name="Aring" unicode="&#xc5;" horiz-adv-x="702" 
d="M349 745c-67 0 -117 47 -117 113c0 67 50 114 117 114c69 0 118 -47 118 -114c0 -66 -49 -113 -118 -113zM348 901c-26 0 -43 -19 -43 -43s17 -42 43 -42c27 0 45 18 45 42s-18 43 -45 43zM451 700l241 -690v-10h-174l-41 133h-260l-41 -133h-166v10l240 690h201z
M260 271h174l-85 272h-4z" />
    <glyph glyph-name="Atilde" unicode="&#xc3;" horiz-adv-x="702" 
d="M285 799c-15 0 -27 -12 -27 -37h-92v15c0 84 43 129 108 129c27 0 50 -9 70 -19l16 -8c14 -7 26 -13 36 -13c20 0 24 13 24 38h91v-15c0 -84 -32 -129 -107 -129c-26 0 -49 8 -68 18l-15 8c-13 7 -23 13 -36 13zM451 700l241 -690v-10h-174l-41 133h-260l-41 -133h-166
v10l240 690h201zM260 271h174l-85 272h-4z" />
    <glyph glyph-name="AE" unicode="&#xc6;" horiz-adv-x="916" 
d="M10 0v10l240 690h626v-140h-376l45 -129h300v-140h-251l53 -152h229v-139h-358l-41 133h-260l-41 -133h-166zM260 271h174l-85 272h-4z" />
    <glyph glyph-name="B" unicode="B" horiz-adv-x="666" 
d="M70 0v700h335c125 0 210 -67 210 -182c0 -76 -33 -118 -68 -143v-4c57 -27 94 -77 94 -169c0 -128 -86 -202 -223 -202h-348zM226 430h156c53 0 74 28 74 66s-21 66 -74 66h-156v-132zM226 139h166c67 0 89 36 89 78c0 35 -21 77 -89 77h-166v-155z" />
    <glyph glyph-name="C" unicode="C" horiz-adv-x="709" 
d="M369 -9c-225 0 -339 159 -339 358c0 202 114 360 339 360c179 0 300 -125 310 -273h-160c-6 67 -52 131 -150 131c-116 0 -179 -77 -179 -218s63 -217 179 -217c94 0 139 59 151 125h159c-14 -144 -132 -266 -310 -266z" />
    <glyph glyph-name="Cacute" unicode="&#x106;" horiz-adv-x="709" 
d="M302 760v10l66 146h160v-10l-116 -146h-110zM369 -9c-225 0 -339 159 -339 358c0 202 114 360 339 360c179 0 300 -125 310 -273h-160c-6 67 -52 131 -150 131c-116 0 -179 -77 -179 -218s63 -217 179 -217c94 0 139 59 151 125h159c-14 -144 -132 -266 -310 -266z" />
    <glyph glyph-name="Ccaron" unicode="&#x10c;" horiz-adv-x="709" 
d="M290 762l-94 142v10h118l55 -54h4l56 54h118v-10l-94 -142h-163zM369 -9c-225 0 -339 159 -339 358c0 202 114 360 339 360c179 0 300 -125 310 -273h-160c-6 67 -52 131 -150 131c-116 0 -179 -77 -179 -218s63 -217 179 -217c94 0 139 59 151 125h159
c-14 -144 -132 -266 -310 -266z" />
    <glyph glyph-name="Ccedilla" unicode="&#xc7;" horiz-adv-x="709" 
d="M369 132c94 0 139 59 151 125h159c-13 -134 -116 -249 -274 -264l-21 -29c59 -5 97 -42 97 -92c0 -57 -54 -100 -147 -100c-75 0 -133 39 -133 102h90c0 -16 18 -30 42 -30s47 10 47 30c0 18 -16 30 -44 30h-32l-25 31l30 60c-185 26 -279 173 -279 354
c0 202 114 360 339 360c179 0 300 -125 310 -273h-160c-6 67 -52 131 -150 131c-116 0 -179 -77 -179 -218s63 -217 179 -217z" />
    <glyph glyph-name="Ccircumflex" unicode="&#x108;" horiz-adv-x="709" 
d="M196 762v10l94 142h163l94 -142v-10h-118l-55 54h-4l-56 -54h-118zM369 -9c-225 0 -339 159 -339 358c0 202 114 360 339 360c179 0 300 -125 310 -273h-160c-6 67 -52 131 -150 131c-116 0 -179 -77 -179 -218s63 -217 179 -217c94 0 139 59 151 125h159
c-14 -144 -132 -266 -310 -266z" />
    <glyph glyph-name="Cdotaccent" unicode="&#x10a;" horiz-adv-x="709" 
d="M288 762v156h164v-156h-164zM369 -9c-225 0 -339 159 -339 358c0 202 114 360 339 360c179 0 300 -125 310 -273h-160c-6 67 -52 131 -150 131c-116 0 -179 -77 -179 -218s63 -217 179 -217c94 0 139 59 151 125h159c-14 -144 -132 -266 -310 -266z" />
    <glyph glyph-name="D" unicode="D" horiz-adv-x="704" 
d="M70 0v700h242c209 0 362 -140 362 -350c0 -195 -143 -350 -362 -350h-242zM217 139h86c131 0 211 65 211 211c0 145 -80 210 -211 210h-86v-421z" />
    <glyph glyph-name="Eth" unicode="&#xd0;" horiz-adv-x="745" 
d="M353 700c209 0 362 -140 362 -350c0 -195 -143 -350 -362 -350h-242v297h-71v131h71v272h242zM344 139c131 0 211 65 211 211c0 145 -80 210 -211 210h-86v-132h142v-131h-142v-158h86z" />
    <glyph glyph-name="Dcaron" unicode="&#x10e;" horiz-adv-x="704" 
d="M243 762l-94 142v10h118l55 -54h4l56 54h118v-10l-94 -142h-163zM70 0v700h242c209 0 362 -140 362 -350c0 -195 -143 -350 -362 -350h-242zM217 139h86c131 0 211 65 211 211c0 145 -80 210 -211 210h-86v-421z" />
    <glyph glyph-name="Dcroat" unicode="&#x110;" horiz-adv-x="745" 
d="M353 700c209 0 362 -140 362 -350c0 -195 -143 -350 -362 -350h-242v297h-71v131h71v272h242zM344 139c131 0 211 65 211 211c0 145 -80 210 -211 210h-86v-132h142v-131h-142v-158h86z" />
    <glyph glyph-name="E" unicode="E" horiz-adv-x="610" 
d="M70 0v700h500v-140h-343v-129h312v-140h-312v-152h343v-139h-500z" />
    <glyph glyph-name="Eacute" unicode="&#xc9;" horiz-adv-x="610" 
d="M267 760v10l66 146h160v-10l-116 -146h-110zM70 0v700h500v-140h-343v-129h312v-140h-312v-152h343v-139h-500z" />
    <glyph glyph-name="Ebreve" unicode="&#x114;" horiz-adv-x="610" 
d="M334 762c-102 0 -161 53 -161 149h108c2 -37 22 -50 53 -50s51 14 53 50h108c0 -96 -57 -149 -161 -149zM70 0v700h500v-140h-343v-129h312v-140h-312v-152h343v-139h-500z" />
    <glyph glyph-name="Ecaron" unicode="&#x11a;" horiz-adv-x="610" 
d="M255 762l-94 142v10h118l55 -54h4l56 54h118v-10l-94 -142h-163zM70 0v700h500v-140h-343v-129h312v-140h-312v-152h343v-139h-500z" />
    <glyph glyph-name="Ecircumflex" unicode="&#xca;" horiz-adv-x="610" 
d="M161 762v10l94 142h163l94 -142v-10h-118l-55 54h-4l-56 -54h-118zM70 0v700h500v-140h-343v-129h312v-140h-312v-152h343v-139h-500z" />
    <glyph glyph-name="Edieresis" unicode="&#xcb;" horiz-adv-x="610" 
d="M172 777v130h129v-130h-129zM373 777v130h129v-130h-129zM70 0v700h500v-140h-343v-129h312v-140h-312v-152h343v-139h-500z" />
    <glyph glyph-name="Edotaccent" unicode="&#x116;" horiz-adv-x="610" 
d="M253 762v156h164v-156h-164zM70 0v700h500v-140h-343v-129h312v-140h-312v-152h343v-139h-500z" />
    <glyph glyph-name="Egrave" unicode="&#xc8;" horiz-adv-x="610" 
d="M306 760l-116 146v10h160l66 -146v-10h-110zM70 0v700h500v-140h-343v-129h312v-140h-312v-152h343v-139h-500z" />
    <glyph glyph-name="Emacron" unicode="&#x112;" horiz-adv-x="610" 
d="M189 784v111h293v-111h-293zM70 0v700h500v-140h-343v-129h312v-140h-312v-152h343v-139h-500z" />
    <glyph glyph-name="Eogonek" unicode="&#x118;" horiz-adv-x="610" 
d="M570 560h-343v-129h312v-140h-312v-152h343v-139h-4c-46 -18 -85 -55 -85 -94c0 -27 18 -42 49 -42h36v-92h-70c-62 0 -135 32 -135 106c0 59 36 98 73 122h-364v700h500v-140z" />
    <glyph glyph-name="uni1EBC" unicode="&#x1ebc;" horiz-adv-x="610" 
d="M388 760c-26 0 -49 8 -68 18l-15 8c-13 7 -23 13 -36 13c-15 0 -27 -12 -27 -37h-92v15c0 84 43 129 108 129c27 0 50 -9 70 -19l16 -8c14 -7 26 -13 36 -13c20 0 24 13 24 38h91v-15c0 -84 -32 -129 -107 -129zM70 0v700h500v-140h-343v-129h312v-140h-312v-152h343
v-139h-500z" />
    <glyph glyph-name="F" unicode="F" horiz-adv-x="610" 
d="M70 0v700h500v-140h-343v-149h312v-140h-312v-271h-157z" />
    <glyph glyph-name="G" unicode="G" horiz-adv-x="714" 
d="M369 -9c-225 0 -339 159 -339 358c0 202 114 360 339 360c179 0 295 -115 310 -253h-160c-11 57 -52 111 -150 111c-116 0 -179 -77 -179 -218s63 -217 179 -217c94 0 137 51 151 107h-131v139h295v-79c0 -187 -132 -308 -315 -308z" />
    <glyph glyph-name="Gbreve" unicode="&#x11e;" horiz-adv-x="714" 
d="M369 762c-102 0 -161 53 -161 149h108c2 -37 22 -50 53 -50s51 14 53 50h108c0 -96 -57 -149 -161 -149zM369 -9c-225 0 -339 159 -339 358c0 202 114 360 339 360c179 0 295 -115 310 -253h-160c-11 57 -52 111 -150 111c-116 0 -179 -77 -179 -218s63 -217 179 -217
c94 0 137 51 151 107h-131v139h295v-79c0 -187 -132 -308 -315 -308z" />
    <glyph glyph-name="Gcaron" unicode="&#x1e6;" horiz-adv-x="714" 
d="M290 762l-94 142v10h118l55 -54h4l56 54h118v-10l-94 -142h-163zM369 -9c-225 0 -339 159 -339 358c0 202 114 360 339 360c179 0 295 -115 310 -253h-160c-11 57 -52 111 -150 111c-116 0 -179 -77 -179 -218s63 -217 179 -217c94 0 137 51 151 107h-131v139h295v-79
c0 -187 -132 -308 -315 -308z" />
    <glyph glyph-name="Gcircumflex" unicode="&#x11c;" horiz-adv-x="714" 
d="M196 762v10l94 142h163l94 -142v-10h-118l-55 54h-4l-56 -54h-118zM369 -9c-225 0 -339 159 -339 358c0 202 114 360 339 360c179 0 295 -115 310 -253h-160c-11 57 -52 111 -150 111c-116 0 -179 -77 -179 -218s63 -217 179 -217c94 0 137 51 151 107h-131v139h295v-79
c0 -187 -132 -308 -315 -308z" />
    <glyph glyph-name="Gcommaaccent" unicode="&#x122;" horiz-adv-x="714" 
d="M369 -9c-225 0 -339 159 -339 358c0 202 114 360 339 360c179 0 295 -115 310 -253h-160c-11 57 -52 111 -150 111c-116 0 -179 -77 -179 -218s63 -217 179 -217c94 0 137 51 151 107h-131v139h295v-79c0 -187 -132 -308 -315 -308zM275 -217v10l21 156h150v-10l-71 -156
h-100z" />
    <glyph glyph-name="Gdotaccent" unicode="&#x120;" horiz-adv-x="714" 
d="M288 762v156h164v-156h-164zM369 -9c-225 0 -339 159 -339 358c0 202 114 360 339 360c179 0 295 -115 310 -253h-160c-11 57 -52 111 -150 111c-116 0 -179 -77 -179 -218s63 -217 179 -217c94 0 137 51 151 107h-131v139h295v-79c0 -187 -132 -308 -315 -308z" />
    <glyph glyph-name="H" unicode="H" horiz-adv-x="735" 
d="M508 700h157v-700h-157v291h-281v-291h-157v700h157v-268h281v268z" />
    <glyph glyph-name="Hbar" unicode="&#x126;" horiz-adv-x="835" 
d="M765 632v-131h-49v-501h-157v291h-281v-291h-157v501h-51v131h51v68h157v-68h281v68h157v-68h49zM559 432v69h-281v-69h281z" />
    <glyph glyph-name="Hcircumflex" unicode="&#x124;" horiz-adv-x="735" 
d="M371 816l-56 -54h-118v10l94 142h163l94 -142v-10h-118l-55 54h-4zM508 700h157v-700h-157v291h-281v-291h-157v700h157v-268h281v268z" />
    <glyph glyph-name="I" unicode="I" horiz-adv-x="298" 
d="M70 0v700h158v-700h-158z" />
    <glyph glyph-name="IJ" unicode="&#x132;" horiz-adv-x="845" 
d="M70 0v700h158v-700h-158zM543 -9c-155 0 -235 100 -235 219h153c1 -46 26 -76 84 -76c59 0 82 37 82 85v481h158v-481c0 -129 -84 -228 -242 -228z" />
    <glyph glyph-name="Iacute" unicode="&#xcd;" horiz-adv-x="298" 
d="M84 760v10l66 146h160v-10l-116 -146h-110zM70 0v700h158v-700h-158z" />
    <glyph glyph-name="Ibreve" unicode="&#x12c;" horiz-adv-x="298" 
d="M151 762c-102 0 -161 53 -161 149h108c2 -37 22 -50 53 -50s51 14 53 50h108c0 -96 -57 -149 -161 -149zM70 0v700h158v-700h-158z" />
    <glyph glyph-name="uni01CF" unicode="&#x1cf;" horiz-adv-x="298" 
d="M72 762l-94 142v10h118l55 -54h4l56 54h118v-10l-94 -142h-163zM70 0v700h158v-700h-158z" />
    <glyph glyph-name="Icircumflex" unicode="&#xce;" horiz-adv-x="298" 
d="M-22 762v10l94 142h163l94 -142v-10h-118l-55 54h-4l-56 -54h-118zM70 0v700h158v-700h-158z" />
    <glyph glyph-name="Idieresis" unicode="&#xcf;" horiz-adv-x="298" 
d="M-11 777v130h129v-130h-129zM190 777v130h129v-130h-129zM70 0v700h158v-700h-158z" />
    <glyph glyph-name="Idotaccent" unicode="&#x130;" horiz-adv-x="298" 
d="M70 762v156h164v-156h-164zM70 0v700h158v-700h-158z" />
    <glyph glyph-name="Igrave" unicode="&#xcc;" horiz-adv-x="298" 
d="M123 760l-116 146v10h160l66 -146v-10h-110zM70 0v700h158v-700h-158z" />
    <glyph glyph-name="Imacron" unicode="&#x12a;" horiz-adv-x="298" 
d="M6 784v111h293v-111h-293zM70 0v700h158v-700h-158z" />
    <glyph glyph-name="Iogonek" unicode="&#x12e;" horiz-adv-x="298" 
d="M228 0c-46 -18 -85 -55 -85 -94c0 -27 18 -42 49 -42h36v-92h-70c-62 0 -135 32 -135 106c0 59 36 98 73 122h-26v700h158v-700z" />
    <glyph glyph-name="Itilde" unicode="&#x128;" horiz-adv-x="298" 
d="M205 760c-26 0 -49 8 -68 18l-15 8c-13 7 -23 13 -36 13c-15 0 -27 -12 -27 -37h-92v15c0 84 43 129 108 129c27 0 50 -9 70 -19l16 -8c14 -7 26 -13 36 -13c20 0 24 13 24 38h91v-15c0 -84 -32 -129 -107 -129zM70 0v700h158v-700h-158z" />
    <glyph glyph-name="J" unicode="J" horiz-adv-x="547" 
d="M245 -9c-155 0 -235 100 -235 219h153c1 -46 26 -76 84 -76c59 0 82 37 82 85v481h158v-481c0 -129 -84 -228 -242 -228z" />
    <glyph glyph-name="Jcircumflex" unicode="&#x134;" horiz-adv-x="547" 
d="M231 762v10l94 142h163l94 -142v-10h-118l-55 54h-4l-56 -54h-118zM245 -9c-155 0 -235 100 -235 219h153c1 -46 26 -76 84 -76c59 0 82 37 82 85v481h158v-481c0 -129 -84 -228 -242 -228z" />
    <glyph glyph-name="K" unicode="K" horiz-adv-x="676" 
d="M353 364l313 -354v-10h-186l-253 290v-290h-157v700h157v-265l243 265h184v-10z" />
    <glyph glyph-name="Kcommaaccent" unicode="&#x136;" horiz-adv-x="676" 
d="M353 364l313 -354v-10h-186l-253 290v-290h-157v700h157v-265l243 265h184v-10zM256 -207l21 156h150v-10l-71 -156h-100v10z" />
    <glyph glyph-name="L" unicode="L" horiz-adv-x="555" 
d="M70 0v700h157v-560h318v-140h-475z" />
    <glyph glyph-name="Lacute" unicode="&#x139;" horiz-adv-x="555" 
d="M80 760v10l66 146h160v-10l-116 -146h-110zM70 0v700h157v-560h318v-140h-475z" />
    <glyph glyph-name="Lcaron" unicode="&#x13d;" horiz-adv-x="555" 
d="M70 0v700h157v-560h318v-140h-475zM330 530v170h150v-10l-50 -160h-100z" />
    <glyph glyph-name="Lcommaaccent" unicode="&#x13b;" horiz-adv-x="555" 
d="M70 0v700h157v-560h318v-140h-475zM213 -217v10l21 156h150v-10l-71 -156h-100z" />
    <glyph glyph-name="Ldot" unicode="&#x13f;" horiz-adv-x="600" 
d="M70 0v700h157v-560h318v-140h-475zM312 290v156h164v-156h-164z" />
    <glyph glyph-name="Lslash" unicode="&#x141;" horiz-adv-x="625" 
d="M297 140h318v-140h-475v236l-60 -23h-10v127l70 27v333h157v-272l170 66h10v-129l-180 -69v-156z" />
    <glyph glyph-name="M" unicode="M" horiz-adv-x="880" 
d="M70 0v700h172l197 -321h4l197 321h170v-700h-152v452h-4l-209 -336h-10l-209 339h-4v-455h-152z" />
    <glyph glyph-name="N" unicode="N" horiz-adv-x="743" 
d="M70 0v700h185l258 -457h4v457h156v-700h-186l-258 454h-4v-454h-155z" />
    <glyph glyph-name="Nacute" unicode="&#x143;" horiz-adv-x="743" 
d="M332 760v10l66 146h160v-10l-116 -146h-110zM70 0v700h185l258 -457h4v457h156v-700h-186l-258 454h-4v-454h-155z" />
    <glyph glyph-name="Ncaron" unicode="&#x147;" horiz-adv-x="743" 
d="M320 762l-94 142v10h118l55 -54h4l56 54h118v-10l-94 -142h-163zM70 0v700h185l258 -457h4v457h156v-700h-186l-258 454h-4v-454h-155z" />
    <glyph glyph-name="Ncommaaccent" unicode="&#x145;" horiz-adv-x="743" 
d="M70 0v700h185l258 -457h4v457h156v-700h-186l-258 454h-4v-454h-155zM266 -217v10l21 156h150v-10l-71 -156h-100z" />
    <glyph glyph-name="Eng" unicode="&#x14a;" horiz-adv-x="743" 
d="M517 700h156v-711c0 -129 -84 -228 -242 -228v143c61 0 86 37 86 85v11h-30l-258 454h-4v-454h-155v700h185l258 -457h4v457z" />
    <glyph glyph-name="Ntilde" unicode="&#xd1;" horiz-adv-x="743" 
d="M453 760c-26 0 -49 8 -68 18l-15 8c-13 7 -23 13 -36 13c-15 0 -27 -12 -27 -37h-92v15c0 84 43 129 108 129c27 0 50 -9 70 -19l16 -8c14 -7 26 -13 36 -13c20 0 24 13 24 38h91v-15c0 -84 -32 -129 -107 -129zM70 0v700h185l258 -457h4v457h156v-700h-186l-258 454h-4
v-454h-155z" />
    <glyph glyph-name="O" unicode="O" horiz-adv-x="740" 
d="M370 -9c-226 0 -340 159 -340 359c0 201 114 359 340 359c225 0 340 -158 340 -359c0 -200 -115 -359 -340 -359zM370 133c116 0 180 76 180 217s-64 217 -180 217c-117 0 -180 -76 -180 -217s64 -217 180 -217z" />
    <glyph glyph-name="Oacute" unicode="&#xd3;" horiz-adv-x="740" 
d="M303 760v10l66 146h160v-10l-116 -146h-110zM370 -9c-226 0 -340 159 -340 359c0 201 114 359 340 359c225 0 340 -158 340 -359c0 -200 -115 -359 -340 -359zM370 133c116 0 180 76 180 217s-64 217 -180 217c-117 0 -180 -76 -180 -217s64 -217 180 -217z" />
    <glyph glyph-name="Obreve" unicode="&#x14e;" horiz-adv-x="740" 
d="M370 762c-102 0 -161 53 -161 149h108c2 -37 22 -50 53 -50s51 14 53 50h108c0 -96 -57 -149 -161 -149zM370 -9c-226 0 -340 159 -340 359c0 201 114 359 340 359c225 0 340 -158 340 -359c0 -200 -115 -359 -340 -359zM370 133c116 0 180 76 180 217s-64 217 -180 217
c-117 0 -180 -76 -180 -217s64 -217 180 -217z" />
    <glyph glyph-name="uni01D1" unicode="&#x1d1;" horiz-adv-x="740" 
d="M291 762l-94 142v10h118l55 -54h4l56 54h118v-10l-94 -142h-163zM370 -9c-226 0 -340 159 -340 359c0 201 114 359 340 359c225 0 340 -158 340 -359c0 -200 -115 -359 -340 -359zM370 133c116 0 180 76 180 217s-64 217 -180 217c-117 0 -180 -76 -180 -217
s64 -217 180 -217z" />
    <glyph glyph-name="Ocircumflex" unicode="&#xd4;" horiz-adv-x="740" 
d="M197 762v10l94 142h163l94 -142v-10h-118l-55 54h-4l-56 -54h-118zM370 -9c-226 0 -340 159 -340 359c0 201 114 359 340 359c225 0 340 -158 340 -359c0 -200 -115 -359 -340 -359zM370 133c116 0 180 76 180 217s-64 217 -180 217c-117 0 -180 -76 -180 -217
s64 -217 180 -217z" />
    <glyph glyph-name="Odieresis" unicode="&#xd6;" horiz-adv-x="740" 
d="M208 777v130h129v-130h-129zM409 777v130h129v-130h-129zM370 -9c-226 0 -340 159 -340 359c0 201 114 359 340 359c225 0 340 -158 340 -359c0 -200 -115 -359 -340 -359zM370 133c116 0 180 76 180 217s-64 217 -180 217c-117 0 -180 -76 -180 -217s64 -217 180 -217z
" />
    <glyph glyph-name="Ograve" unicode="&#xd2;" horiz-adv-x="740" 
d="M342 760l-116 146v10h160l66 -146v-10h-110zM370 -9c-226 0 -340 159 -340 359c0 201 114 359 340 359c225 0 340 -158 340 -359c0 -200 -115 -359 -340 -359zM370 133c116 0 180 76 180 217s-64 217 -180 217c-117 0 -180 -76 -180 -217s64 -217 180 -217z" />
    <glyph glyph-name="Ohungarumlaut" unicode="&#x150;" horiz-adv-x="740" 
d="M203 760v10l46 146h160v-10l-106 -146h-100zM403 760v10l46 146h160v-10l-106 -146h-100zM370 -9c-226 0 -340 159 -340 359c0 201 114 359 340 359c225 0 340 -158 340 -359c0 -200 -115 -359 -340 -359zM370 133c116 0 180 76 180 217s-64 217 -180 217
c-117 0 -180 -76 -180 -217s64 -217 180 -217z" />
    <glyph glyph-name="Omacron" unicode="&#x14c;" horiz-adv-x="740" 
d="M225 784v111h293v-111h-293zM370 -9c-226 0 -340 159 -340 359c0 201 114 359 340 359c225 0 340 -158 340 -359c0 -200 -115 -359 -340 -359zM370 133c116 0 180 76 180 217s-64 217 -180 217c-117 0 -180 -76 -180 -217s64 -217 180 -217z" />
    <glyph glyph-name="Oslash" unicode="&#xd8;" horiz-adv-x="740" 
d="M720 738v-10l-92 -128c55 -64 82 -152 82 -250c0 -200 -115 -359 -340 -359c-60 0 -112 11 -156 31l-51 -70h-143v10l95 133c-56 65 -85 155 -85 255c0 201 114 359 340 359c62 0 115 -12 160 -33l45 62h145zM190 350c0 -48 7 -88 21 -120l233 324c-22 9 -46 13 -74 13
c-117 0 -180 -76 -180 -217zM550 350c0 45 -6 83 -19 115l-230 -321c20 -7 43 -11 69 -11c116 0 180 76 180 217z" />
    <glyph glyph-name="Otilde" unicode="&#xd5;" horiz-adv-x="740" 
d="M424 760c-26 0 -49 8 -68 18l-15 8c-13 7 -23 13 -36 13c-15 0 -27 -12 -27 -37h-92v15c0 84 43 129 108 129c27 0 50 -9 70 -19l16 -8c14 -7 26 -13 36 -13c20 0 24 13 24 38h91v-15c0 -84 -32 -129 -107 -129zM370 -9c-226 0 -340 159 -340 359c0 201 114 359 340 359
c225 0 340 -158 340 -359c0 -200 -115 -359 -340 -359zM370 133c116 0 180 76 180 217s-64 217 -180 217c-117 0 -180 -76 -180 -217s64 -217 180 -217z" />
    <glyph glyph-name="OE" unicode="&#x152;" horiz-adv-x="1093" 
d="M1053 560h-343v-129h312v-140h-312v-152h343v-139h-500v38c-48 -30 -109 -47 -183 -47c-226 0 -340 159 -340 359c0 201 114 359 340 359c74 0 135 -17 183 -47v38h500v-140zM370 133c116 0 180 76 180 217s-64 217 -180 217c-117 0 -180 -76 -180 -217s64 -217 180 -217
z" />
    <glyph glyph-name="P" unicode="P" horiz-adv-x="649" 
d="M70 0v700h318c143 0 231 -101 231 -231c0 -134 -90 -235 -231 -235h-161v-234h-157zM227 374h130c67 0 102 31 102 95c0 60 -38 92 -102 92h-130v-187z" />
    <glyph glyph-name="Thorn" unicode="&#xde;" horiz-adv-x="649" 
d="M70 0v700h158v-90h160c143 0 231 -101 231 -231c0 -134 -90 -235 -231 -235h-160v-144h-158zM228 284h129c67 0 102 31 102 95c0 60 -38 92 -102 92h-129v-187z" />
    <glyph glyph-name="Q" unicode="Q" horiz-adv-x="740" 
d="M710 350c0 -111 -35 -209 -105 -275l94 -138v-10h-156l-55 81c-35 -11 -75 -17 -118 -17c-226 0 -340 159 -340 359c0 201 114 359 340 359c225 0 340 -158 340 -359zM370 133c11 0 22 1 32 2l-89 131v10h155l48 -70c22 35 34 84 34 144c0 141 -64 217 -180 217
c-117 0 -180 -76 -180 -217s64 -217 180 -217z" />
    <glyph glyph-name="R" unicode="R" horiz-adv-x="670" 
d="M491 266l169 -256v-10h-184l-151 247h-98v-247h-157v700h320c149 0 239 -104 239 -223c0 -101 -53 -177 -138 -211zM227 560v-173h155c63 0 86 45 86 89c0 42 -25 84 -86 84h-155z" />
    <glyph glyph-name="Racute" unicode="&#x154;" horiz-adv-x="670" 
d="M492 906l-116 -146h-110v10l66 146h160v-10zM491 266l169 -256v-10h-184l-151 247h-98v-247h-157v700h320c149 0 239 -104 239 -223c0 -101 -53 -177 -138 -211zM227 560v-173h155c63 0 86 45 86 89c0 42 -25 84 -86 84h-155z" />
    <glyph glyph-name="Rcaron" unicode="&#x158;" horiz-adv-x="670" 
d="M417 762h-163l-94 142v10h118l55 -54h4l56 54h118v-10zM491 266l169 -256v-10h-184l-151 247h-98v-247h-157v700h320c149 0 239 -104 239 -223c0 -101 -53 -177 -138 -211zM227 560v-173h155c63 0 86 45 86 89c0 42 -25 84 -86 84h-155z" />
    <glyph glyph-name="Rcommaaccent" unicode="&#x156;" horiz-adv-x="670" 
d="M491 266l169 -256v-10h-184l-151 247h-98v-247h-157v700h320c149 0 239 -104 239 -223c0 -101 -53 -177 -138 -211zM227 560v-173h155c63 0 86 45 86 89c0 42 -25 84 -86 84h-155zM258 -207l21 156h150v-10l-71 -156h-100v10z" />
    <glyph glyph-name="S" unicode="S" horiz-adv-x="632" 
d="M315 -9c-187 0 -286 98 -295 249h159c7 -76 60 -110 136 -110c96 0 131 30 131 72c0 38 -23 61 -85 74l-102 22c-121 26 -216 76 -216 210c0 118 108 201 273 201c160 0 278 -94 279 -228h-159c-4 46 -39 88 -122 88c-82 0 -110 -32 -110 -61c0 -27 14 -51 79 -65l95 -20
c130 -27 229 -80 229 -217c0 -125 -82 -215 -292 -215z" />
    <glyph glyph-name="Sacute" unicode="&#x15a;" horiz-adv-x="632" 
d="M249 760v10l66 146h160v-10l-116 -146h-110zM315 -9c-187 0 -286 98 -295 249h159c7 -76 60 -110 136 -110c96 0 131 30 131 72c0 38 -23 61 -85 74l-102 22c-121 26 -216 76 -216 210c0 118 108 201 273 201c160 0 278 -94 279 -228h-159c-4 46 -39 88 -122 88
c-82 0 -110 -32 -110 -61c0 -27 14 -51 79 -65l95 -20c130 -27 229 -80 229 -217c0 -125 -82 -215 -292 -215z" />
    <glyph glyph-name="Scaron" unicode="&#x160;" horiz-adv-x="632" 
d="M237 762l-94 142v10h118l55 -54h4l56 54h118v-10l-94 -142h-163zM315 -9c-187 0 -286 98 -295 249h159c7 -76 60 -110 136 -110c96 0 131 30 131 72c0 38 -23 61 -85 74l-102 22c-121 26 -216 76 -216 210c0 118 108 201 273 201c160 0 278 -94 279 -228h-159
c-4 46 -39 88 -122 88c-82 0 -110 -32 -110 -61c0 -27 14 -51 79 -65l95 -20c130 -27 229 -80 229 -217c0 -125 -82 -215 -292 -215z" />
    <glyph glyph-name="Scedilla" unicode="&#x15e;" horiz-adv-x="632" 
d="M607 206c0 -114 -68 -198 -238 -213l-21 -29c59 -5 97 -42 97 -92c0 -57 -54 -100 -147 -100c-75 0 -133 39 -133 102h90c0 -16 18 -30 42 -30s47 10 47 30c0 18 -16 30 -44 30h-32l-25 31l29 58c-159 14 -244 108 -252 247h159c7 -76 60 -110 136 -110
c96 0 131 30 131 72c0 38 -23 61 -85 74l-102 22c-121 26 -216 76 -216 210c0 118 108 201 273 201c160 0 278 -94 279 -228h-159c-4 46 -39 88 -122 88c-82 0 -110 -32 -110 -61c0 -27 14 -51 79 -65l95 -20c130 -27 229 -80 229 -217z" />
    <glyph glyph-name="Scircumflex" unicode="&#x15c;" horiz-adv-x="632" 
d="M143 762v10l94 142h163l94 -142v-10h-118l-55 54h-4l-56 -54h-118zM315 -9c-187 0 -286 98 -295 249h159c7 -76 60 -110 136 -110c96 0 131 30 131 72c0 38 -23 61 -85 74l-102 22c-121 26 -216 76 -216 210c0 118 108 201 273 201c160 0 278 -94 279 -228h-159
c-4 46 -39 88 -122 88c-82 0 -110 -32 -110 -61c0 -27 14 -51 79 -65l95 -20c130 -27 229 -80 229 -217c0 -125 -82 -215 -292 -215z" />
    <glyph glyph-name="Scommaaccent" unicode="&#x218;" horiz-adv-x="632" 
d="M315 -9c-187 0 -286 98 -295 249h159c7 -76 60 -110 136 -110c96 0 131 30 131 72c0 38 -23 61 -85 74l-102 22c-121 26 -216 76 -216 210c0 118 108 201 273 201c160 0 278 -94 279 -228h-159c-4 46 -39 88 -122 88c-82 0 -110 -32 -110 -61c0 -27 14 -51 79 -65l95 -20
c130 -27 229 -80 229 -217c0 -125 -82 -215 -292 -215zM224 -217v10l21 156h150v-10l-71 -156h-100z" />
    <glyph glyph-name="T" unicode="T" horiz-adv-x="592" 
d="M217 0v559h-202v141h562v-141h-202v-559h-158z" />
    <glyph glyph-name="Tbar" unicode="&#x166;" horiz-adv-x="600" 
d="M577 559h-202v-127h163v-131h-163v-301h-158v301h-155v131h155v127h-202v141h562v-141z" />
    <glyph glyph-name="Tcaron" unicode="&#x164;" horiz-adv-x="592" 
d="M221 762l-94 142v10h118l55 -54h4l56 54h118v-10l-94 -142h-163zM217 0v559h-202v141h562v-141h-202v-559h-158z" />
    <glyph glyph-name="uni0162" unicode="&#x162;" horiz-adv-x="592" 
d="M217 0v559h-202v141h562v-141h-202v-559h-158zM197 -217v10l21 156h150v-10l-71 -156h-100z" />
    <glyph glyph-name="uni021A" unicode="&#x21a;" horiz-adv-x="592" 
d="M375 0h-28l-26 -36c59 -5 97 -42 97 -92c0 -57 -54 -100 -147 -100c-75 0 -133 39 -133 102h90c0 -16 18 -30 42 -30s47 10 47 30c0 18 -16 30 -44 30h-32l-25 31l33 65h-32v559h-202v141h562v-141h-202v-559z" />
    <glyph glyph-name="U" unicode="U" horiz-adv-x="714" 
d="M356 -9c-164 0 -296 95 -296 286v423h157v-421c0 -78 29 -148 139 -148c112 0 140 70 140 148v421h158v-423c0 -191 -131 -286 -298 -286z" />
    <glyph glyph-name="Uacute" unicode="&#xda;" horiz-adv-x="714" 
d="M290 760v10l66 146h160v-10l-116 -146h-110zM356 -9c-164 0 -296 95 -296 286v423h157v-421c0 -78 29 -148 139 -148c112 0 140 70 140 148v421h158v-423c0 -191 -131 -286 -298 -286z" />
    <glyph glyph-name="Ubreve" unicode="&#x16c;" horiz-adv-x="714" 
d="M357 762c-102 0 -161 53 -161 149h108c2 -37 22 -50 53 -50s51 14 53 50h108c0 -96 -57 -149 -161 -149zM356 -9c-164 0 -296 95 -296 286v423h157v-421c0 -78 29 -148 139 -148c112 0 140 70 140 148v421h158v-423c0 -191 -131 -286 -298 -286z" />
    <glyph glyph-name="Ucircumflex" unicode="&#xdb;" horiz-adv-x="714" 
d="M184 762v10l94 142h163l94 -142v-10h-118l-55 54h-4l-56 -54h-118zM356 -9c-164 0 -296 95 -296 286v423h157v-421c0 -78 29 -148 139 -148c112 0 140 70 140 148v421h158v-423c0 -191 -131 -286 -298 -286z" />
    <glyph glyph-name="Udieresis" unicode="&#xdc;" horiz-adv-x="714" 
d="M195 777v130h129v-130h-129zM396 777v130h129v-130h-129zM356 -9c-164 0 -296 95 -296 286v423h157v-421c0 -78 29 -148 139 -148c112 0 140 70 140 148v421h158v-423c0 -191 -131 -286 -298 -286z" />
    <glyph glyph-name="Ugrave" unicode="&#xd9;" horiz-adv-x="714" 
d="M329 760l-116 146v10h160l66 -146v-10h-110zM356 -9c-164 0 -296 95 -296 286v423h157v-421c0 -78 29 -148 139 -148c112 0 140 70 140 148v421h158v-423c0 -191 -131 -286 -298 -286z" />
    <glyph glyph-name="Uhungarumlaut" unicode="&#x170;" horiz-adv-x="714" 
d="M190 760v10l46 146h160v-10l-106 -146h-100zM390 760v10l46 146h160v-10l-106 -146h-100zM356 -9c-164 0 -296 95 -296 286v423h157v-421c0 -78 29 -148 139 -148c112 0 140 70 140 148v421h158v-423c0 -191 -131 -286 -298 -286z" />
    <glyph glyph-name="Umacron" unicode="&#x16a;" horiz-adv-x="714" 
d="M212 784v111h293v-111h-293zM356 -9c-164 0 -296 95 -296 286v423h157v-421c0 -78 29 -148 139 -148c112 0 140 70 140 148v421h158v-423c0 -191 -131 -286 -298 -286z" />
    <glyph glyph-name="Uogonek" unicode="&#x172;" horiz-adv-x="714" 
d="M496 700h158v-423c0 -157 -88 -249 -213 -277h1c-46 -18 -85 -55 -85 -94c0 -27 18 -42 49 -42h36v-92h-70c-62 0 -135 32 -135 106c0 54 31 92 65 117c-138 19 -242 112 -242 282v423h157v-421c0 -78 29 -148 139 -148c112 0 140 70 140 148v421z" />
    <glyph glyph-name="Uring" unicode="&#x16e;" horiz-adv-x="714" 
d="M356 745c-67 0 -117 47 -117 113c0 67 50 114 117 114c69 0 118 -47 118 -114c0 -66 -49 -113 -118 -113zM355 816c27 0 45 18 45 42s-18 43 -45 43c-26 0 -43 -19 -43 -43s17 -42 43 -42zM356 -9c-164 0 -296 95 -296 286v423h157v-421c0 -78 29 -148 139 -148
c112 0 140 70 140 148v421h158v-423c0 -191 -131 -286 -298 -286z" />
    <glyph glyph-name="Utilde" unicode="&#x168;" horiz-adv-x="714" 
d="M411 760c-26 0 -49 8 -68 18l-15 8c-13 7 -23 13 -36 13c-15 0 -27 -12 -27 -37h-92v15c0 84 43 129 108 129c27 0 50 -9 70 -19l16 -8c14 -7 26 -13 36 -13c20 0 24 13 24 38h91v-15c0 -84 -32 -129 -107 -129zM356 -9c-164 0 -296 95 -296 286v423h157v-421
c0 -78 29 -148 139 -148c112 0 140 70 140 148v421h158v-423c0 -191 -131 -286 -298 -286z" />
    <glyph glyph-name="V" unicode="V" horiz-adv-x="706" 
d="M260 0l-250 690v10h179l162 -513h4l159 513h182v-10l-247 -690h-189z" />
    <glyph glyph-name="W" unicode="W" horiz-adv-x="949" 
d="M170 0l-160 690v10h169l93 -483h4l112 483h174l114 -483h4l92 483h167v-10l-160 -690h-203l-98 463h-4l-101 -463h-203z" />
    <glyph glyph-name="Wacute" unicode="&#x1e82;" horiz-adv-x="949" 
d="M406 760v10l66 146h160v-10l-116 -146h-110zM170 0l-160 690v10h169l93 -483h4l112 483h174l114 -483h4l92 483h167v-10l-160 -690h-203l-98 463h-4l-101 -463h-203z" />
    <glyph glyph-name="Wcircumflex" unicode="&#x174;" horiz-adv-x="949" 
d="M300 762v10l94 142h163l94 -142v-10h-118l-55 54h-4l-56 -54h-118zM170 0l-160 690v10h169l93 -483h4l112 483h174l114 -483h4l92 483h167v-10l-160 -690h-203l-98 463h-4l-101 -463h-203z" />
    <glyph glyph-name="Wdieresis" unicode="&#x1e84;" horiz-adv-x="949" 
d="M311 777v130h129v-130h-129zM512 777v130h129v-130h-129zM170 0l-160 690v10h169l93 -483h4l112 483h174l114 -483h4l92 483h167v-10l-160 -690h-203l-98 463h-4l-101 -463h-203z" />
    <glyph glyph-name="Wgrave" unicode="&#x1e80;" horiz-adv-x="949" 
d="M445 760l-116 146v10h160l66 -146v-10h-110zM170 0l-160 690v10h169l93 -483h4l112 483h174l114 -483h4l92 483h167v-10l-160 -690h-203l-98 463h-4l-101 -463h-203z" />
    <glyph glyph-name="X" unicode="X" horiz-adv-x="702" 
d="M15 0v10l219 340v4l-210 336v10h190l142 -243h4l142 243h185v-10l-203 -337v-4l203 -339v-10h-193l-140 243h-4l-141 -243h-194z" />
    <glyph glyph-name="Y" unicode="Y" horiz-adv-x="698" 
d="M271 0v278l-261 412v10h183l156 -264h4l152 264h183v-10l-259 -410v-280h-158z" />
    <glyph glyph-name="Yacute" unicode="&#xdd;" horiz-adv-x="698" 
d="M291 760v10l66 146h160v-10l-116 -146h-110zM271 0v278l-261 412v10h183l156 -264h4l152 264h183v-10l-259 -410v-280h-158z" />
    <glyph glyph-name="Ycircumflex" unicode="&#x176;" horiz-adv-x="698" 
d="M185 762v10l94 142h163l94 -142v-10h-118l-55 54h-4l-56 -54h-118zM271 0v278l-261 412v10h183l156 -264h4l152 264h183v-10l-259 -410v-280h-158z" />
    <glyph glyph-name="Ydieresis" unicode="&#x178;" horiz-adv-x="698" 
d="M196 777v130h129v-130h-129zM397 777v130h129v-130h-129zM271 0v278l-261 412v10h183l156 -264h4l152 264h183v-10l-259 -410v-280h-158z" />
    <glyph glyph-name="Ygrave" unicode="&#x1ef2;" horiz-adv-x="698" 
d="M330 760l-116 146v10h160l66 -146v-10h-110zM271 0v278l-261 412v10h183l156 -264h4l152 264h183v-10l-259 -410v-280h-158z" />
    <glyph glyph-name="Z" unicode="Z" horiz-adv-x="597" 
d="M30 0v137l334 418v4h-325v141h522v-139l-333 -417v-4h339v-140h-537z" />
    <glyph glyph-name="Zacute" unicode="&#x179;" horiz-adv-x="597" 
d="M234 760v10l66 146h160v-10l-116 -146h-110zM30 0v137l334 418v4h-325v141h522v-139l-333 -417v-4h339v-140h-537z" />
    <glyph glyph-name="Zcaron" unicode="&#x17d;" horiz-adv-x="597" 
d="M222 762l-94 142v10h118l55 -54h4l56 54h118v-10l-94 -142h-163zM30 0v137l334 418v4h-325v141h522v-139l-333 -417v-4h339v-140h-537z" />
    <glyph glyph-name="Zdotaccent" unicode="&#x17b;" horiz-adv-x="597" 
d="M220 762v156h164v-156h-164zM30 0v137l334 418v4h-325v141h522v-139l-333 -417v-4h339v-140h-537z" />
    <glyph glyph-name="a" unicode="a" horiz-adv-x="541" 
d="M208 -9c-118 0 -183 71 -183 164c0 97 66 161 210 161h112v28c0 36 -23 64 -80 64c-48 0 -76 -26 -76 -58h-144c0 98 71 182 225 182c143 0 229 -79 229 -188v-344h-138l-11 47h-4c-29 -33 -75 -56 -140 -56zM247 111c63 0 100 37 100 80v22h-99c-49 0 -71 -22 -71 -50
c0 -30 24 -52 70 -52z" />
    <glyph glyph-name="aacute" unicode="&#xe1;" horiz-adv-x="541" 
d="M211 583v10l66 146h160v-10l-116 -146h-110zM208 -9c-118 0 -183 71 -183 164c0 97 66 161 210 161h112v28c0 36 -23 64 -80 64c-48 0 -76 -26 -76 -58h-144c0 98 71 182 225 182c143 0 229 -79 229 -188v-344h-138l-11 47h-4c-29 -33 -75 -56 -140 -56zM247 111
c63 0 100 37 100 80v22h-99c-49 0 -71 -22 -71 -50c0 -30 24 -52 70 -52z" />
    <glyph glyph-name="abreve" unicode="&#x103;" horiz-adv-x="541" 
d="M278 585c-102 0 -161 53 -161 149h108c2 -37 22 -50 53 -50s51 14 53 50h108c0 -96 -57 -149 -161 -149zM208 -9c-118 0 -183 71 -183 164c0 97 66 161 210 161h112v28c0 36 -23 64 -80 64c-48 0 -76 -26 -76 -58h-144c0 98 71 182 225 182c143 0 229 -79 229 -188v-344
h-138l-11 47h-4c-29 -33 -75 -56 -140 -56zM247 111c63 0 100 37 100 80v22h-99c-49 0 -71 -22 -71 -50c0 -30 24 -52 70 -52z" />
    <glyph glyph-name="uni01CE" unicode="&#x1ce;" horiz-adv-x="541" 
d="M199 585l-94 142v10h118l55 -54h4l56 54h118v-10l-94 -142h-163zM208 -9c-118 0 -183 71 -183 164c0 97 66 161 210 161h112v28c0 36 -23 64 -80 64c-48 0 -76 -26 -76 -58h-144c0 98 71 182 225 182c143 0 229 -79 229 -188v-344h-138l-11 47h-4
c-29 -33 -75 -56 -140 -56zM247 111c63 0 100 37 100 80v22h-99c-49 0 -71 -22 -71 -50c0 -30 24 -52 70 -52z" />
    <glyph glyph-name="acircumflex" unicode="&#xe2;" horiz-adv-x="541" 
d="M105 585v10l94 142h163l94 -142v-10h-118l-55 54h-4l-56 -54h-118zM208 -9c-118 0 -183 71 -183 164c0 97 66 161 210 161h112v28c0 36 -23 64 -80 64c-48 0 -76 -26 -76 -58h-144c0 98 71 182 225 182c143 0 229 -79 229 -188v-344h-138l-11 47h-4
c-29 -33 -75 -56 -140 -56zM247 111c63 0 100 37 100 80v22h-99c-49 0 -71 -22 -71 -50c0 -30 24 -52 70 -52z" />
    <glyph glyph-name="adieresis" unicode="&#xe4;" horiz-adv-x="541" 
d="M116 600v130h129v-130h-129zM317 600v130h129v-130h-129zM208 -9c-118 0 -183 71 -183 164c0 97 66 161 210 161h112v28c0 36 -23 64 -80 64c-48 0 -76 -26 -76 -58h-144c0 98 71 182 225 182c143 0 229 -79 229 -188v-344h-138l-11 47h-4c-29 -33 -75 -56 -140 -56z
M247 111c63 0 100 37 100 80v22h-99c-49 0 -71 -22 -71 -50c0 -30 24 -52 70 -52z" />
    <glyph glyph-name="agrave" unicode="&#xe0;" horiz-adv-x="541" 
d="M250 583l-116 146v10h160l66 -146v-10h-110zM208 -9c-118 0 -183 71 -183 164c0 97 66 161 210 161h112v28c0 36 -23 64 -80 64c-48 0 -76 -26 -76 -58h-144c0 98 71 182 225 182c143 0 229 -79 229 -188v-344h-138l-11 47h-4c-29 -33 -75 -56 -140 -56zM247 111
c63 0 100 37 100 80v22h-99c-49 0 -71 -22 -71 -50c0 -30 24 -52 70 -52z" />
    <glyph glyph-name="amacron" unicode="&#x101;" horiz-adv-x="541" 
d="M133 607v111h293v-111h-293zM208 -9c-118 0 -183 71 -183 164c0 97 66 161 210 161h112v28c0 36 -23 64 -80 64c-48 0 -76 -26 -76 -58h-144c0 98 71 182 225 182c143 0 229 -79 229 -188v-344h-138l-11 47h-4c-29 -33 -75 -56 -140 -56zM247 111c63 0 100 37 100 80v22
h-99c-49 0 -71 -22 -71 -50c0 -30 24 -52 70 -52z" />
    <glyph glyph-name="aogonek" unicode="&#x105;" horiz-adv-x="541" 
d="M272 532c143 0 229 -79 229 -188v-344h-1c-46 -18 -85 -55 -85 -94c0 -27 18 -42 49 -42h36v-92h-70c-62 0 -135 32 -135 106c0 59 36 98 73 122h-5l-11 47h-4c-29 -33 -75 -56 -140 -56c-118 0 -183 71 -183 164c0 97 66 161 210 161h112v28c0 36 -23 64 -80 64
c-48 0 -76 -26 -76 -58h-144c0 98 71 182 225 182zM347 191v22h-99c-49 0 -71 -22 -71 -50c0 -30 24 -52 70 -52c63 0 100 37 100 80z" />
    <glyph glyph-name="aring" unicode="&#xe5;" horiz-adv-x="541" 
d="M277 568c-67 0 -117 47 -117 113c0 67 50 114 117 114c69 0 118 -47 118 -114c0 -66 -49 -113 -118 -113zM276 639c27 0 45 18 45 42s-18 43 -45 43c-26 0 -43 -19 -43 -43s17 -42 43 -42zM208 -9c-118 0 -183 71 -183 164c0 97 66 161 210 161h112v28
c0 36 -23 64 -80 64c-48 0 -76 -26 -76 -58h-144c0 98 71 182 225 182c143 0 229 -79 229 -188v-344h-138l-11 47h-4c-29 -33 -75 -56 -140 -56zM247 111c63 0 100 37 100 80v22h-99c-49 0 -71 -22 -71 -50c0 -30 24 -52 70 -52z" />
    <glyph glyph-name="atilde" unicode="&#xe3;" horiz-adv-x="541" 
d="M332 583c-26 0 -49 8 -68 18l-15 8c-13 7 -23 13 -36 13c-15 0 -27 -12 -27 -37h-92v15c0 84 43 129 108 129c27 0 50 -9 70 -19l16 -8c14 -7 26 -13 36 -13c20 0 24 13 24 38h91v-15c0 -84 -32 -129 -107 -129zM208 -9c-118 0 -183 71 -183 164c0 97 66 161 210 161h112
v28c0 36 -23 64 -80 64c-48 0 -76 -26 -76 -58h-144c0 98 71 182 225 182c143 0 229 -79 229 -188v-344h-138l-11 47h-4c-29 -33 -75 -56 -140 -56zM247 111c63 0 100 37 100 80v22h-99c-49 0 -71 -22 -71 -50c0 -30 24 -52 70 -52z" />
    <glyph glyph-name="ae" unicode="&#xe6;" horiz-adv-x="876" 
d="M213 -9c-118 0 -188 71 -188 164c0 97 66 161 210 161h112v28c0 36 -23 64 -80 64c-48 0 -76 -26 -76 -58h-144c0 98 71 182 225 182c72 0 131 -25 167 -58h4c36 34 88 58 158 58c160 0 250 -113 250 -255v-57h-349c1 -61 32 -104 102 -104c57 0 82 28 91 52h149
c-14 -94 -97 -177 -240 -177c-87 0 -152 33 -193 87h-4c-34 -48 -89 -87 -194 -87zM503 317h191c-3 50 -32 89 -93 89c-66 0 -95 -39 -98 -89zM247 111c63 0 100 37 100 80v22h-98c-50 0 -72 -22 -72 -50c0 -30 24 -52 70 -52z" />
    <glyph glyph-name="b" unicode="b" horiz-adv-x="584" 
d="M347 -9c-74 0 -114 29 -139 59h-4l-16 -50h-138v740h154v-267h4c25 30 65 59 139 59c132 0 212 -114 212 -270c0 -157 -80 -271 -212 -271zM300 126c76 0 103 63 103 136s-25 135 -103 135s-103 -62 -103 -135s27 -136 103 -136z" />
    <glyph glyph-name="c" unicode="c" horiz-adv-x="551" 
d="M288 -9c-167 0 -263 112 -263 271c0 158 92 270 259 270c155 0 235 -94 242 -215h-155c-5 46 -37 80 -87 80c-65 0 -102 -41 -102 -135c0 -95 37 -136 102 -136c50 0 82 34 87 80h155c-7 -121 -86 -215 -238 -215z" />
    <glyph glyph-name="cacute" unicode="&#x107;" horiz-adv-x="551" 
d="M224 583v10l66 146h160v-10l-116 -146h-110zM288 -9c-167 0 -263 112 -263 271c0 158 92 270 259 270c155 0 235 -94 242 -215h-155c-5 46 -37 80 -87 80c-65 0 -102 -41 -102 -135c0 -95 37 -136 102 -136c50 0 82 34 87 80h155c-7 -121 -86 -215 -238 -215z" />
    <glyph glyph-name="ccaron" unicode="&#x10d;" horiz-adv-x="551" 
d="M212 585l-94 142v10h118l55 -54h4l56 54h118v-10l-94 -142h-163zM288 -9c-167 0 -263 112 -263 271c0 158 92 270 259 270c155 0 235 -94 242 -215h-155c-5 46 -37 80 -87 80c-65 0 -102 -41 -102 -135c0 -95 37 -136 102 -136c50 0 82 34 87 80h155
c-7 -121 -86 -215 -238 -215z" />
    <glyph glyph-name="ccedilla" unicode="&#xe7;" horiz-adv-x="551" 
d="M284 126c50 0 82 34 87 80h155c-6 -111 -74 -199 -202 -213l-21 -29c59 -5 97 -42 97 -92c0 -57 -54 -100 -147 -100c-75 0 -133 39 -133 102h90c0 -16 18 -30 42 -30s47 10 47 30c0 18 -16 30 -44 30h-32l-25 31l31 61c-130 24 -204 127 -204 266c0 158 92 270 259 270
c155 0 235 -94 242 -215h-155c-5 46 -37 80 -87 80c-65 0 -102 -41 -102 -135c0 -95 37 -136 102 -136z" />
    <glyph glyph-name="ccircumflex" unicode="&#x109;" horiz-adv-x="551" 
d="M118 585v10l94 142h163l94 -142v-10h-118l-55 54h-4l-56 -54h-118zM288 -9c-167 0 -263 112 -263 271c0 158 92 270 259 270c155 0 235 -94 242 -215h-155c-5 46 -37 80 -87 80c-65 0 -102 -41 -102 -135c0 -95 37 -136 102 -136c50 0 82 34 87 80h155
c-7 -121 -86 -215 -238 -215z" />
    <glyph glyph-name="cdotaccent" unicode="&#x10b;" horiz-adv-x="551" 
d="M210 585v156h164v-156h-164zM288 -9c-167 0 -263 112 -263 271c0 158 92 270 259 270c155 0 235 -94 242 -215h-155c-5 46 -37 80 -87 80c-65 0 -102 -41 -102 -135c0 -95 37 -136 102 -136c50 0 82 34 87 80h155c-7 -121 -86 -215 -238 -215z" />
    <glyph glyph-name="d" unicode="d" 
d="M237 -9c-132 0 -212 114 -212 271c0 156 80 270 212 270c74 0 114 -29 139 -59h4v267h154v-740h-138l-16 50h-4c-25 -30 -65 -59 -139 -59zM284 126c76 0 103 63 103 136s-25 135 -103 135s-103 -62 -103 -135s27 -136 103 -136z" />
    <glyph glyph-name="eth" unicode="&#xf0;" horiz-adv-x="572" 
d="M547 262v-1c0 -156 -91 -270 -261 -270s-261 113 -261 270s93 271 261 271c9 0 18 0 26 -1c-16 20 -34 40 -53 59l-127 -50l-30 76l87 35c-39 30 -80 57 -121 79v10h147c26 -15 52 -32 76 -49l115 46l30 -77l-72 -29c110 -101 182 -229 183 -367v-1v-1zM286 126
c64 0 104 40 104 135s-40 136 -104 136s-104 -42 -104 -136c0 -95 41 -135 104 -135z" />
    <glyph glyph-name="dcaron" unicode="&#x10f;" 
d="M237 -9c-132 0 -212 114 -212 271c0 156 80 270 212 270c74 0 114 -29 139 -59h4v267h154v-740h-138l-16 50h-4c-25 -30 -65 -59 -139 -59zM574 570v170h150v-10l-50 -160h-100zM284 126c76 0 103 63 103 136s-25 135 -103 135s-103 -62 -103 -135s27 -136 103 -136z" />
    <glyph glyph-name="dcroat" unicode="&#x111;" 
d="M590 680v-100h-56v-580h-138l-16 50h-4c-25 -30 -65 -59 -139 -59c-132 0 -212 114 -212 271c0 156 80 270 212 270c74 0 114 -29 139 -59h4v107h-114v100h114v60h154v-60h56zM284 126c76 0 103 63 103 136s-25 135 -103 135s-103 -62 -103 -135s27 -136 103 -136z" />
    <glyph glyph-name="e" unicode="e" horiz-adv-x="556" 
d="M284 -9c-165 0 -259 120 -259 270c0 148 86 271 256 271c160 0 250 -113 250 -255v-57h-349c1 -61 32 -104 102 -104c57 0 82 28 91 52h149c-14 -94 -97 -177 -240 -177zM183 317h191c-3 50 -32 89 -93 89c-66 0 -95 -39 -98 -89z" />
    <glyph glyph-name="eacute" unicode="&#xe9;" horiz-adv-x="556" 
d="M214 583v10l66 146h160v-10l-116 -146h-110zM284 -9c-165 0 -259 120 -259 270c0 148 86 271 256 271c160 0 250 -113 250 -255v-57h-349c1 -61 32 -104 102 -104c57 0 82 28 91 52h149c-14 -94 -97 -177 -240 -177zM183 317h191c-3 50 -32 89 -93 89
c-66 0 -95 -39 -98 -89z" />
    <glyph glyph-name="ebreve" unicode="&#x115;" horiz-adv-x="556" 
d="M281 585c-102 0 -161 53 -161 149h108c2 -37 22 -50 53 -50s51 14 53 50h108c0 -96 -57 -149 -161 -149zM284 -9c-165 0 -259 120 -259 270c0 148 86 271 256 271c160 0 250 -113 250 -255v-57h-349c1 -61 32 -104 102 -104c57 0 82 28 91 52h149
c-14 -94 -97 -177 -240 -177zM183 317h191c-3 50 -32 89 -93 89c-66 0 -95 -39 -98 -89z" />
    <glyph glyph-name="ecaron" unicode="&#x11b;" horiz-adv-x="556" 
d="M202 585l-94 142v10h118l55 -54h4l56 54h118v-10l-94 -142h-163zM284 -9c-165 0 -259 120 -259 270c0 148 86 271 256 271c160 0 250 -113 250 -255v-57h-349c1 -61 32 -104 102 -104c57 0 82 28 91 52h149c-14 -94 -97 -177 -240 -177zM183 317h191c-3 50 -32 89 -93 89
c-66 0 -95 -39 -98 -89z" />
    <glyph glyph-name="ecircumflex" unicode="&#xea;" horiz-adv-x="556" 
d="M108 585v10l94 142h163l94 -142v-10h-118l-55 54h-4l-56 -54h-118zM284 -9c-165 0 -259 120 -259 270c0 148 86 271 256 271c160 0 250 -113 250 -255v-57h-349c1 -61 32 -104 102 -104c57 0 82 28 91 52h149c-14 -94 -97 -177 -240 -177zM183 317h191
c-3 50 -32 89 -93 89c-66 0 -95 -39 -98 -89z" />
    <glyph glyph-name="edieresis" unicode="&#xeb;" horiz-adv-x="556" 
d="M119 600v130h129v-130h-129zM320 600v130h129v-130h-129zM284 -9c-165 0 -259 120 -259 270c0 148 86 271 256 271c160 0 250 -113 250 -255v-57h-349c1 -61 32 -104 102 -104c57 0 82 28 91 52h149c-14 -94 -97 -177 -240 -177zM183 317h191c-3 50 -32 89 -93 89
c-66 0 -95 -39 -98 -89z" />
    <glyph glyph-name="edotaccent" unicode="&#x117;" horiz-adv-x="556" 
d="M200 585v156h164v-156h-164zM284 -9c-165 0 -259 120 -259 270c0 148 86 271 256 271c160 0 250 -113 250 -255v-57h-349c1 -61 32 -104 102 -104c57 0 82 28 91 52h149c-14 -94 -97 -177 -240 -177zM183 317h191c-3 50 -32 89 -93 89c-66 0 -95 -39 -98 -89z" />
    <glyph glyph-name="egrave" unicode="&#xe8;" horiz-adv-x="556" 
d="M253 583l-116 146v10h160l66 -146v-10h-110zM284 -9c-165 0 -259 120 -259 270c0 148 86 271 256 271c160 0 250 -113 250 -255v-57h-349c1 -61 32 -104 102 -104c57 0 82 28 91 52h149c-14 -94 -97 -177 -240 -177zM183 317h191c-3 50 -32 89 -93 89
c-66 0 -95 -39 -98 -89z" />
    <glyph glyph-name="emacron" unicode="&#x113;" horiz-adv-x="556" 
d="M136 607v111h293v-111h-293zM284 -9c-165 0 -259 120 -259 270c0 148 86 271 256 271c160 0 250 -113 250 -255v-57h-349c1 -61 32 -104 102 -104c57 0 82 28 91 52h149c-14 -94 -97 -177 -240 -177zM183 317h191c-3 50 -32 89 -93 89c-66 0 -95 -39 -98 -89z" />
    <glyph glyph-name="eogonek" unicode="&#x119;" horiz-adv-x="556" 
d="M531 277v-57h-349c1 -61 32 -104 102 -104c57 0 82 28 91 52h149c-11 -75 -67 -143 -161 -168h2c-46 -18 -85 -55 -85 -94c0 -27 18 -42 49 -42h36v-92h-70c-62 0 -135 32 -135 106c0 56 32 94 67 118c-129 24 -202 133 -202 265c0 148 86 271 256 271
c160 0 250 -113 250 -255zM183 317h191c-3 50 -32 89 -93 89c-66 0 -95 -39 -98 -89z" />
    <glyph glyph-name="uni1EBD" unicode="&#x1ebd;" horiz-adv-x="556" 
d="M335 583c-26 0 -49 8 -68 18l-15 8c-13 7 -23 13 -36 13c-15 0 -27 -12 -27 -37h-92v15c0 84 43 129 108 129c27 0 50 -9 70 -19l16 -8c14 -7 26 -13 36 -13c20 0 24 13 24 38h91v-15c0 -84 -32 -129 -107 -129zM284 -9c-165 0 -259 120 -259 270c0 148 86 271 256 271
c160 0 250 -113 250 -255v-57h-349c1 -61 32 -104 102 -104c57 0 82 28 91 52h149c-14 -94 -97 -177 -240 -177zM183 317h191c-3 50 -32 89 -93 89c-66 0 -95 -39 -98 -89z" />
    <glyph glyph-name="f" unicode="f" horiz-adv-x="429" 
d="M111 0v393h-91v130h91v27c0 128 97 200 219 200h64v-132h-50c-50 0 -79 -18 -79 -68v-27h124v-130h-124v-393h-154z" />
    <glyph glyph-name="g" unicode="g" 
d="M278 -238c-141 0 -235 75 -238 193h151c4 -35 39 -61 87 -61c68 0 102 36 102 83v73h-4c-25 -30 -65 -59 -139 -59c-132 0 -212 114 -212 270c0 157 80 271 212 271c74 0 114 -29 139 -59h4l16 50h138v-548c0 -131 -110 -213 -256 -213zM284 126c78 0 103 62 103 135
s-27 136 -103 136s-103 -63 -103 -136s25 -135 103 -135z" />
    <glyph glyph-name="gbreve" unicode="&#x11f;" 
d="M275 585c-102 0 -161 53 -161 149h108c2 -37 22 -50 53 -50s51 14 53 50h108c0 -96 -57 -149 -161 -149zM278 -238c-141 0 -235 75 -238 193h151c4 -35 39 -61 87 -61c68 0 102 36 102 83v73h-4c-25 -30 -65 -59 -139 -59c-132 0 -212 114 -212 270c0 157 80 271 212 271
c74 0 114 -29 139 -59h4l16 50h138v-548c0 -131 -110 -213 -256 -213zM284 126c78 0 103 62 103 135s-27 136 -103 136s-103 -63 -103 -136s25 -135 103 -135z" />
    <glyph glyph-name="gcaron" unicode="&#x1e7;" 
d="M196 585l-94 142v10h118l55 -54h4l56 54h118v-10l-94 -142h-163zM278 -238c-141 0 -235 75 -238 193h151c4 -35 39 -61 87 -61c68 0 102 36 102 83v73h-4c-25 -30 -65 -59 -139 -59c-132 0 -212 114 -212 270c0 157 80 271 212 271c74 0 114 -29 139 -59h4l16 50h138
v-548c0 -131 -110 -213 -256 -213zM284 126c78 0 103 62 103 135s-27 136 -103 136s-103 -63 -103 -136s25 -135 103 -135z" />
    <glyph glyph-name="gcircumflex" unicode="&#x11d;" 
d="M102 585v10l94 142h163l94 -142v-10h-118l-55 54h-4l-56 -54h-118zM278 -238c-141 0 -235 75 -238 193h151c4 -35 39 -61 87 -61c68 0 102 36 102 83v73h-4c-25 -30 -65 -59 -139 -59c-132 0 -212 114 -212 270c0 157 80 271 212 271c74 0 114 -29 139 -59h4l16 50h138
v-548c0 -131 -110 -213 -256 -213zM284 126c78 0 103 62 103 135s-27 136 -103 136s-103 -63 -103 -136s25 -135 103 -135z" />
    <glyph glyph-name="gcommaaccent" unicode="&#x123;" 
d="M361 745v-10l-21 -156h-150v10l71 156h100zM278 -238c-141 0 -235 75 -238 193h151c4 -35 39 -61 87 -61c68 0 102 36 102 83v73h-4c-25 -30 -65 -59 -139 -59c-132 0 -212 114 -212 270c0 157 80 271 212 271c74 0 114 -29 139 -59h4l16 50h138v-548
c0 -131 -110 -213 -256 -213zM284 126c78 0 103 62 103 135s-27 136 -103 136s-103 -63 -103 -136s25 -135 103 -135z" />
    <glyph glyph-name="gdotaccent" unicode="&#x121;" 
d="M194 585v156h164v-156h-164zM278 -238c-141 0 -235 75 -238 193h151c4 -35 39 -61 87 -61c68 0 102 36 102 83v73h-4c-25 -30 -65 -59 -139 -59c-132 0 -212 114 -212 270c0 157 80 271 212 271c74 0 114 -29 139 -59h4l16 50h138v-548c0 -131 -110 -213 -256 -213z
M284 126c78 0 103 62 103 135s-27 136 -103 136s-103 -63 -103 -136s25 -135 103 -135z" />
    <glyph glyph-name="h" unicode="h" horiz-adv-x="585" 
d="M50 0v740h154v-267h4c29 34 75 59 143 59c116 0 194 -72 194 -188v-344h-154v296c0 60 -27 96 -88 96c-55 0 -99 -39 -99 -102v-290h-154z" />
    <glyph glyph-name="hbar" unicode="&#x127;" horiz-adv-x="585" 
d="M351 532c116 0 194 -72 194 -188v-344h-154v296c0 60 -27 96 -88 96c-55 0 -99 -39 -99 -102v-290h-154v580h-56v100h56v60h154v-60h114v-100h-114v-107h4c29 34 75 59 143 59z" />
    <glyph glyph-name="hcircumflex" unicode="&#x125;" horiz-adv-x="585" 
d="M-45 802v10l94 142h163l94 -142v-10h-118l-55 54h-4l-56 -54h-118zM50 0v740h154v-267h4c29 34 75 59 143 59c116 0 194 -72 194 -188v-344h-154v296c0 60 -27 96 -88 96c-55 0 -99 -39 -99 -102v-290h-154z" />
    <glyph glyph-name="i" unicode="i" horiz-adv-x="244" 
d="M45 585v156h164v-156h-164zM50 0v523h154v-523h-154z" />
    <glyph glyph-name="dotlessi" unicode="&#x131;" horiz-adv-x="244" 
d="M50 0v523h154v-523h-154z" />
    <glyph glyph-name="iacute" unicode="&#xed;" horiz-adv-x="244" 
d="M60 583v10l66 146h160v-10l-116 -146h-110zM50 0v523h154v-523h-154z" />
    <glyph glyph-name="ibreve" unicode="&#x12d;" horiz-adv-x="244" 
d="M127 585c-102 0 -161 53 -161 149h108c2 -37 22 -50 53 -50s51 14 53 50h108c0 -96 -57 -149 -161 -149zM50 0v523h154v-523h-154z" />
    <glyph glyph-name="uni01D0" unicode="&#x1d0;" horiz-adv-x="244" 
d="M48 585l-94 142v10h118l55 -54h4l56 54h118v-10l-94 -142h-163zM50 0v523h154v-523h-154z" />
    <glyph glyph-name="icircumflex" unicode="&#xee;" horiz-adv-x="244" 
d="M-46 585v10l94 142h163l94 -142v-10h-118l-55 54h-4l-56 -54h-118zM50 0v523h154v-523h-154z" />
    <glyph glyph-name="idieresis" unicode="&#xef;" horiz-adv-x="244" 
d="M-35 600v130h129v-130h-129zM166 600v130h129v-130h-129zM50 0v523h154v-523h-154z" />
    <glyph glyph-name="i.loclTRK" horiz-adv-x="244" 
d="M46 585v156h164v-156h-164zM50 0v523h154v-523h-154z" />
    <glyph glyph-name="igrave" unicode="&#xec;" horiz-adv-x="244" 
d="M99 583l-116 146v10h160l66 -146v-10h-110zM50 0v523h154v-523h-154z" />
    <glyph glyph-name="ij" unicode="&#x133;" horiz-adv-x="492" 
d="M45 585v156h164v-156h-164zM293 585v156h164v-156h-164zM50 0v523h154v-523h-154zM194 -238v144h38c47 0 66 26 66 73v544h154v-583c0 -118 -85 -178 -188 -178h-70z" />
    <glyph glyph-name="imacron" unicode="&#x12b;" horiz-adv-x="244" 
d="M-18 607v111h293v-111h-293zM50 0v523h154v-523h-154z" />
    <glyph glyph-name="iogonek" unicode="&#x12f;" horiz-adv-x="244" 
d="M46 741h164v-156h-164v156zM50 0v523h154v-523c-46 -18 -85 -55 -85 -94c0 -27 18 -42 49 -42h36v-92h-70c-62 0 -135 32 -135 106c0 59 36 98 73 122h-22z" />
    <glyph glyph-name="itilde" unicode="&#x129;" horiz-adv-x="244" 
d="M181 583c-26 0 -49 8 -68 18l-15 8c-13 7 -23 13 -36 13c-15 0 -27 -12 -27 -37h-92v15c0 84 43 129 108 129c27 0 50 -9 70 -19l16 -8c14 -7 26 -13 36 -13c20 0 24 13 24 38h91v-15c0 -84 -32 -129 -107 -129zM50 0v523h154v-523h-154z" />
    <glyph glyph-name="j" unicode="j" horiz-adv-x="248" 
d="M49 585v156h164v-156h-164zM-50 -238v144h38c47 0 66 26 66 73v544h154v-583c0 -118 -85 -178 -188 -178h-70z" />
    <glyph glyph-name="uni0237" unicode="&#x237;" horiz-adv-x="248" 
d="M-50 -238v144h38c47 0 66 26 66 73v544h154v-583c0 -118 -85 -178 -188 -178h-70z" />
    <glyph glyph-name="jcircumflex" unicode="&#x135;" horiz-adv-x="248" 
d="M-46 585v10l94 142h163l94 -142v-10h-118l-55 54h-4l-56 -54h-118zM-50 -238v144h38c47 0 66 26 66 73v544h154v-583c0 -118 -85 -178 -188 -178h-70z" />
    <glyph glyph-name="k" unicode="k" horiz-adv-x="561" 
d="M328 276l223 -266v-10h-186l-171 214v-214h-144v740h144v-407l166 190h180v-10z" />
    <glyph glyph-name="kcommaaccent" unicode="&#x137;" horiz-adv-x="561" 
d="M328 276l223 -266v-10h-186l-171 214v-214h-144v740h144v-407l166 190h180v-10zM185 -207l21 156h150v-10l-71 -156h-100v10z" />
    <glyph glyph-name="kgreenlandic" unicode="&#x138;" horiz-adv-x="561" 
d="M328 276l223 -266v-10h-186l-171 214v-214h-144v523h144v-190l166 190h180v-10z" />
    <glyph glyph-name="l" unicode="l" horiz-adv-x="244" 
d="M50 0v740h154v-740h-154z" />
    <glyph glyph-name="lacute" unicode="&#x13a;" horiz-adv-x="244" 
d="M56 800v10l66 146h160v-10l-116 -146h-110zM50 0v740h154v-740h-154z" />
    <glyph glyph-name="lcaron" unicode="&#x13e;" horiz-adv-x="314" 
d="M50 0v740h154v-740h-154zM244 570v170h150v-10l-50 -160h-100z" />
    <glyph glyph-name="lcommaaccent" unicode="&#x13c;" horiz-adv-x="244" 
d="M50 0v740h154v-740h-154zM30 -217v10l21 156h150v-10l-71 -156h-100z" />
    <glyph glyph-name="ldot" unicode="&#x140;" horiz-adv-x="449" 
d="M50 0v740h154v-740h-154zM254 287v156h164v-156h-164z" />
    <glyph glyph-name="lslash" unicode="&#x142;" horiz-adv-x="357" 
d="M337 474v-119l-78 -35v-320h-154v252l-65 -29h-10v117l75 34v366h154v-297l68 31h10z" />
    <glyph glyph-name="m" unicode="m" horiz-adv-x="896" 
d="M662 532c116 0 194 -72 194 -188v-344h-154v296c0 60 -21 96 -82 96c-55 0 -87 -40 -87 -102v-290h-152v296c0 60 -21 96 -82 96c-55 0 -95 -39 -95 -102v-290h-154v523h138l12 -50h4c29 34 75 59 143 59c71 0 125 -25 156 -71h3c27 34 78 71 156 71z" />
    <glyph glyph-name="n" unicode="n" horiz-adv-x="581" 
d="M50 0v523h138l12 -50h4c29 34 75 59 143 59c116 0 194 -73 194 -188v-344h-154v296c0 60 -27 96 -88 96c-55 0 -95 -39 -95 -102v-290h-154z" />
    <glyph glyph-name="nacute" unicode="&#x144;" horiz-adv-x="581" 
d="M264 583v10l66 146h160v-10l-116 -146h-110zM50 0v523h138l12 -50h4c29 34 75 59 143 59c116 0 194 -73 194 -188v-344h-154v296c0 60 -27 96 -88 96c-55 0 -95 -39 -95 -102v-290h-154z" />
    <glyph glyph-name="napostrophe" unicode="&#x149;" horiz-adv-x="611" 
d="M-110 463v10l31 247h169v-10l-82 -247h-118zM50 0v523h138l12 -50h4c29 34 75 59 143 59c116 0 194 -73 194 -188v-344h-154v296c0 60 -27 96 -88 96c-55 0 -95 -39 -95 -102v-290h-154z" />
    <glyph glyph-name="ncaron" unicode="&#x148;" horiz-adv-x="581" 
d="M252 585l-94 142v10h118l55 -54h4l56 54h118v-10l-94 -142h-163zM50 0v523h138l12 -50h4c29 34 75 59 143 59c116 0 194 -73 194 -188v-344h-154v296c0 60 -27 96 -88 96c-55 0 -95 -39 -95 -102v-290h-154z" />
    <glyph glyph-name="ncommaaccent" unicode="&#x146;" horiz-adv-x="581" 
d="M50 0v523h138l12 -50h4c29 34 75 59 143 59c116 0 194 -73 194 -188v-344h-154v296c0 60 -27 96 -88 96c-55 0 -95 -39 -95 -102v-290h-154zM211 -217v10l21 156h150v-10l-71 -156h-100z" />
    <glyph glyph-name="eng" unicode="&#x14b;" horiz-adv-x="581" 
d="M347 532c116 0 194 -72 194 -188v-404c0 -118 -85 -178 -188 -178c-25 0 -52 4 -70 8v139c13 -2 25 -3 38 -3c47 0 66 26 66 73v317c0 60 -27 96 -88 96c-55 0 -95 -39 -95 -102v-290h-154v523h138l12 -50h4c29 34 75 59 143 59z" />
    <glyph glyph-name="ntilde" unicode="&#xf1;" horiz-adv-x="581" 
d="M385 583c-26 0 -49 8 -68 18l-15 8c-13 7 -23 13 -36 13c-15 0 -27 -12 -27 -37h-92v15c0 84 43 129 108 129c27 0 50 -9 70 -19l16 -8c14 -7 26 -13 36 -13c20 0 24 13 24 38h91v-15c0 -84 -32 -129 -107 -129zM50 0v523h138l12 -50h4c29 34 75 59 143 59
c116 0 194 -73 194 -188v-344h-154v296c0 60 -27 96 -88 96c-55 0 -95 -39 -95 -102v-290h-154z" />
    <glyph glyph-name="o" unicode="o" horiz-adv-x="572" 
d="M286 -9c-170 0 -261 113 -261 270s93 271 261 271s261 -114 261 -271c0 -156 -91 -270 -261 -270zM286 126c64 0 104 40 104 135s-40 136 -104 136s-104 -42 -104 -136c0 -95 41 -135 104 -135z" />
    <glyph glyph-name="oacute" unicode="&#xf3;" horiz-adv-x="572" 
d="M219 583v10l66 146h160v-10l-116 -146h-110zM286 -9c-170 0 -261 113 -261 270s93 271 261 271s261 -114 261 -271c0 -156 -91 -270 -261 -270zM286 126c64 0 104 40 104 135s-40 136 -104 136s-104 -42 -104 -136c0 -95 41 -135 104 -135z" />
    <glyph glyph-name="obreve" unicode="&#x14f;" horiz-adv-x="572" 
d="M286 585c-102 0 -161 53 -161 149h108c2 -37 22 -50 53 -50s51 14 53 50h108c0 -96 -57 -149 -161 -149zM286 -9c-170 0 -261 113 -261 270s93 271 261 271s261 -114 261 -271c0 -156 -91 -270 -261 -270zM286 126c64 0 104 40 104 135s-40 136 -104 136
s-104 -42 -104 -136c0 -95 41 -135 104 -135z" />
    <glyph glyph-name="uni01D2" unicode="&#x1d2;" horiz-adv-x="572" 
d="M207 585l-94 142v10h118l55 -54h4l56 54h118v-10l-94 -142h-163zM286 -9c-170 0 -261 113 -261 270s93 271 261 271s261 -114 261 -271c0 -156 -91 -270 -261 -270zM286 126c64 0 104 40 104 135s-40 136 -104 136s-104 -42 -104 -136c0 -95 41 -135 104 -135z" />
    <glyph glyph-name="ocircumflex" unicode="&#xf4;" horiz-adv-x="572" 
d="M113 585v10l94 142h163l94 -142v-10h-118l-55 54h-4l-56 -54h-118zM286 -9c-170 0 -261 113 -261 270s93 271 261 271s261 -114 261 -271c0 -156 -91 -270 -261 -270zM286 126c64 0 104 40 104 135s-40 136 -104 136s-104 -42 -104 -136c0 -95 41 -135 104 -135z" />
    <glyph glyph-name="odieresis" unicode="&#xf6;" horiz-adv-x="572" 
d="M124 600v130h129v-130h-129zM325 600v130h129v-130h-129zM286 -9c-170 0 -261 113 -261 270s93 271 261 271s261 -114 261 -271c0 -156 -91 -270 -261 -270zM286 126c64 0 104 40 104 135s-40 136 -104 136s-104 -42 -104 -136c0 -95 41 -135 104 -135z" />
    <glyph glyph-name="ograve" unicode="&#xf2;" horiz-adv-x="572" 
d="M258 583l-116 146v10h160l66 -146v-10h-110zM286 -9c-170 0 -261 113 -261 270s93 271 261 271s261 -114 261 -271c0 -156 -91 -270 -261 -270zM286 126c64 0 104 40 104 135s-40 136 -104 136s-104 -42 -104 -136c0 -95 41 -135 104 -135z" />
    <glyph glyph-name="ohungarumlaut" unicode="&#x151;" horiz-adv-x="572" 
d="M119 583v10l46 146h160v-10l-106 -146h-100zM319 583v10l46 146h160v-10l-106 -146h-100zM286 -9c-170 0 -261 113 -261 270s93 271 261 271s261 -114 261 -271c0 -156 -91 -270 -261 -270zM286 126c64 0 104 40 104 135s-40 136 -104 136s-104 -42 -104 -136
c0 -95 41 -135 104 -135z" />
    <glyph glyph-name="omacron" unicode="&#x14d;" horiz-adv-x="572" 
d="M141 607v111h293v-111h-293zM286 -9c-170 0 -261 113 -261 270s93 271 261 271s261 -114 261 -271c0 -156 -91 -270 -261 -270zM286 126c64 0 104 40 104 135s-40 136 -104 136s-104 -42 -104 -136c0 -95 41 -135 104 -135z" />
    <glyph glyph-name="oslash" unicode="&#xf8;" horiz-adv-x="572" 
d="M478 457c45 -48 69 -117 69 -196c0 -156 -91 -270 -261 -270c-35 0 -66 5 -94 13l-39 -62h-123v10l68 109c-48 48 -73 118 -73 200c0 157 93 271 261 271c36 0 69 -5 98 -15l33 52h125v-10zM182 261c0 -22 2 -41 6 -57l120 191c-7 1 -14 2 -22 2
c-64 0 -104 -42 -104 -136zM286 126c64 0 104 40 104 135c0 19 -2 35 -4 50l-116 -184c5 -1 10 -1 16 -1z" />
    <glyph glyph-name="otilde" unicode="&#xf5;" horiz-adv-x="572" 
d="M340 583c-26 0 -49 8 -68 18l-15 8c-13 7 -23 13 -36 13c-15 0 -27 -12 -27 -37h-92v15c0 84 43 129 108 129c27 0 50 -9 70 -19l16 -8c14 -7 26 -13 36 -13c20 0 24 13 24 38h91v-15c0 -84 -32 -129 -107 -129zM286 -9c-170 0 -261 113 -261 270s93 271 261 271
s261 -114 261 -271c0 -156 -91 -270 -261 -270zM286 126c64 0 104 40 104 135s-40 136 -104 136s-104 -42 -104 -136c0 -95 41 -135 104 -135z" />
    <glyph glyph-name="oe" unicode="&#x153;" horiz-adv-x="921" 
d="M896 277v-57h-349c1 -61 32 -104 102 -104c57 0 82 28 91 52h149c-14 -94 -97 -177 -240 -177c-76 0 -135 26 -177 68c-44 -43 -106 -68 -186 -68c-170 0 -261 113 -261 270s93 271 261 271c78 0 141 -25 184 -67c41 41 99 67 176 67c160 0 250 -113 250 -255zM548 317
h191c-3 50 -32 89 -93 89c-66 0 -95 -39 -98 -89zM286 126c64 0 104 40 104 135s-40 136 -104 136s-104 -42 -104 -136c0 -95 41 -135 104 -135z" />
    <glyph glyph-name="p" unicode="p" horiz-adv-x="584" 
d="M50 -229v752h138l16 -50h4c25 30 65 59 139 59c130 0 212 -114 212 -271c0 -156 -80 -270 -212 -270c-74 0 -114 29 -139 59h-4v-279h-154zM300 126c78 0 103 62 103 135s-27 136 -103 136s-103 -63 -103 -136s25 -135 103 -135z" />
    <glyph glyph-name="thorn" unicode="&#xfe;" horiz-adv-x="600" 
d="M347 532c130 0 212 -114 212 -271c0 -156 -80 -270 -212 -270c-74 0 -114 29 -139 59h-4v-279h-154v969h154v-267h4c25 30 65 59 139 59zM300 126c78 0 103 62 103 135s-27 136 -103 136s-103 -63 -103 -136s25 -135 103 -135z" />
    <glyph glyph-name="q" unicode="q" 
d="M380 -229v279h-4c-25 -30 -65 -59 -139 -59c-132 0 -212 114 -212 270c0 157 80 271 212 271c74 0 114 -29 139 -59h4l16 50h138v-752h-154zM284 126c78 0 103 62 103 135s-27 136 -103 136s-103 -63 -103 -136s25 -135 103 -135z" />
    <glyph glyph-name="r" unicode="r" horiz-adv-x="389" 
d="M50 0v523h128l12 -76h4c23 46 67 85 134 85h36v-141h-50c-73 0 -120 -49 -120 -133v-258h-144z" />
    <glyph glyph-name="racute" unicode="&#x155;" horiz-adv-x="389" 
d="M141 583v10l66 146h160v-10l-116 -146h-110zM50 0v523h128l12 -76h4c23 46 67 85 134 85h36v-141h-50c-73 0 -120 -49 -120 -133v-258h-144z" />
    <glyph glyph-name="rcaron" unicode="&#x159;" horiz-adv-x="389" 
d="M129 585l-94 142v10h118l55 -54h4l56 54h118v-10l-94 -142h-163zM50 0v523h128l12 -76h4c23 46 67 85 134 85h36v-141h-50c-73 0 -120 -49 -120 -133v-258h-144z" />
    <glyph glyph-name="rcommaaccent" unicode="&#x157;" horiz-adv-x="389" 
d="M50 0v523h128l12 -76h4c23 46 67 85 134 85h36v-141h-50c-73 0 -120 -49 -120 -133v-258h-144zM73 -217v10l21 156h150v-10l-71 -156h-100z" />
    <glyph glyph-name="s" unicode="s" horiz-adv-x="511" 
d="M257 -9c-163 0 -229 79 -232 186h154c0 -29 23 -58 78 -58s74 20 74 38c0 23 -17 34 -53 41l-77 15c-84 16 -160 59 -160 164c0 85 75 155 215 155c136 0 218 -78 218 -175h-152c1 24 -17 54 -69 54c-38 0 -61 -16 -61 -36s14 -31 39 -36l100 -19
c80 -15 155 -52 155 -162c0 -108 -96 -167 -229 -167z" />
    <glyph glyph-name="sacute" unicode="&#x15b;" horiz-adv-x="511" 
d="M188 583v10l66 146h160v-10l-116 -146h-110zM257 -9c-163 0 -229 79 -232 186h154c0 -29 23 -58 78 -58s74 20 74 38c0 23 -17 34 -53 41l-77 15c-84 16 -160 59 -160 164c0 85 75 155 215 155c136 0 218 -78 218 -175h-152c1 24 -17 54 -69 54c-38 0 -61 -16 -61 -36
s14 -31 39 -36l100 -19c80 -15 155 -52 155 -162c0 -108 -96 -167 -229 -167z" />
    <glyph glyph-name="scaron" unicode="&#x161;" horiz-adv-x="511" 
d="M176 585l-94 142v10h118l55 -54h4l56 54h118v-10l-94 -142h-163zM257 -9c-163 0 -229 79 -232 186h154c0 -29 23 -58 78 -58s74 20 74 38c0 23 -17 34 -53 41l-77 15c-84 16 -160 59 -160 164c0 85 75 155 215 155c136 0 218 -78 218 -175h-152c1 24 -17 54 -69 54
c-38 0 -61 -16 -61 -36s14 -31 39 -36l100 -19c80 -15 155 -52 155 -162c0 -108 -96 -167 -229 -167z" />
    <glyph glyph-name="scedilla" unicode="&#x15f;" horiz-adv-x="511" 
d="M486 158c0 -96 -75 -153 -185 -165l-21 -29c59 -5 97 -42 97 -92c0 -57 -54 -100 -147 -100c-75 0 -133 39 -133 102h90c0 -16 18 -30 42 -30s47 10 47 30c0 18 -16 30 -44 30h-32l-25 31l30 59c-125 15 -177 88 -180 183h154c0 -29 23 -58 78 -58s74 20 74 38
c0 23 -17 34 -53 41l-77 15c-84 16 -160 59 -160 164c0 85 75 155 215 155c136 0 218 -78 218 -175h-152c1 24 -17 54 -69 54c-38 0 -61 -16 -61 -36s14 -31 39 -36l100 -19c80 -15 155 -52 155 -162z" />
    <glyph glyph-name="scircumflex" unicode="&#x15d;" horiz-adv-x="511" 
d="M82 585v10l94 142h163l94 -142v-10h-118l-55 54h-4l-56 -54h-118zM257 -9c-163 0 -229 79 -232 186h154c0 -29 23 -58 78 -58s74 20 74 38c0 23 -17 34 -53 41l-77 15c-84 16 -160 59 -160 164c0 85 75 155 215 155c136 0 218 -78 218 -175h-152c1 24 -17 54 -69 54
c-38 0 -61 -16 -61 -36s14 -31 39 -36l100 -19c80 -15 155 -52 155 -162c0 -108 -96 -167 -229 -167z" />
    <glyph glyph-name="scommaaccent" unicode="&#x219;" horiz-adv-x="511" 
d="M257 -9c-163 0 -229 79 -232 186h154c0 -29 23 -58 78 -58s74 20 74 38c0 23 -17 34 -53 41l-77 15c-84 16 -160 59 -160 164c0 85 75 155 215 155c136 0 218 -78 218 -175h-152c1 24 -17 54 -69 54c-38 0 -61 -16 -61 -36s14 -31 39 -36l100 -19
c80 -15 155 -52 155 -162c0 -108 -96 -167 -229 -167zM156 -217v10l21 156h150v-10l-71 -156h-100z" />
    <glyph glyph-name="germandbls" unicode="&#xdf;" horiz-adv-x="685" 
d="M455 -9c-141 0 -215 76 -218 188h144c0 -28 11 -63 74 -63c38 0 60 16 60 37c0 27 -24 39 -68 53l-64 20c-82 26 -130 67 -130 142c0 148 172 124 172 190c0 42 -42 60 -106 60c-73 0 -115 -38 -115 -108v-510h-154v510c0 148 110 240 269 240c162 0 251 -78 251 -191
c0 -159 -176 -137 -176 -192c0 -21 17 -29 39 -36l97 -31c93 -30 130 -76 130 -149c0 -94 -76 -160 -205 -160z" />
    <glyph glyph-name="t" unicode="t" horiz-adv-x="431" 
d="M280 0c-121 0 -175 72 -175 167v225h-85v131h92v137h147v-137h125v-131h-125v-188c0 -49 21 -70 67 -70h60v-134h-106z" />
    <glyph glyph-name="tbar" unicode="&#x167;" horiz-adv-x="431" 
d="M376 134h10v-128c-16 -6 -57 -15 -106 -15c-121 0 -175 72 -175 167v74h-85v100h85v60h-85v131h92v109l137 28h10v-137h125v-131h-125v-60h117v-100h-117v-37c0 -49 21 -70 67 -70c17 0 34 3 50 9z" />
    <glyph glyph-name="tcaron" unicode="&#x165;" horiz-adv-x="431" 
d="M314 570v170h150v-10l-50 -160h-100zM280 0c-121 0 -175 72 -175 167v225h-85v131h92v137h147v-137h125v-131h-125v-188c0 -49 21 -70 67 -70h60v-134h-106z" />
    <glyph glyph-name="uni0163" unicode="&#x163;" horiz-adv-x="431" 
d="M280 0c-121 0 -175 72 -175 167v225h-85v131h92v137h147v-137h125v-131h-125v-188c0 -49 21 -70 67 -70h60v-134h-106zM150 -217v10l21 156h150v-10l-71 -156h-100z" />
    <glyph glyph-name="uni021B" unicode="&#x21b;" horiz-adv-x="431" 
d="M386 0h-86l-26 -36c59 -5 97 -42 97 -92c0 -57 -54 -100 -147 -100c-75 0 -133 39 -133 102h90c0 -16 18 -30 42 -30s47 10 47 30c0 18 -16 30 -44 30h-32l-25 31l38 76c-70 23 -102 83 -102 156v225h-85v131h92v137h147v-137h125v-131h-125v-188c0 -49 21 -70 67 -70h60
v-134z" />
    <glyph glyph-name="u" unicode="u" horiz-adv-x="579" 
d="M244 -9c-116 0 -194 73 -194 188v344h154v-296c0 -60 27 -96 88 -96c55 0 95 39 95 102v290h154v-523h-138l-12 50h-4c-29 -34 -75 -59 -143 -59z" />
    <glyph glyph-name="uacute" unicode="&#xfa;" horiz-adv-x="579" 
d="M225 583v10l66 146h160v-10l-116 -146h-110zM244 -9c-116 0 -194 73 -194 188v344h154v-296c0 -60 27 -96 88 -96c55 0 95 39 95 102v290h154v-523h-138l-12 50h-4c-29 -34 -75 -59 -143 -59z" />
    <glyph glyph-name="ubreve" unicode="&#x16d;" horiz-adv-x="579" 
d="M292 585c-102 0 -161 53 -161 149h108c2 -37 22 -50 53 -50s51 14 53 50h108c0 -96 -57 -149 -161 -149zM244 -9c-116 0 -194 73 -194 188v344h154v-296c0 -60 27 -96 88 -96c55 0 95 39 95 102v290h154v-523h-138l-12 50h-4c-29 -34 -75 -59 -143 -59z" />
    <glyph glyph-name="ucircumflex" unicode="&#xfb;" horiz-adv-x="579" 
d="M119 585v10l94 142h163l94 -142v-10h-118l-55 54h-4l-56 -54h-118zM244 -9c-116 0 -194 73 -194 188v344h154v-296c0 -60 27 -96 88 -96c55 0 95 39 95 102v290h154v-523h-138l-12 50h-4c-29 -34 -75 -59 -143 -59z" />
    <glyph glyph-name="udieresis" unicode="&#xfc;" horiz-adv-x="579" 
d="M130 600v130h129v-130h-129zM331 600v130h129v-130h-129zM244 -9c-116 0 -194 73 -194 188v344h154v-296c0 -60 27 -96 88 -96c55 0 95 39 95 102v290h154v-523h-138l-12 50h-4c-29 -34 -75 -59 -143 -59z" />
    <glyph glyph-name="ugrave" unicode="&#xf9;" horiz-adv-x="579" 
d="M264 583l-116 146v10h160l66 -146v-10h-110zM244 -9c-116 0 -194 73 -194 188v344h154v-296c0 -60 27 -96 88 -96c55 0 95 39 95 102v290h154v-523h-138l-12 50h-4c-29 -34 -75 -59 -143 -59z" />
    <glyph glyph-name="uhungarumlaut" unicode="&#x171;" horiz-adv-x="579" 
d="M125 583v10l46 146h160v-10l-106 -146h-100zM325 583v10l46 146h160v-10l-106 -146h-100zM244 -9c-116 0 -194 73 -194 188v344h154v-296c0 -60 27 -96 88 -96c55 0 95 39 95 102v290h154v-523h-138l-12 50h-4c-29 -34 -75 -59 -143 -59z" />
    <glyph glyph-name="umacron" unicode="&#x16b;" horiz-adv-x="579" 
d="M147 607v111h293v-111h-293zM244 -9c-116 0 -194 73 -194 188v344h154v-296c0 -60 27 -96 88 -96c55 0 95 39 95 102v290h154v-523h-138l-12 50h-4c-29 -34 -75 -59 -143 -59z" />
    <glyph glyph-name="uogonek" unicode="&#x173;" horiz-adv-x="579" 
d="M387 523h154v-523h-7c-46 -18 -85 -55 -85 -94c0 -27 18 -42 49 -42h36v-92h-70c-62 0 -135 32 -135 106c0 59 36 98 74 123l-12 49h-4c-29 -34 -75 -59 -143 -59c-116 0 -194 73 -194 188v344h154v-296c0 -60 27 -96 88 -96c55 0 95 39 95 102v290z" />
    <glyph glyph-name="uring" unicode="&#x16f;" horiz-adv-x="579" 
d="M291 568c-67 0 -117 47 -117 113c0 67 50 114 117 114c69 0 118 -47 118 -114c0 -66 -49 -113 -118 -113zM290 639c27 0 45 18 45 42s-18 43 -45 43c-26 0 -43 -19 -43 -43s17 -42 43 -42zM244 -9c-116 0 -194 73 -194 188v344h154v-296c0 -60 27 -96 88 -96
c55 0 95 39 95 102v290h154v-523h-138l-12 50h-4c-29 -34 -75 -59 -143 -59z" />
    <glyph glyph-name="utilde" unicode="&#x169;" horiz-adv-x="579" 
d="M346 583c-26 0 -49 8 -68 18l-15 8c-13 7 -23 13 -36 13c-15 0 -27 -12 -27 -37h-92v15c0 84 43 129 108 129c27 0 50 -9 70 -19l16 -8c14 -7 26 -13 36 -13c20 0 24 13 24 38h91v-15c0 -84 -32 -129 -107 -129zM244 -9c-116 0 -194 73 -194 188v344h154v-296
c0 -60 27 -96 88 -96c55 0 95 39 95 102v290h154v-523h-138l-12 50h-4c-29 -34 -75 -59 -143 -59z" />
    <glyph glyph-name="v" unicode="v" horiz-adv-x="547" 
d="M176 0l-166 513v10h158l106 -378h4l103 378h156v-10l-164 -513h-197z" />
    <glyph glyph-name="w" unicode="w" horiz-adv-x="833" 
d="M138 0l-128 513v10h151l79 -358h4l70 358h206l70 -358h4l79 358h150v-10l-128 -513h-203l-72 358h-4l-75 -358h-203z" />
    <glyph glyph-name="wacute" unicode="&#x1e83;" horiz-adv-x="833" 
d="M353 583v10l66 146h160v-10l-116 -146h-110zM138 0l-128 513v10h151l79 -358h4l70 358h206l70 -358h4l79 358h150v-10l-128 -513h-203l-72 358h-4l-75 -358h-203z" />
    <glyph glyph-name="wcircumflex" unicode="&#x175;" horiz-adv-x="833" 
d="M247 585v10l94 142h163l94 -142v-10h-118l-55 54h-4l-56 -54h-118zM138 0l-128 513v10h151l79 -358h4l70 358h206l70 -358h4l79 358h150v-10l-128 -513h-203l-72 358h-4l-75 -358h-203z" />
    <glyph glyph-name="wdieresis" unicode="&#x1e85;" horiz-adv-x="833" 
d="M258 600v130h129v-130h-129zM459 600v130h129v-130h-129zM138 0l-128 513v10h151l79 -358h4l70 358h206l70 -358h4l79 358h150v-10l-128 -513h-203l-72 358h-4l-75 -358h-203z" />
    <glyph glyph-name="wgrave" unicode="&#x1e81;" horiz-adv-x="833" 
d="M392 583l-116 146v10h160l66 -146v-10h-110zM138 0l-128 513v10h151l79 -358h4l70 358h206l70 -358h4l79 358h150v-10l-128 -513h-203l-72 358h-4l-75 -358h-203z" />
    <glyph glyph-name="x" unicode="x" horiz-adv-x="564" 
d="M15 0v10l160 253l-154 250v10h166l93 -165h4l93 165h166v-10l-154 -250l160 -253v-10h-170l-95 170h-4l-95 -170h-170z" />
    <glyph glyph-name="y" unicode="y" horiz-adv-x="567" 
d="M10 523h158l106 -371h4l113 371h166v-10l-263 -742h-167v10l75 219h-26l-166 513v10z" />
    <glyph glyph-name="yacute" unicode="&#xfd;" horiz-adv-x="567" 
d="M226 583v10l66 146h160v-10l-116 -146h-110zM10 523h158l106 -371h4l113 371h166v-10l-263 -742h-167v10l75 219h-26l-166 513v10z" />
    <glyph glyph-name="ycircumflex" unicode="&#x177;" horiz-adv-x="567" 
d="M120 585v10l94 142h163l94 -142v-10h-118l-55 54h-4l-56 -54h-118zM10 523h158l106 -371h4l113 371h166v-10l-263 -742h-167v10l75 219h-26l-166 513v10z" />
    <glyph glyph-name="ydieresis" unicode="&#xff;" horiz-adv-x="567" 
d="M131 600v130h129v-130h-129zM332 600v130h129v-130h-129zM10 523h158l106 -371h4l113 371h166v-10l-263 -742h-167v10l75 219h-26l-166 513v10z" />
    <glyph glyph-name="ygrave" unicode="&#x1ef3;" horiz-adv-x="567" 
d="M265 583l-116 146v10h160l66 -146v-10h-110zM10 523h158l106 -371h4l113 371h166v-10l-263 -742h-167v10l75 219h-26l-166 513v10z" />
    <glyph glyph-name="z" unicode="z" horiz-adv-x="502" 
d="M35 0v129l241 259v4h-240v131h429v-130l-240 -258v-4h242v-131h-432z" />
    <glyph glyph-name="zacute" unicode="&#x17a;" horiz-adv-x="502" 
d="M194 583v10l66 146h160v-10l-116 -146h-110zM35 0v129l241 259v4h-240v131h429v-130l-240 -258v-4h242v-131h-432z" />
    <glyph glyph-name="zcaron" unicode="&#x17e;" horiz-adv-x="502" 
d="M182 585l-94 142v10h118l55 -54h4l56 54h118v-10l-94 -142h-163zM35 0v129l241 259v4h-240v131h429v-130l-240 -258v-4h242v-131h-432z" />
    <glyph glyph-name="zdotaccent" unicode="&#x17c;" horiz-adv-x="502" 
d="M180 585v156h164v-156h-164zM35 0v129l241 259v4h-240v131h429v-130l-240 -258v-4h242v-131h-432z" />
    <glyph glyph-name="a.ss01" 
d="M237 -9c-132 0 -212 114 -212 271c0 156 80 270 212 270c74 0 114 -29 139 -59h4l16 50h138v-523h-138l-16 50h-4c-25 -30 -65 -59 -139 -59zM284 126c76 0 103 63 103 136s-25 135 -103 135s-103 -62 -103 -135s27 -136 103 -136z" />
    <glyph glyph-name="aacute.ss01" 
d="M215 583v10l66 146h160v-10l-116 -146h-110zM237 -9c-132 0 -212 114 -212 271c0 156 80 270 212 270c74 0 114 -29 139 -59h4l16 50h138v-523h-138l-16 50h-4c-25 -30 -65 -59 -139 -59zM284 126c76 0 103 63 103 136s-25 135 -103 135s-103 -62 -103 -135
s27 -136 103 -136z" />
    <glyph glyph-name="abreve.ss01" 
d="M282 585c-102 0 -161 53 -161 149h108c2 -37 22 -50 53 -50s51 14 53 50h108c0 -96 -57 -149 -161 -149zM237 -9c-132 0 -212 114 -212 271c0 156 80 270 212 270c74 0 114 -29 139 -59h4l16 50h138v-523h-138l-16 50h-4c-25 -30 -65 -59 -139 -59zM284 126
c76 0 103 63 103 136s-25 135 -103 135s-103 -62 -103 -135s27 -136 103 -136z" />
    <glyph glyph-name="uni01CE.ss01" 
d="M203 585l-94 142v10h118l55 -54h4l56 54h118v-10l-94 -142h-163zM237 -9c-132 0 -212 114 -212 271c0 156 80 270 212 270c74 0 114 -29 139 -59h4l16 50h138v-523h-138l-16 50h-4c-25 -30 -65 -59 -139 -59zM284 126c76 0 103 63 103 136s-25 135 -103 135
s-103 -62 -103 -135s27 -136 103 -136z" />
    <glyph glyph-name="acircumflex.ss01" 
d="M109 585v10l94 142h163l94 -142v-10h-118l-55 54h-4l-56 -54h-118zM237 -9c-132 0 -212 114 -212 271c0 156 80 270 212 270c74 0 114 -29 139 -59h4l16 50h138v-523h-138l-16 50h-4c-25 -30 -65 -59 -139 -59zM284 126c76 0 103 63 103 136s-25 135 -103 135
s-103 -62 -103 -135s27 -136 103 -136z" />
    <glyph glyph-name="adieresis.ss01" 
d="M120 600v130h129v-130h-129zM321 600v130h129v-130h-129zM237 -9c-132 0 -212 114 -212 271c0 156 80 270 212 270c74 0 114 -29 139 -59h4l16 50h138v-523h-138l-16 50h-4c-25 -30 -65 -59 -139 -59zM284 126c76 0 103 63 103 136s-25 135 -103 135s-103 -62 -103 -135
s27 -136 103 -136z" />
    <glyph glyph-name="agrave.ss01" 
d="M254 583l-116 146v10h160l66 -146v-10h-110zM237 -9c-132 0 -212 114 -212 271c0 156 80 270 212 270c74 0 114 -29 139 -59h4l16 50h138v-523h-138l-16 50h-4c-25 -30 -65 -59 -139 -59zM284 126c76 0 103 63 103 136s-25 135 -103 135s-103 -62 -103 -135
s27 -136 103 -136z" />
    <glyph glyph-name="amacron.ss01" 
d="M137 607v111h293v-111h-293zM237 -9c-132 0 -212 114 -212 271c0 156 80 270 212 270c74 0 114 -29 139 -59h4l16 50h138v-523h-138l-16 50h-4c-25 -30 -65 -59 -139 -59zM284 126c76 0 103 63 103 136s-25 135 -103 135s-103 -62 -103 -135s27 -136 103 -136z" />
    <glyph glyph-name="aogonek.ss01" 
d="M534 0c-46 -18 -85 -55 -85 -94c0 -27 18 -42 49 -42h36v-92h-70c-62 0 -135 32 -135 106c0 59 36 98 73 122h-6l-16 50h-4c-25 -30 -65 -59 -139 -59c-132 0 -212 114 -212 271c0 156 80 270 212 270c74 0 114 -29 139 -59h4l16 50h138v-523zM284 126
c76 0 103 63 103 136s-25 135 -103 135s-103 -62 -103 -135s27 -136 103 -136z" />
    <glyph glyph-name="aring.ss01" 
d="M281 568c-67 0 -117 47 -117 113c0 67 50 114 117 114c69 0 118 -47 118 -114c0 -66 -49 -113 -118 -113zM280 639c27 0 45 18 45 42s-18 43 -45 43c-26 0 -43 -19 -43 -43s17 -42 43 -42zM237 -9c-132 0 -212 114 -212 271c0 156 80 270 212 270c74 0 114 -29 139 -59h4
l16 50h138v-523h-138l-16 50h-4c-25 -30 -65 -59 -139 -59zM284 126c76 0 103 63 103 136s-25 135 -103 135s-103 -62 -103 -135s27 -136 103 -136z" />
    <glyph glyph-name="atilde.ss01" 
d="M336 583c-26 0 -49 8 -68 18l-15 8c-13 7 -23 13 -36 13c-15 0 -27 -12 -27 -37h-92v15c0 84 43 129 108 129c27 0 50 -9 70 -19l16 -8c14 -7 26 -13 36 -13c20 0 24 13 24 38h91v-15c0 -84 -32 -129 -107 -129zM237 -9c-132 0 -212 114 -212 271c0 156 80 270 212 270
c74 0 114 -29 139 -59h4l16 50h138v-523h-138l-16 50h-4c-25 -30 -65 -59 -139 -59zM284 126c76 0 103 63 103 136s-25 135 -103 135s-103 -62 -103 -135s27 -136 103 -136z" />
    <glyph glyph-name="ordfeminine" unicode="&#xaa;" horiz-adv-x="360" 
d="M144 296c-77 0 -119 46 -119 107c0 63 43 104 137 104c25 0 59 -5 72 -9v29c0 23 -15 41 -52 41c-31 0 -49 -17 -49 -37h-94c0 63 46 118 147 118c93 0 149 -51 149 -122v-225h-90l-7 31h-3c-19 -22 -49 -37 -91 -37zM169 374c41 0 65 24 65 52v3c-20 9 -41 11 -61 11
c-32 0 -49 -14 -49 -32c0 -20 15 -34 45 -34z" />
    <glyph glyph-name="ordmasculine" unicode="&#xba;" horiz-adv-x="391" 
d="M195 296c-110 0 -170 74 -170 177c0 102 61 176 170 176c110 0 171 -74 171 -176c0 -103 -60 -177 -171 -177zM195 384c42 0 68 27 68 89c0 61 -24 88 -68 88c-42 0 -67 -28 -67 -88c0 -62 26 -89 67 -89z" />
    <glyph glyph-name="zero" unicode="0" horiz-adv-x="628" 
d="M314 -9c-191 0 -274 152 -274 361c0 208 83 360 274 360s274 -152 274 -360c0 -209 -83 -361 -274 -361zM314 127c87 0 117 72 117 225c0 152 -31 224 -117 224s-117 -72 -117 -224c0 -153 30 -225 117 -225z" />
    <glyph glyph-name="one" unicode="1" horiz-adv-x="425" 
d="M210 0v545h-4l-161 -120h-10v147l174 128h156v-700h-155z" />
    <glyph glyph-name="two" unicode="2" horiz-adv-x="569" 
d="M37 0v126l229 219c71 67 100 105 100 155c0 45 -32 76 -85 76c-52 0 -96 -29 -96 -102h-150c0 152 99 238 246 238c143 0 242 -85 242 -207c0 -73 -35 -134 -119 -213l-161 -150v-4h291v-138h-497z" />
    <glyph glyph-name="three" unicode="3" horiz-adv-x="603" 
d="M301 -9c-152 0 -271 73 -271 228h154c0 -39 21 -93 116 -93c75 0 105 38 105 85s-30 86 -115 86h-61v135h59c66 0 95 29 95 75c0 38 -31 70 -91 70c-66 0 -96 -38 -96 -93h-155c0 142 103 228 254 228c136 0 246 -76 246 -189c0 -78 -40 -127 -95 -148v-4
c63 -19 117 -80 117 -158c0 -116 -77 -222 -262 -222z" />
    <glyph glyph-name="four" unicode="4" horiz-adv-x="588" 
d="M330 0v128h-309v148l275 424h189v-436h84v-136h-84v-128h-155zM173 264h157v245h-4l-153 -241v-4z" />
    <glyph glyph-name="five" unicode="5" horiz-adv-x="594" 
d="M296 -9c-153 0 -259 100 -259 217h155c6 -38 33 -81 104 -81c77 0 107 60 107 111c0 48 -30 104 -107 104c-44 0 -75 -17 -100 -49h-149l27 407h432v-137h-306l-11 -133h4c32 26 78 37 127 37c141 0 239 -98 239 -229c0 -140 -96 -247 -263 -247z" />
    <glyph glyph-name="six" unicode="6" horiz-adv-x="612" 
d="M310 -9c-183 0 -270 136 -270 348c0 216 92 373 281 373c151 0 234 -96 247 -201h-147c-10 34 -41 64 -100 64c-81 0 -136 -53 -136 -179h4c32 34 78 61 148 61c151 0 235 -116 235 -225c0 -133 -97 -241 -262 -241zM310 127c59 0 111 38 111 103c0 60 -42 102 -111 102
c-64 0 -110 -42 -110 -102c0 -65 46 -103 110 -103z" />
    <glyph glyph-name="seven" unicode="7" horiz-adv-x="541" 
d="M77 0v10l291 547v4h-353v139h511v-144l-283 -556h-166z" />
    <glyph glyph-name="eight" unicode="8" horiz-adv-x="602" 
d="M458 369c70 -30 109 -84 109 -165c0 -136 -110 -212 -266 -213c-156 1 -266 77 -266 213c0 81 39 135 109 165v4c-54 29 -88 84 -88 154c0 113 102 185 245 185s245 -72 245 -185c0 -70 -34 -125 -88 -154v-4zM301 578c-47 0 -89 -21 -89 -71c0 -52 43 -72 89 -72
c47 0 89 20 89 72c0 50 -42 71 -89 71zM301 125c64 1 109 31 109 89c0 53 -42 86 -109 87c-67 -1 -109 -34 -109 -87c0 -58 45 -88 109 -89z" />
    <glyph glyph-name="nine" unicode="9" horiz-adv-x="612" 
d="M291 -9c-151 0 -234 96 -247 201h147c10 -34 41 -64 100 -64c81 0 136 53 136 179h-4c-32 -34 -78 -61 -148 -61c-151 0 -235 116 -235 225c0 133 97 241 262 241c183 0 270 -136 270 -348c0 -216 -92 -373 -281 -373zM302 371c64 0 110 42 110 102
c0 65 -46 103 -110 103c-59 0 -111 -38 -111 -103c0 -60 42 -102 111 -102z" />
    <glyph glyph-name="uni00B9" unicode="&#xb9;" horiz-adv-x="295" 
d="M155 248v343h-4l-109 -82h-7v104l118 87h107v-452h-105z" />
    <glyph glyph-name="uni00B2" unicode="&#xb2;" horiz-adv-x="411" 
d="M36 248v86l157 136c49 43 68 63 68 97c0 31 -22 52 -58 52c-35 0 -62 -20 -62 -63h-106c0 97 68 156 168 156c98 0 165 -58 165 -141c0 -50 -21 -86 -81 -137l-105 -89v-3h194v-94h-340z" />
    <glyph glyph-name="uni00B3" unicode="&#xb3;" horiz-adv-x="434" 
d="M220 236c-104 0 -185 49 -185 155h105c0 -26 15 -63 79 -63c52 0 72 25 72 53c0 32 -26 54 -80 54h-40v92h38c45 0 67 15 67 46c0 26 -21 47 -62 47c-45 0 -66 -26 -66 -64h-105c0 97 70 156 173 156c93 0 168 -52 168 -129c0 -50 -26 -81 -60 -95v-3
c44 -15 75 -53 75 -105c0 -79 -53 -144 -179 -144z" />
    <glyph glyph-name="fraction" unicode="&#x2044;" horiz-adv-x="561" 
d="M-10 -100v10l434 890h147v-10l-432 -890h-149z" />
    <glyph glyph-name="onehalf" unicode="&#xbd;" horiz-adv-x="955" 
d="M155 248v343h-4l-109 -82h-7v104l118 87h107v-452h-105zM167 0v10l434 690h117v-10l-432 -690h-119zM580 0v86l157 136c49 43 68 63 68 97c0 31 -22 52 -58 52c-35 0 -62 -20 -62 -63h-106c0 97 68 156 168 156c98 0 165 -58 165 -141c0 -50 -21 -86 -81 -137l-105 -89
v-3h194v-94h-340z" />
    <glyph glyph-name="onequarter" unicode="&#xbc;" horiz-adv-x="914" 
d="M155 248v343h-4l-109 -82h-7v104l118 87h107v-452h-105zM167 0v10l434 690h117v-10l-432 -690h-119zM722 0v80h-207v102l171 270h141v-278h52v-94h-52v-80h-105zM619 174h103v159h-4l-99 -155v-4z" />
    <glyph glyph-name="threequarters" unicode="&#xbe;" horiz-adv-x="1004" 
d="M220 236c-104 0 -185 49 -185 155h105c0 -26 15 -63 79 -63c52 0 72 25 72 53c0 32 -26 54 -80 54h-40v92h38c45 0 67 15 67 46c0 26 -21 47 -62 47c-45 0 -66 -26 -66 -64h-105c0 97 70 156 173 156c93 0 168 -52 168 -129c0 -50 -26 -81 -60 -95v-3
c44 -15 75 -53 75 -105c0 -79 -53 -144 -179 -144zM257 0v10l434 690h117v-10l-432 -690h-119zM812 0v80h-207v102l171 270h141v-278h52v-94h-52v-80h-105zM709 174h103v159h-4l-99 -155v-4z" />
    <glyph glyph-name="asterisk" unicode="*" horiz-adv-x="486" 
d="M190 342l15 124l-4 2l-95 -74l-53 103l118 31v4l-118 33l53 103l95 -70l4 3l-15 119h116l-15 -119l4 -3l95 70l53 -103l-118 -33v-4l118 -31l-53 -103l-95 74l-4 -2l15 -124h-116z" />
    <glyph glyph-name="backslash" unicode="\" horiz-adv-x="458" 
d="M297 -133l-282 860v10h147l281 -860v-10h-146z" />
    <glyph glyph-name="periodcentered" unicode="&#xb7;" horiz-adv-x="244" 
d="M40 220v156h164v-156h-164z" />
    <glyph glyph-name="bullet" unicode="&#x2022;" horiz-adv-x="386" 
d="M193 156c-88 0 -133 57 -133 138c0 78 45 135 133 135c85 0 133 -57 133 -135c0 -81 -48 -138 -133 -138z" />
    <glyph glyph-name="colon" unicode=":" horiz-adv-x="244" 
d="M40 317v156h164v-156h-164zM40 0v156h164v-156h-164z" />
    <glyph glyph-name="comma" unicode="," horiz-adv-x="238" 
d="M12 -144v10l31 247h169v-10l-82 -247h-118z" />
    <glyph glyph-name="ellipsis" unicode="&#x2026;" horiz-adv-x="846" 
d="M40 0v156h164v-156h-164zM342 0v156h164v-156h-164zM642 0v156h164v-156h-164z" />
    <glyph glyph-name="exclam" unicode="!" horiz-adv-x="250" 
d="M65 222l-21 382v96h164v-96l-26 -382h-117zM43 0v156h164v-156h-164z" />
    <glyph glyph-name="exclamdown" unicode="&#xa1;" horiz-adv-x="250" 
d="M44 367v156h164v-156h-164zM44 -177v96l21 382h117l26 -382v-96h-164z" />
    <glyph glyph-name="numbersign" unicode="#" horiz-adv-x="705" 
d="M655 399h-111l-18 -103h79v-134h-101l-28 -162h-142l28 162h-88l-28 -162h-142l28 162h-82v134h104l18 103h-72v134h95l28 167h142l-28 -167h88l28 167h142l-28 -167h88v-134zM384 296l18 103h-88l-18 -103h88z" />
    <glyph glyph-name="period" unicode="." horiz-adv-x="244" 
d="M40 0v156h164v-156h-164z" />
    <glyph glyph-name="question" unicode="?" horiz-adv-x="543" 
d="M181 221v16c0 85 33 121 90 166l32 25c33 26 52 42 52 78c0 31 -20 68 -81 68c-54 0 -88 -25 -88 -87h-156c0 127 79 222 244 222c149 0 239 -85 239 -194c0 -65 -28 -115 -76 -152l-42 -33c-44 -34 -64 -52 -64 -93v-16h-150zM175 0v156h164v-156h-164z" />
    <glyph glyph-name="questiondown" unicode="&#xbf;" horiz-adv-x="543" 
d="M204 367v156h164v-156h-164zM269 -186c-149 0 -239 85 -239 194c0 65 28 115 76 152l42 33c44 34 64 52 64 93v16h150v-16c0 -85 -33 -121 -90 -166l-32 -25c-33 -26 -52 -42 -52 -78c0 -31 20 -68 81 -68c54 0 88 25 88 87h156c0 -127 -79 -222 -244 -222z" />
    <glyph glyph-name="quotedbl" unicode="&#x22;" horiz-adv-x="436" 
d="M66 420l-26 157v123h156v-123l-26 -157h-104zM266 420l-26 157v123h156v-123l-26 -157h-104z" />
    <glyph glyph-name="quotesingle" unicode="'" horiz-adv-x="236" 
d="M66 420l-26 157v123h156v-123l-26 -157h-104z" />
    <glyph glyph-name="semicolon" unicode=";" horiz-adv-x="238" 
d="M40 317v156h164v-156h-164zM12 -144v10l31 247h169v-10l-82 -247h-118z" />
    <glyph glyph-name="slash" unicode="/" horiz-adv-x="458" 
d="M15 -133v10l281 860h147v-10l-282 -860h-146z" />
    <glyph glyph-name="underscore" unicode="_" horiz-adv-x="551" 
d="M30 -148v121h491v-121h-491z" />
    <glyph glyph-name="braceleft" unicode="{" horiz-adv-x="430" 
d="M172 298v-4c52 -8 80 -41 80 -102v-175c0 -52 24 -75 70 -75h53v-120h-92c-89 0 -160 64 -160 157v167c0 64 -30 88 -93 90v120c63 2 93 26 93 90v167c0 93 71 157 160 157h92v-120h-53c-46 0 -70 -23 -70 -75v-175c0 -61 -28 -94 -80 -102z" />
    <glyph glyph-name="braceright" unicode="}" horiz-adv-x="430" 
d="M307 446c0 -64 30 -88 93 -90v-120c-63 -2 -93 -26 -93 -90v-167c0 -93 -71 -157 -160 -157h-92v120h53c46 0 70 23 70 75v175c0 61 28 94 80 102v4c-52 8 -80 41 -80 102v175c0 52 -24 75 -70 75h-53v120h92c89 0 160 -64 160 -157v-167z" />
    <glyph glyph-name="bracketleft" unicode="[" horiz-adv-x="337" 
d="M30 -178v948h252v-120h-123v-708h123v-120h-252z" />
    <glyph glyph-name="bracketright" unicode="]" horiz-adv-x="337" 
d="M55 -178v120h123v708h-123v120h252v-948h-252z" />
    <glyph glyph-name="parenleft" unicode="(" horiz-adv-x="365" 
d="M325 770v-10c-74 -97 -156 -264 -156 -464s82 -367 156 -464v-10h-120c-93 101 -180 274 -180 474c0 210 87 373 180 474h120z" />
    <glyph glyph-name="parenright" unicode=")" horiz-adv-x="365" 
d="M160 770c93 -101 180 -264 180 -474c0 -200 -87 -373 -180 -474h-120v10c74 97 156 264 156 464s-82 367 -156 464v10h120z" />
    <glyph glyph-name="emdash" unicode="&#x2014;" horiz-adv-x="1102" 
d="M60 224v138h982v-138h-982z" />
    <glyph glyph-name="endash" unicode="&#x2013;" horiz-adv-x="622" 
d="M60 224v138h502v-138h-502z" />
    <glyph glyph-name="hyphen" unicode="-" horiz-adv-x="466" 
d="M80 224v138h306v-138h-306z" />
    <glyph glyph-name="guillemotleft" unicode="&#xab;" horiz-adv-x="622" 
d="M186 66l-166 212v10l166 212h146v-10l-140 -207l140 -207v-10h-146zM446 66l-166 212v10l166 212h146v-10l-140 -207l140 -207v-10h-146z" />
    <glyph glyph-name="guillemotright" unicode="&#xbb;" horiz-adv-x="622" 
d="M176 66h-146v10l140 207l-140 207v10h146l166 -212v-10zM436 66h-146v10l140 207l-140 207v10h146l166 -212v-10z" />
    <glyph glyph-name="guilsinglleft" unicode="&#x2039;" horiz-adv-x="362" 
d="M186 66l-166 212v10l166 212h146v-10l-140 -207l140 -207v-10h-146z" />
    <glyph glyph-name="guilsinglright" unicode="&#x203a;" horiz-adv-x="362" 
d="M30 66v10l140 207l-140 207v10h146l166 -212v-10l-166 -212h-146z" />
    <glyph glyph-name="quotedblbase" unicode="&#x201e;" horiz-adv-x="450" 
d="M20 -144v10l31 247h169v-10l-82 -247h-118zM230 -144v10l31 247h169v-10l-82 -247h-118z" />
    <glyph glyph-name="quotedblleft" unicode="&#x201c;" horiz-adv-x="450" 
d="M220 700v-10l-31 -247h-169v10l82 247h118zM430 700v-10l-31 -247h-169v10l82 247h118z" />
    <glyph glyph-name="quotedblright" unicode="&#x201d;" horiz-adv-x="450" 
d="M20 443v10l31 247h169v-10l-82 -247h-118zM230 443v10l31 247h169v-10l-82 -247h-118z" />
    <glyph glyph-name="quoteleft" unicode="&#x2018;" horiz-adv-x="240" 
d="M220 700v-10l-31 -247h-169v10l82 247h118z" />
    <glyph glyph-name="quoteright" unicode="&#x2019;" horiz-adv-x="240" 
d="M20 443v10l31 247h169v-10l-82 -247h-118z" />
    <glyph glyph-name="quotesinglbase" unicode="&#x201a;" horiz-adv-x="240" 
d="M20 -144v10l31 247h169v-10l-82 -247h-118z" />
    <glyph glyph-name="space" unicode=" " horiz-adv-x="280" 
 />
    <glyph glyph-name="cent" unicode="&#xa2;" horiz-adv-x="551" 
d="M329 227c24 14 39 39 42 69h155c-6 -110 -72 -197 -197 -213v-83h-98v86c-132 23 -206 126 -206 266s73 244 206 266v82h98v-81c126 -16 191 -103 197 -212h-155c-3 30 -18 55 -42 69v-249zM182 352c0 -65 17 -105 49 -123v245c-32 -18 -49 -58 -49 -122z" />
    <glyph glyph-name="currency" unicode="&#xa4;" horiz-adv-x="558" 
d="M101 -15l-81 79l68 71c-19 33 -31 72 -31 114s12 82 32 116l-69 72l81 79l70 -72c33 19 71 30 110 30s76 -10 108 -28l68 70l81 -79l-67 -69c22 -35 35 -75 35 -119c0 -43 -13 -84 -34 -117l66 -68l-81 -79l-66 68c-33 -18 -71 -29 -110 -29c-41 0 -79 12 -112 31z
M281 147c55 0 98 42 98 102c0 59 -43 101 -98 101c-56 0 -100 -42 -100 -101c0 -60 44 -102 100 -102z" />
    <glyph glyph-name="dollar" unicode="$" horiz-adv-x="632" 
d="M607 206c0 -115 -69 -200 -242 -213v-83h-98v83c-156 16 -239 109 -247 247h159c5 -59 38 -92 88 -105v161l-8 2c-121 26 -216 76 -216 210c0 106 87 184 224 198v84h98v-84c135 -17 229 -105 230 -225h-159c-3 35 -24 68 -71 81v-136l13 -3c130 -27 229 -80 229 -217z
M204 508c0 -25 12 -47 63 -61v118c-46 -10 -63 -34 -63 -57zM365 133c58 9 81 35 81 69c0 37 -22 60 -81 73v-142z" />
    <glyph glyph-name="Euro" unicode="&#x20ac;" horiz-adv-x="751" 
d="M411 132c94 0 139 59 151 125h159c-14 -144 -132 -266 -310 -266c-173 0 -281 95 -321 229h-60v96h43c-1 11 -1 22 -1 33c0 9 0 17 1 26h-43v96h57c39 140 147 238 324 238c179 0 300 -125 310 -273h-160c-6 67 -52 131 -150 131c-76 0 -130 -33 -157 -96h207l-20 -96
h-208c-1 -8 -1 -17 -1 -26c0 -11 0 -22 1 -33h193l-20 -96h-149c29 -58 81 -88 154 -88z" />
    <glyph glyph-name="florin" unicode="&#x192;" horiz-adv-x="483" 
d="M39 -229v10l77 501h-96v130h117l17 111c21 136 93 201 232 201h77v-132h-61c-59 0 -90 -33 -98 -86l-14 -94h131v-130h-151l-77 -511h-154z" />
    <glyph glyph-name="sterling" unicode="&#xa3;" horiz-adv-x="611" 
d="M31 0v131c40 0 69 28 69 80v61h-70v133h70v88c0 120 86 219 236 219c154 0 234 -103 234 -222h-145c0 47 -23 97 -91 97c-56 0 -90 -41 -90 -94v-88h169v-133h-169v-65c0 -30 -8 -61 -33 -75v-4h380v-128h-560z" />
    <glyph glyph-name="yen" unicode="&#xa5;" horiz-adv-x="698" 
d="M688 700v-10l-172 -277h81v-111h-149l-14 -22v-47h163v-111h-163v-122h-158v122h-175v111h175v45l-15 24h-160v111h88l-179 277v10h196l148 -264h4l147 264h183z" />
    <glyph glyph-name="plus" unicode="+" horiz-adv-x="496" 
d="M180 60v187h-175v132h175v187h140v-187h171v-132h-171v-187h-140z" />
    <glyph glyph-name="minus" unicode="&#x2212;" horiz-adv-x="496" 
d="M5 247v132h486v-132h-486z" />
    <glyph glyph-name="multiply" unicode="&#xd7;" horiz-adv-x="467" 
d="M98 90l-93 93l136 136l-136 135l93 93l136 -135l135 135l93 -93l-135 -135l135 -136l-93 -93l-135 136z" />
    <glyph glyph-name="divide" unicode="&#xf7;" horiz-adv-x="496" 
d="M248 423c-52 0 -78 32 -78 79c0 46 26 78 78 78c50 0 78 -32 78 -78c0 -47 -28 -79 -78 -79zM5 250v126h486v-126h-486zM248 46c-52 0 -78 32 -78 79c0 46 26 78 78 78c50 0 78 -32 78 -78c0 -47 -28 -79 -78 -79z" />
    <glyph glyph-name="equal" unicode="=" horiz-adv-x="496" 
d="M5 347v132h486v-132h-486zM5 127v132h486v-132h-486z" />
    <glyph glyph-name="notequal" unicode="&#x2260;" horiz-adv-x="496" 
d="M491 347h-166l-52 -88h218v-132h-297l-27 -45h-102v10l21 35h-81v132h160l52 88h-212v132h291l33 55h102v-10l-27 -45h87v-132z" />
    <glyph glyph-name="greater" unicode="&#x3e;" horiz-adv-x="520" 
d="M30 -12v141l308 156v4l-308 156v141l460 -244v-110z" />
    <glyph glyph-name="less" unicode="&#x3c;" horiz-adv-x="520" 
d="M490 -12l-460 244v110l460 244v-141l-308 -156v-4l308 -156v-141z" />
    <glyph glyph-name="greaterequal" unicode="&#x2265;" horiz-adv-x="520" 
d="M30 173v141l308 86v4l-308 86v141l460 -154v-150zM30 1v132h460v-132h-460z" />
    <glyph glyph-name="lessequal" unicode="&#x2264;" horiz-adv-x="520" 
d="M490 173l-460 154v150l460 154v-141l-308 -86v-4l308 -86v-141zM30 1v132h460v-132h-460z" />
    <glyph glyph-name="plusminus" unicode="&#xb1;" horiz-adv-x="496" 
d="M180 190v137h-175v132h175v137h140v-137h171v-132h-171v-137h-140zM5 7v132h486v-132h-486z" />
    <glyph glyph-name="asciitilde" unicode="~" horiz-adv-x="533" 
d="M365 197c-31 0 -64 9 -97 27l-46 25c-19 10 -37 15 -54 15c-37 0 -63 -20 -76 -57l-77 51c18 63 67 125 151 125c30 0 64 -8 96 -26l46 -25c19 -10 39 -16 57 -16c37 0 63 20 76 57l77 -51c-18 -63 -67 -125 -153 -125z" />
    <glyph glyph-name="percent" unicode="%" horiz-adv-x="844" 
d="M207 348c-104 0 -167 74 -167 182s63 182 167 182c103 0 167 -74 167 -182s-63 -182 -167 -182zM117 0v10l474 690h127v-10l-472 -690h-129zM207 446c37 0 63 21 63 84s-26 84 -63 84s-63 -21 -63 -84s26 -84 63 -84zM637 -9c-104 0 -167 74 -167 182s63 182 167 182
c103 0 167 -74 167 -182s-63 -182 -167 -182zM637 89c37 0 63 21 63 84s-26 84 -63 84s-63 -21 -63 -84s26 -84 63 -84z" />
    <glyph glyph-name="perthousand" unicode="&#x2030;" horiz-adv-x="1224" 
d="M207 348c-104 0 -167 74 -167 182s63 182 167 182c103 0 167 -74 167 -182s-63 -182 -167 -182zM117 0v10l474 690h127v-10l-472 -690h-129zM207 446c37 0 63 21 63 84s-26 84 -63 84s-63 -21 -63 -84s26 -84 63 -84zM637 -9c-104 0 -167 74 -167 182s63 182 167 182
c103 0 167 -74 167 -182s-63 -182 -167 -182zM1017 -9c-104 0 -167 74 -167 182s63 182 167 182c103 0 167 -74 167 -182s-63 -182 -167 -182zM637 89c37 0 63 21 63 84s-26 84 -63 84s-63 -21 -63 -84s26 -84 63 -84zM1017 89c37 0 63 21 63 84s-26 84 -63 84
s-63 -21 -63 -84s26 -84 63 -84z" />
    <glyph glyph-name="at" unicode="@" horiz-adv-x="885" 
d="M462 -100c-236 0 -427 127 -427 404c0 240 198 405 436 405c216 0 379 -135 379 -351c0 -193 -81 -264 -195 -264c-61 0 -100 30 -110 62h-4c-33 -41 -73 -59 -129 -59c-101 0 -166 82 -166 197c0 114 64 202 168 202c44 0 92 -24 111 -60h4l7 49h98l-9 -242
c-1 -32 9 -54 47 -54c52 0 79 60 79 169c0 145 -103 254 -283 254c-199 0 -327 -146 -327 -314c0 -198 132 -300 322 -300c77 0 149 11 205 35v-96c-60 -27 -132 -37 -206 -37zM434 197c62 0 89 43 89 107c0 71 -46 94 -83 94c-48 0 -84 -33 -84 -105c0 -69 34 -96 78 -96z
" />
    <glyph glyph-name="ampersand" unicode="&#x26;" horiz-adv-x="731" 
d="M701 398v-10l-159 -210l152 -168v-10h-181l-58 65c-39 -43 -96 -74 -193 -74c-113 0 -217 68 -217 205c0 74 45 130 121 178l9 5c-46 53 -70 97 -70 152c0 96 79 178 201 178h2c131 0 207 -78 207 -173c0 -82 -41 -120 -110 -163l-26 -16l68 -75l88 116h166zM291 454
l1 -1l29 18c27 17 41 34 41 58c0 29 -17 53 -55 53h-2c-33 -1 -53 -24 -53 -51c0 -23 10 -48 39 -77zM279 129c36 0 59 13 83 41l-101 113l-8 -5c-38 -24 -50 -47 -50 -78c0 -35 24 -71 76 -71z" />
    <glyph glyph-name="paragraph" unicode="&#xb6;" horiz-adv-x="600" 
d="M221 -104v457c-104 0 -188 85 -188 189s84 188 188 188h369v-109h-59v-725h-125v725h-60v-725h-125z" />
    <glyph glyph-name="section" unicode="&#xa7;" horiz-adv-x="633" 
d="M308 -245c-131 0 -206 84 -206 194h123c0 -44 30 -74 83 -74c50 0 77 28 77 60s-16 51 -48 73l-161 111c-75 52 -106 95 -106 169c0 71 45 114 91 140c-26 30 -41 65 -41 109c0 96 77 172 205 172c131 0 206 -84 206 -194h-123c0 44 -30 74 -83 74c-50 0 -77 -28 -77 -60
s16 -51 48 -73l161 -111c75 -52 106 -95 106 -170c0 -70 -45 -113 -91 -139c26 -30 41 -65 41 -109c0 -96 -77 -172 -205 -172zM385 114c32 11 51 33 51 61c0 25 -9 50 -44 74l-144 101c-32 -11 -51 -33 -51 -61c0 -25 9 -50 44 -74z" />
    <glyph glyph-name="copyright" unicode="&#xa9;" horiz-adv-x="820" 
d="M410 709c210 0 349 -150 350 -359c-1 -209 -140 -359 -350 -359s-349 150 -350 359c1 209 140 359 350 359zM410 85c160 0 252 101 253 265c-1 164 -93 265 -253 265s-252 -101 -253 -265c1 -164 93 -265 253 -265zM412 233c39 0 72 15 78 66h93
c-7 -81 -64 -152 -170 -152c-120 0 -185 78 -185 200c0 121 65 201 184 201c110 0 165 -77 169 -154h-93c-4 51 -39 67 -76 67c-59 0 -90 -34 -90 -114c0 -81 31 -114 90 -114z" />
    <glyph glyph-name="registered" unicode="&#xae;" horiz-adv-x="514" 
d="M257 268c-142 0 -237 106 -237 236s95 236 237 236s237 -106 237 -236s-95 -236 -237 -236zM257 343c97 0 159 59 159 161s-62 161 -159 161s-159 -59 -159 -161s62 -161 159 -161zM170 397v208h109c45 0 78 -32 78 -74c0 -27 -11 -53 -34 -66l41 -62v-6h-66l-36 58h-31
v-58h-61zM231 509h36c15 0 25 6 25 22c0 14 -10 20 -25 20h-36v-42z" />
    <glyph glyph-name="trademark" unicode="&#x2122;" horiz-adv-x="730" 
d="M124 373v252h-94v75h272v-75h-94v-252h-84zM344 373v327h92l87 -145h4l85 145h91v-327h-77v201h-4l-92 -148h-10l-95 150h-4v-203h-77z" />
    <glyph glyph-name="degree" unicode="&#xb0;" horiz-adv-x="412" 
d="M206 365c-102 0 -178 75 -178 175s76 175 178 175s178 -75 178 -175s-76 -175 -178 -175zM206 464c46 0 72 34 72 76s-25 76 -72 76c-46 0 -72 -34 -72 -76s26 -76 72 -76z" />
    <glyph glyph-name="bar" unicode="|" horiz-adv-x="274" 
d="M70 -138v898h134v-898h-134z" />
    <glyph glyph-name="brokenbar" unicode="&#xa6;" horiz-adv-x="274" 
d="M70 402v358h134v-358h-134zM70 -138v358h134v-358h-134z" />
    <glyph glyph-name="dagger" unicode="&#x2020;" horiz-adv-x="454" 
d="M404 587v-122h-110v-129l-20 -165h-94l-20 165v129h-110v122h110v113h134v-113h110z" />
    <glyph glyph-name="daggerdbl" unicode="&#x2021;" horiz-adv-x="454" 
d="M287 465l-13 -115l14 -115h116v-122h-110v-113h-134v113h-110v122h116l14 115l-13 115h-117v122h110v113h134v-113h110v-122h-117z" />
    <glyph glyph-name="uni2116" unicode="&#x2116;" horiz-adv-x="1159" 
d="M906 331c-119 0 -182 79 -182 189s65 189 182 189c118 0 183 -79 183 -189c0 -109 -64 -189 -183 -189zM70 0v700h185l258 -457h4v457h156v-700h-186l-258 454h-4v-454h-155zM906 433c41 0 67 26 67 87s-26 87 -67 87s-67 -27 -67 -87c0 -61 27 -87 67 -87zM744 181v111
h326v-111h-326z" />
    <glyph glyph-name="asciicircum" unicode="^" horiz-adv-x="588" 
d="M35 310v10l196 380h127l195 -380v-10h-141l-116 238h-4l-116 -238h-141z" />
    <glyph glyph-name="uni0326" unicode="&#x326;" horiz-adv-x="0" 
d="M-201 -217v10l21 156h150v-10l-71 -156h-100z" />
    <glyph glyph-name="acute" unicode="&#xb4;" horiz-adv-x="286" 
d="M30 583v10l66 146h160v-10l-116 -146h-110z" />
    <glyph glyph-name="breve" unicode="&#x2d8;" horiz-adv-x="392" 
d="M196 585c-102 0 -161 53 -161 149h108c2 -37 22 -50 53 -50s51 14 53 50h108c0 -96 -57 -149 -161 -149z" />
    <glyph glyph-name="caron" unicode="&#x2c7;" horiz-adv-x="401" 
d="M119 585l-94 142v10h118l55 -54h4l56 54h118v-10l-94 -142h-163z" />
    <glyph glyph-name="cedilla" unicode="&#xb8;" horiz-adv-x="340" 
d="M163 -228c-75 0 -133 39 -133 102h90c0 -16 18 -30 42 -30s47 10 47 30c0 18 -16 30 -44 30h-32l-25 31l40 79h101l-36 -50c59 -5 97 -42 97 -92c0 -57 -54 -100 -147 -100z" />
    <glyph glyph-name="circumflex" unicode="&#x2c6;" horiz-adv-x="401" 
d="M25 585v10l94 142h163l94 -142v-10h-118l-55 54h-4l-56 -54h-118z" />
    <glyph glyph-name="dieresis" unicode="&#xa8;" horiz-adv-x="450" 
d="M60 600v130h129v-130h-129zM261 600v130h129v-130h-129z" />
    <glyph glyph-name="dotaccent" unicode="&#x2d9;" horiz-adv-x="246" 
d="M42 585v156h164v-156h-164z" />
    <glyph glyph-name="grave" unicode="`" horiz-adv-x="286" 
d="M146 583l-116 146v10h160l66 -146v-10h-110z" />
    <glyph glyph-name="hungarumlaut" unicode="&#x2dd;" horiz-adv-x="466" 
d="M30 583v10l46 146h160v-10l-106 -146h-100zM230 583v10l46 146h160v-10l-106 -146h-100z" />
    <glyph glyph-name="macron" unicode="&#xaf;" horiz-adv-x="353" 
d="M30 607v111h293v-111h-293z" />
    <glyph glyph-name="ogonek" unicode="&#x2db;" horiz-adv-x="265" 
d="M165 -228c-62 0 -135 32 -135 106s57 117 102 138l103 -16c-46 -18 -85 -55 -85 -94c0 -27 18 -42 49 -42h36v-92h-70z" />
    <glyph glyph-name="ring" unicode="&#x2da;" horiz-adv-x="295" 
d="M147 568c-67 0 -117 47 -117 113c0 67 50 114 117 114c69 0 118 -47 118 -114c0 -66 -49 -113 -118 -113zM146 639c27 0 45 18 45 42s-18 43 -45 43c-26 0 -43 -19 -43 -43s17 -42 43 -42z" />
    <glyph glyph-name="tilde" unicode="&#x2dc;" horiz-adv-x="385" 
d="M258 583c-26 0 -49 8 -68 18l-15 8c-13 7 -23 13 -36 13c-15 0 -27 -12 -27 -37h-92v15c0 84 43 129 108 129c27 0 50 -9 70 -19l16 -8c14 -7 26 -13 36 -13c20 0 24 13 24 38h91v-15c0 -84 -32 -129 -107 -129z" />
    <glyph glyph-name="caron.Slovak" horiz-adv-x="210" 
d="M30 530v170h150v-10l-50 -160h-100z" />
    </font>
</defs>
</svg>
