<?xml version="1.0" standalone="no"?>
<!DOCTYPE svg PUBLIC "-//W3C//DTD SVG 1.1//EN" "http://www.w3.org/Graphics/SVG/1.1/DTD/svg11.dtd" >
<svg xmlns="http://www.w3.org/2000/svg" xmlns:xlink="http://www.w3.org/1999/xlink" version="1.1">
<metadata>
Created by FontForge 20181014 at Mon Feb  5 10:51:37 2018
 By convertio
Copyright (c) 2017 by atipo. All rights reserved.
</metadata>
<defs>
<font id="." horiz-adv-x="589" >
  <font-face 
    font-family="."
    font-weight="400"
    font-stretch="normal"
    units-per-em="1000"
    panose-1="0 0 5 0 0 0 0 0 0 0"
    ascent="800"
    descent="-200"
    x-height="511"
    cap-height="700"
    bbox="-162 -245 1134 980"
    underline-thickness="50"
    underline-position="-250"
    unicode-range="U+0020-25FC"
  />
<missing-glyph horiz-adv-x="940" 
 />
    <glyph glyph-name=".notdef" horiz-adv-x="940" 
 />
    <glyph glyph-name=".null" horiz-adv-x="0" 
 />
    <glyph glyph-name="nonmarkingreturn" horiz-adv-x="333" 
 />
    <glyph glyph-name="space" unicode=" " horiz-adv-x="300" 
 />
    <glyph glyph-name="exclam" unicode="!" horiz-adv-x="278" 
d="M114 222l-21 382v96h94v-96l-26 -382h-47zM85 0v110h108v-110h-108z" />
    <glyph glyph-name="quotedbl" unicode="&#x22;" horiz-adv-x="416" 
d="M91 440l-16 147v113h86v-113l-16 -147h-54zM271 440l-16 147v113h86v-113l-16 -147h-54z" />
    <glyph glyph-name="numbersign" unicode="#" horiz-adv-x="685" 
d="M635 429h-136l-28 -163h114v-74h-126l-33 -192h-72l33 192h-148l-33 -192h-72l33 192h-117v74h129l28 163h-107v74h120l33 197h72l-33 -197h148l33 197h72l-33 -197h123v-74zM399 266l28 163h-148l-28 -163h148z" />
    <glyph glyph-name="dollar" unicode="$" horiz-adv-x="632" 
d="M577 192q0 -86 -60 -139t-165 -61v-82h-68v82q-111 7 -171 65t-63 153h89q4 -59 41 -95t104 -43v251l-25 5q-93 20 -139.5 65.5t-46.5 123.5q0 83 55 133.5t156 57.5v82h68v-83q97 -9 154.5 -65t58.5 -141h-89q-2 51 -33 84.5t-91 41.5v-229l26 -5q199 -41 199 -201z
M283 413h1v215q-120 -12 -120 -111q0 -78 119 -104zM352 72q134 12 134 120q0 48 -32 74.5t-93 39.5l-9 2v-236z" />
    <glyph glyph-name="percent" unicode="%" horiz-adv-x="854" 
d="M217 348q-74 0 -110.5 50t-36.5 132t36.5 132t110.5 50t110.5 -50t36.5 -132t-36.5 -132t-110.5 -50zM151 0v10l474 690h77v-10l-472 -690h-79zM217 412q76 0 76 118t-76 118t-76 -118t76 -118zM637 -9q-74 0 -110.5 50t-36.5 132t36.5 132t110.5 50t110.5 -50t36.5 -132
t-36.5 -132t-110.5 -50zM637 55q76 0 76 118t-76 118t-76 -118t76 -118z" />
    <glyph glyph-name="ampersand" unicode="&#x26;" horiz-adv-x="731" 
d="M681 398v-10l-152 -225l145 -153v-10h-111l-86 92q-85 -101 -198 -101q-93 0 -153.5 53.5t-60.5 139.5q0 63 33.5 106t97.5 79l15 9l-12 13q-39 41 -55.5 77t-16.5 80q0 70 49.5 115t127.5 46h2q80 0 129.5 -45.5t49.5 -117.5q0 -60 -32 -99t-110 -83l-3 -2l132 -139
l119 175h90zM281 424l5 -5l3 2q33 18 48 27.5t33.5 25t25 32t6.5 38.5q0 41 -25.5 64.5t-71.5 23.5h-2q-42 -1 -66.5 -24.5t-24.5 -61.5q0 -53 69 -122zM279 69q79 0 143 82l-157 169l-22 -12q-44 -25 -67.5 -53.5t-22.5 -70.5q1 -52 35.5 -83.5t90.5 -31.5z" />
    <glyph glyph-name="quotesingle" unicode="'" horiz-adv-x="236" 
d="M91 440l-16 147v113h86v-113l-16 -147h-54z" />
    <glyph glyph-name="parenleft" unicode="(" horiz-adv-x="365" 
d="M275 750v-10q-146 -191 -146 -444t146 -444v-10h-65q-160 195 -160 454t160 454h65z" />
    <glyph glyph-name="parenright" unicode=")" horiz-adv-x="365" 
d="M155 750q160 -195 160 -454t-160 -454h-65v10q146 191 146 444t-146 444v10h65z" />
    <glyph glyph-name="asterisk" unicode="*" horiz-adv-x="486" 
d="M205 382l16 126l-4 3l-107 -71l-35 68l122 41v4l-122 41l35 68l105 -74l4 4l-14 128h76l-14 -128l4 -4l105 74l35 -68l-122 -41v-4l122 -41l-35 -68l-107 71l-4 -3l16 -126h-76z" />
    <glyph glyph-name="plus" unicode="+" horiz-adv-x="476" 
d="M200 70v207h-195v72h195v207h80v-207h191v-72h-191v-207h-80z" />
    <glyph glyph-name="comma" unicode="," horiz-adv-x="238" 
d="M42 -134v10l31 227h99v-10l-62 -227h-68z" />
    <glyph glyph-name="hyphen" unicode="-" horiz-adv-x="466" 
d="M80 254v78h306v-78h-306z" />
    <glyph glyph-name="period" unicode="." horiz-adv-x="238" 
d="M65 0v110h108v-110h-108z" />
    <glyph glyph-name="slash" unicode="/" horiz-adv-x="388" 
d="M15 -133v10l281 860h77v-10l-282 -860h-76z" />
    <glyph glyph-name="zero" unicode="0" horiz-adv-x="628" 
d="M314 -9q-244 0 -244 361q0 360 244 360t244 -360q0 -361 -244 -361zM314 67q46 0 78 22.5t48.5 63.5t23.5 89t7 110q0 284 -157 284t-157 -284q0 -62 7 -110t23.5 -89t48.5 -63.5t78 -22.5z" />
    <glyph glyph-name="one" unicode="1" horiz-adv-x="425" 
d="M230 0v605h-4l-161 -126h-10v86l174 135h86v-700h-85z" />
    <glyph glyph-name="two" unicode="2" horiz-adv-x="569" 
d="M67 0v66l239 279q44 51 60 72t28 47.5t12 55.5q0 53 -32 84.5t-93 31.5q-62 0 -96.5 -34.5t-34.5 -97.5h-85q0 93 57.5 150.5t158.5 57.5q97 0 154.5 -53.5t57.5 -135.5q0 -54 -27.5 -99.5t-101.5 -131.5l-181 -210v-4h321v-78h-437z" />
    <glyph glyph-name="three" unicode="3" horiz-adv-x="603" 
d="M301 -9q-105 0 -168 55.5t-63 147.5h84q1 -56 39 -92t107 -36t107 35.5t38 94.5q0 63 -40.5 97t-114.5 34h-61v75h59q60 0 97.5 33t37.5 87q0 51 -31.5 83t-93.5 32q-64 0 -98 -33t-36 -89h-85q5 93 63 145t159 52q92 0 151 -50.5t59 -133.5q0 -112 -105 -153v-4
q61 -19 94 -65t33 -109q0 -90 -61.5 -148t-170.5 -58z" />
    <glyph glyph-name="four" unicode="4" horiz-adv-x="588" 
d="M364 0v148h-319v88l283 464h121v-476h94v-76h-94v-148h-85zM127 224h237v391h-4l-233 -387v-4z" />
    <glyph glyph-name="five" unicode="5" horiz-adv-x="594" 
d="M296 -9q-105 0 -168 58.5t-63 148.5h85q0 -56 39 -93.5t107 -37.5q76 0 111.5 43t35.5 116q0 70 -36.5 113t-109.5 43q-82 0 -132 -69h-88l27 387h392v-77h-318l-16 -223h4q53 57 144 57q103 0 161 -63.5t58 -164.5q0 -109 -59.5 -173.5t-173.5 -64.5z" />
    <glyph glyph-name="six" unicode="6" horiz-adv-x="622" 
d="M317 -9q-128 0 -187.5 94.5t-59.5 253.5q0 77 14 141.5t43 118t80.5 83.5t119.5 30q90 0 148.5 -49.5t68.5 -131.5h-87q-5 48 -40.5 76t-89.5 28q-89 0 -130.5 -76.5t-41.5 -197.5h4q51 96 170 96q104 0 163.5 -65.5t59.5 -164.5q0 -102 -63.5 -169t-171.5 -67zM318 67
q69 0 108 45t39 113q0 69 -38.5 113t-108.5 44q-71 0 -109.5 -43.5t-38.5 -112.5q0 -68 39.5 -113.5t108.5 -45.5z" />
    <glyph glyph-name="seven" unicode="7" horiz-adv-x="541" 
d="M105 0v10l303 607v4h-363v79h451v-84l-307 -616h-84z" />
    <glyph glyph-name="eight" unicode="8" horiz-adv-x="602" 
d="M418 369q119 -45 119 -176q0 -94 -63 -147.5t-173 -54.5q-110 1 -173 54.5t-63 147.5q0 131 119 176v4q-98 44 -98 154q0 85 57.5 134.5t157.5 50.5q100 -1 157.5 -50.5t57.5 -134.5q0 -110 -98 -154v-4zM172 523q0 -51 33.5 -84t95.5 -34q62 1 95.5 34t33.5 84
q0 52 -33 83t-96 32q-63 -1 -96 -32t-33 -83zM301 65q75 1 112 37t37 97q0 59 -36.5 95t-112.5 37q-76 -1 -112.5 -37t-36.5 -95q0 -61 37 -97t112 -37z" />
    <glyph glyph-name="nine" unicode="9" horiz-adv-x="622" 
d="M295 -9q-90 0 -148.5 49.5t-68.5 131.5h87q5 -48 40.5 -76t89.5 -28q89 0 130.5 76.5t41.5 197.5h-4q-51 -96 -170 -96q-104 0 -163.5 65.5t-59.5 164.5q0 102 63.5 169t171.5 67q128 0 187.5 -94.5t59.5 -253.5q0 -77 -14 -141.5t-43 -118t-80.5 -83.5t-119.5 -30z
M304 321q71 0 109.5 43.5t38.5 112.5q0 68 -39.5 113.5t-108.5 45.5t-108 -45t-39 -113q0 -69 38.5 -113t108.5 -44z" />
    <glyph glyph-name="colon" unicode=":" horiz-adv-x="238" 
d="M65 356v110h108v-110h-108zM65 0v110h108v-110h-108z" />
    <glyph glyph-name="semicolon" unicode=";" horiz-adv-x="238" 
d="M65 356v110h108v-110h-108zM42 -134v10l31 227h99v-10l-62 -227h-68z" />
    <glyph glyph-name="less" unicode="&#x3c;" horiz-adv-x="520" 
d="M470 -12l-420 249v90l420 249v-91l-341 -201v-4l341 -201v-91z" />
    <glyph glyph-name="equal" unicode="=" horiz-adv-x="476" 
d="M5 370v72h466v-72h-466zM5 180v72h466v-72h-466z" />
    <glyph glyph-name="greater" unicode="&#x3e;" horiz-adv-x="520" 
d="M50 -12v91l341 201v4l-341 201v91l420 -249v-90z" />
    <glyph glyph-name="question" unicode="?" horiz-adv-x="543" 
d="M221 222v16q0 59 20.5 90.5t69.5 70.5l32 25q51 40 52 103q0 48 -31 78t-90 30q-65 0 -96.5 -34.5t-31.5 -92.5h-86q0 86 55.5 144t158.5 58q94 0 151.5 -49.5t57.5 -131.5q0 -94 -76 -153l-42 -33q-37 -29 -50.5 -48.5t-13.5 -56.5v-16h-80zM207 0v110h108v-110h-108z
" />
    <glyph glyph-name="at" unicode="@" horiz-adv-x="916" 
d="M462 -100q-178 0 -287.5 110t-109.5 294q0 180 113.5 292.5t292.5 112.5q165 0 272 -96t107 -255q0 -111 -48 -187.5t-139 -76.5q-38 0 -67 19t-34 53h-4q-35 -69 -121 -69q-75 0 -118 54.5t-43 142.5t46.5 145t126.5 57q33 0 62.5 -16.5t43.5 -43.5h4l7 49h68l-9 -266
q-2 -54 47 -54q48 0 76 56t28 137q0 130 -85.5 207t-222.5 77q-144 0 -235.5 -97t-91.5 -247q0 -148 89.5 -239t232.5 -91q123 0 205 35v-66q-82 -37 -206 -37zM449 167q51 0 77.5 39t26.5 98q0 56 -25 90t-73 34t-73.5 -38.5t-25.5 -96.5q0 -55 23.5 -90.5t69.5 -35.5z" />
    <glyph glyph-name="A" unicode="A" horiz-adv-x="682" 
d="M394 700l258 -690v-10h-93l-66 183h-306l-66 -183h-91v10l257 690h107zM215 261h250l-123 342h-4z" />
    <glyph glyph-name="B" unicode="B" horiz-adv-x="666" 
d="M100 0v700h281q90 0 147 -48.5t57 -133.5q0 -104 -88 -143v-4q114 -46 114 -169q0 -95 -59.5 -148.5t-163.5 -53.5h-288zM186 400h174q63 0 99.5 29.5t36.5 88.5q0 50 -32.5 77t-92.5 27h-185v-222zM186 79h192q64 0 103.5 32.5t39.5 90.5q0 60 -37.5 91t-105.5 31h-192
v-245z" />
    <glyph glyph-name="C" unicode="C" horiz-adv-x="709" 
d="M369 -9q-148 0 -228.5 97t-80.5 261q0 165 81 262.5t228 97.5q124 0 196.5 -65t83.5 -178h-90q-9 75 -56.5 118t-133.5 43q-59 0 -102.5 -23t-68.5 -63.5t-36.5 -88t-11.5 -103.5t11.5 -103.5t36.5 -87.5t68.5 -63t102.5 -23q164 0 191 155h89q-15 -111 -86 -173.5
t-194 -62.5z" />
    <glyph glyph-name="D" unicode="D" horiz-adv-x="704" 
d="M100 0v700h232q147 0 229.5 -95t82.5 -255q0 -154 -80.5 -252t-231.5 -98h-232zM187 79h136q114 0 172.5 76.5t58.5 194.5q0 117 -58.5 193.5t-172.5 76.5h-136v-541z" />
    <glyph glyph-name="E" unicode="E" horiz-adv-x="610" 
d="M100 0v700h450v-80h-363v-219h332v-80h-332v-242h363v-79h-450z" />
    <glyph glyph-name="F" unicode="F" horiz-adv-x="599" 
d="M100 0v700h439v-80h-352v-235h318v-80h-318v-305h-87z" />
    <glyph glyph-name="G" unicode="G" horiz-adv-x="721" 
d="M366 -9q-148 0 -227 96.5t-79 260.5q0 166 79.5 263.5t226.5 97.5q125 0 199 -63.5t84 -169.5h-90q-7 68 -57 109.5t-136 41.5q-59 0 -102 -23.5t-67.5 -64t-35.5 -88t-11 -103.5q0 -119 51.5 -197.5t164.5 -78.5q101 0 156.5 61t55.5 156h-192v79h275v-59
q0 -147 -78 -232.5t-217 -85.5z" />
    <glyph glyph-name="H" unicode="H" horiz-adv-x="735" 
d="M548 700h87v-700h-87v321h-361v-321h-87v700h87v-298h361v298z" />
    <glyph glyph-name="I" unicode="I" horiz-adv-x="288" 
d="M100 0v700h88v-700h-88z" />
    <glyph glyph-name="J" unicode="J" horiz-adv-x="532" 
d="M235 -9q-95 0 -150 57.5t-55 151.5h88q0 -58 30.5 -92t88.5 -34t87.5 34.5t29.5 94.5v497h88v-497q0 -97 -55.5 -154.5t-151.5 -57.5z" />
    <glyph glyph-name="K" unicode="K" horiz-adv-x="631" 
d="M297 369l324 -359v-10h-105l-329 364v-364h-87v700h87v-326l320 326h104v-10z" />
    <glyph glyph-name="L" unicode="L" horiz-adv-x="550" 
d="M100 0v700h87v-620h338v-80h-425z" />
    <glyph glyph-name="M" unicode="M" horiz-adv-x="880" 
d="M100 0v700h103l236 -427h4l236 427h101v-700h-83v561h-4l-248 -441h-10l-248 444h-4v-564h-83z" />
    <glyph glyph-name="N" unicode="N" horiz-adv-x="743" 
d="M100 0v700h95l358 -557h4v557h86v-700h-96l-358 554h-4v-554h-85z" />
    <glyph glyph-name="O" unicode="O" horiz-adv-x="740" 
d="M370 -9q-154 0 -232 99.5t-78 259.5t77.5 259.5t232.5 99.5q154 0 232 -99.5t78 -259.5q0 -159 -78 -259t-232 -100zM370 73q115 0 167.5 79t52.5 198t-52.5 198t-167.5 79q-60 0 -104.5 -23t-68.5 -63t-35.5 -87.5t-11.5 -103.5q0 -119 52.5 -198t167.5 -79z" />
    <glyph glyph-name="P" unicode="P" horiz-adv-x="649" 
d="M100 0v700h258q106 0 168.5 -61t62.5 -160q0 -101 -63 -163t-168 -62h-171v-254h-87zM187 334h160q73 0 112.5 37.5t39.5 107.5q0 67 -40.5 104.5t-111.5 37.5h-160v-287z" />
    <glyph glyph-name="Q" unicode="Q" horiz-adv-x="740" 
d="M680 350q0 -189 -101 -284l94 -129v-10h-95l-68 93q-60 -29 -140 -29q-154 0 -232 99.5t-78 259.5t77.5 259.5t232.5 99.5q154 0 232 -99.5t78 -259.5zM370 73q49 0 89 16l-86 119v10h95l58 -80q64 74 64 212q0 119 -52.5 198t-167.5 79q-60 0 -104.5 -23t-68.5 -63
t-35.5 -87.5t-11.5 -103.5q0 -119 52.5 -198t167.5 -79z" />
    <glyph glyph-name="R" unicode="R" horiz-adv-x="670" 
d="M448 288l188 -278v-10h-95l-184 277h-170v-277h-87v700h277q104 0 163 -59t59 -151q0 -77 -40.5 -129.5t-110.5 -72.5zM187 620v-263h185q66 0 101 34.5t35 97.5q0 62 -35.5 96.5t-100.5 34.5h-185z" />
    <glyph glyph-name="S" unicode="S" horiz-adv-x="632" 
d="M315 -9q-125 0 -193.5 59t-71.5 160h89q4 -66 49.5 -103t126.5 -37q171 0 171 122q0 48 -32 74.5t-93 39.5l-102 22q-93 20 -139.5 65.5t-46.5 123.5q0 89 64 140.5t179 51.5q112 0 180 -57.5t69 -150.5h-89q-3 59 -43.5 93.5t-118.5 34.5q-150 0 -150 -112
q0 -78 119 -104l95 -20q199 -41 199 -201q0 -94 -70 -147.5t-192 -53.5z" />
    <glyph glyph-name="T" unicode="T" horiz-adv-x="592" 
d="M252 0v620h-217v80h522v-80h-217v-620h-88z" />
    <glyph glyph-name="U" unicode="U" horiz-adv-x="714" 
d="M356 -9q-124 0 -195 68t-71 188v453h87v-451q0 -83 45.5 -130.5t133.5 -47.5q89 0 134.5 47.5t45.5 130.5v451h88v-453q0 -120 -71 -188t-197 -68z" />
    <glyph glyph-name="V" unicode="V" horiz-adv-x="664" 
d="M287 0l-257 690v10h91l210 -583h4l207 583h92v-10l-258 -690h-89z" />
    <glyph glyph-name="W" unicode="W" horiz-adv-x="906" 
d="M202 0l-172 690v10h85l134 -564h4l154 564h90l156 -564h4l133 564h86v-10l-174 -690h-88l-159 559h-4l-162 -559h-87z" />
    <glyph glyph-name="X" unicode="X" horiz-adv-x="631" 
d="M20 0v10l239 340v4l-232 336v10h97l189 -285h4l189 285h97v-10l-232 -336v-4l239 -340v-10h-97l-196 280h-4l-196 -280h-97z" />
    <glyph glyph-name="Y" unicode="Y" horiz-adv-x="649" 
d="M281 0v292l-251 398v10h98l196 -324h4l195 324h96v-10l-250 -398v-292h-88z" />
    <glyph glyph-name="Z" unicode="Z" horiz-adv-x="597" 
d="M40 0v77l402 538v4h-393v81h502v-79l-401 -537v-4h407v-80h-517z" />
    <glyph glyph-name="bracketleft" unicode="[" horiz-adv-x="345" 
d="M50 -158v908h202v-64h-128v-781h131v-63h-205z" />
    <glyph glyph-name="backslash" unicode="\" horiz-adv-x="388" 
d="M297 -133l-282 860v10h77l281 -860v-10h-76z" />
    <glyph glyph-name="bracketright" unicode="]" horiz-adv-x="345" 
d="M90 -158v63h131v781h-128v64h202v-908h-205z" />
    <glyph glyph-name="asciicircum" unicode="^" horiz-adv-x="588" 
d="M50 310v10l199 380h90l199 -380v-10h-86l-156 311h-4l-156 -311h-86z" />
    <glyph glyph-name="underscore" unicode="_" horiz-adv-x="591" 
d="M60 -98v71h471v-71h-471z" />
    <glyph glyph-name="grave" unicode="`" horiz-adv-x="261" 
d="M151 583l-116 136v10h115l76 -136v-10h-75z" />
    <glyph glyph-name="a" unicode="a" horiz-adv-x="549" 
d="M228 -9q-81 0 -129.5 45t-48.5 113q0 70 52.5 115t158.5 45h126v33q0 46 -29.5 76t-88.5 30q-54 0 -83 -26t-30 -65h-81q0 73 54.5 118t139.5 45q95 0 147.5 -50t52.5 -126v-344h-71l-6 72h-4q-48 -81 -160 -81zM243 61q64 0 104 40t40 97v44h-126q-126 0 -126 -92
q0 -40 27.5 -64.5t80.5 -24.5z" />
    <glyph glyph-name="b" unicode="b" horiz-adv-x="599" 
d="M332 -9q-106 0 -154 80h-4l-11 -71h-73v740h84v-300h4q48 80 154 80q104 0 160 -73t57 -191q-1 -124 -58.5 -194.5t-158.5 -70.5zM318 66q75 0 110.5 53t35.5 137q0 83 -35.5 136t-110.5 53q-72 0 -109 -53.5t-37 -135.5t37 -136t109 -54z" />
    <glyph glyph-name="c" unicode="c" horiz-adv-x="543" 
d="M282 -9q-113 0 -172.5 70.5t-59.5 193.5q0 122 59.5 193.5t171.5 71.5q98 0 151 -51t59 -133h-84q-4 51 -37.5 80t-88.5 29q-75 0 -110.5 -52.5t-35.5 -137.5q0 -86 35.5 -138t110.5 -52q57 0 90 28t38 79h84q-8 -84 -61 -132.5t-150 -48.5z" />
    <glyph glyph-name="d" unicode="d" 
d="M267 -9q-101 0 -158.5 70.5t-58.5 194.5q1 118 57 191t160 73q106 0 154 -80h4v300h84v-740h-73l-11 71h-4q-48 -80 -154 -80zM281 66q72 0 109 54t37 136t-37 135.5t-109 53.5q-75 0 -110.5 -53t-35.5 -136q0 -84 35.5 -137t110.5 -53z" />
    <glyph glyph-name="e" unicode="e" horiz-adv-x="552" 
d="M282 -9q-110 0 -171 73.5t-61 190.5t59 191t172 74q105 0 163 -69.5t58 -179.5v-41h-364q0 -75 37 -119.5t107 -44.5q51 0 85 21t44 61h84q-10 -70 -70 -113.5t-143 -43.5zM139 300h276q0 64 -34.5 104.5t-99.5 40.5q-68 0 -104 -40.5t-38 -104.5z" />
    <glyph glyph-name="f" unicode="f" horiz-adv-x="370" 
d="M122 0v441h-91v70h91v89q0 67 40.5 108.5t108.5 41.5h64v-72h-50q-38 0 -58.5 -20.5t-20.5 -57.5v-89h124v-70h-124v-441h-84z" />
    <glyph glyph-name="g" unicode="g" 
d="M283 -238q-96 0 -156 49t-62 124h81q3 -42 37.5 -71.5t99.5 -29.5q70 0 106 38.5t36 99.5v99h-4q-48 -80 -154 -80q-104 0 -160 73t-57 191q1 124 58.5 194.5t158.5 70.5q106 0 154 -80h4l11 71h73v-541q0 -91 -60 -149.5t-166 -58.5zM281 66q72 0 109 53.5t37 135.5
t-37 136t-109 54q-75 0 -110.5 -53t-35.5 -137q0 -83 35.5 -136t110.5 -53z" />
    <glyph glyph-name="h" unicode="h" horiz-adv-x="595" 
d="M90 0v740h84v-309h4q46 89 156 89q85 0 133 -50t48 -138v-332h-84v319q0 126 -120 126q-63 0 -100 -44t-37 -121v-280h-84z" />
    <glyph glyph-name="i" unicode="i" horiz-adv-x="254" 
d="M85 617v98h94v-98h-94zM90 0v511h84v-511h-84z" />
    <glyph glyph-name="j" unicode="j" horiz-adv-x="268" 
d="M99 617v98h94v-98h-94zM0 -238v74h38q66 0 66 73v602h84v-601q0 -74 -36 -111t-112 -37h-40z" />
    <glyph glyph-name="k" unicode="k" horiz-adv-x="515" 
d="M90 740h84v-740h-84v740zM282 287l213 -277v-10h-97l-224 287l216 224h99v-10z" />
    <glyph glyph-name="l" unicode="l" horiz-adv-x="254" 
d="M90 0v740h84v-740h-84z" />
    <glyph glyph-name="m" unicode="m" horiz-adv-x="906" 
d="M650 520q84 0 130 -50.5t46 -137.5v-332h-84v319q0 126 -113 126q-60 0 -94 -43t-34 -120v-282h-84v319q0 126 -113 126q-60 0 -95 -43t-35 -120v-282h-84v511h73l7 -80h4q46 89 153 89q111 0 154 -89h4q46 89 165 89z" />
    <glyph glyph-name="n" unicode="n" horiz-adv-x="591" 
d="M90 0v511h73l7 -80h4q46 89 158 89q84 0 131.5 -50t47.5 -138v-332h-84v319q0 126 -118 126q-64 0 -99.5 -43t-35.5 -120v-282h-84z" />
    <glyph glyph-name="o" unicode="o" horiz-adv-x="562" 
d="M281 -9q-115 0 -173 73.5t-58 190.5t59 191t172 74t172 -74t59 -191t-58.5 -190.5t-172.5 -73.5zM281 66q75 0 110.5 51t35.5 138t-35.5 138.5t-110.5 51.5q-74 0 -110 -51.5t-36 -138.5t36 -138t110 -51z" />
    <glyph glyph-name="p" unicode="p" horiz-adv-x="599" 
d="M90 -229v740h73l11 -71h4q48 80 154 80q101 0 158.5 -70.5t58.5 -194.5q-1 -118 -57 -191t-160 -73q-106 0 -154 80h-4v-300h-84zM318 66q75 0 110.5 53t35.5 136q0 84 -35.5 137t-110.5 53q-72 0 -109 -54t-37 -136t37 -135.5t109 -53.5z" />
    <glyph glyph-name="q" unicode="q" 
d="M425 -229v300h-4q-48 -80 -154 -80q-104 0 -160 73t-57 191q1 124 58.5 194.5t158.5 70.5q106 0 154 -80h4l11 71h73v-740h-84zM281 66q72 0 109 53.5t37 135.5t-37 136t-109 54q-75 0 -110.5 -53t-35.5 -137q0 -83 35.5 -136t110.5 -53z" />
    <glyph glyph-name="r" unicode="r" horiz-adv-x="390" 
d="M90 0v511h73l7 -86h4q16 43 52 67.5t83 24.5h46v-81h-40q-141 0 -141 -188v-248h-84z" />
    <glyph glyph-name="s" unicode="s" horiz-adv-x="511" 
d="M259 -9q-92 0 -149.5 47.5t-59.5 130.5h84q0 -50 34 -76.5t91 -26.5q117 0 117 73q0 56 -78 73l-102 19q-63 13 -96.5 50t-33.5 93q0 64 51 105t135 41q87 0 142 -45t55 -120h-82q-2 47 -33.5 70.5t-81.5 23.5q-48 0 -76.5 -19.5t-28.5 -55.5q0 -58 89 -72l80 -15
q75 -17 110 -50.5t35 -97.5q0 -68 -58 -108t-144 -40z" />
    <glyph glyph-name="t" unicode="t" horiz-adv-x="381" 
d="M260 0q-73 0 -104 35t-31 102v303h-85v71h87v137h82v-137h125v-71h-125v-296q0 -37 16 -53.5t51 -16.5h60v-74h-76z" />
    <glyph glyph-name="u" unicode="u" horiz-adv-x="581" 
d="M259 -8q-84 0 -131.5 50t-47.5 138v331h84v-318q0 -126 118 -126q64 0 99.5 43t35.5 120v281h84v-511h-73l-7 81h-4q-46 -89 -158 -89z" />
    <glyph glyph-name="v" unicode="v" horiz-adv-x="526" 
d="M221 0l-201 501v10h87l157 -413h4l151 413h87v-10l-198 -501h-87z" />
    <glyph glyph-name="w" unicode="w" horiz-adv-x="750" 
d="M165 0l-145 501v10h87l102 -397h4l120 397h86l120 -397h4l102 397h85v-10l-144 -501h-87l-120 397h-4l-123 -397h-87z" />
    <glyph glyph-name="x" unicode="x" horiz-adv-x="483" 
d="M10 0v10l179 247l-173 244v10h90l135 -197h4l134 197h91v-10l-174 -242l177 -249v-10h-88l-140 202h-4l-142 -202h-89z" />
    <glyph glyph-name="y" unicode="y" horiz-adv-x="527" 
d="M20 511h90l155 -401h4l150 401h88v-10l-283 -730h-85v10l87 223l-1 3l-205 494v10z" />
    <glyph glyph-name="z" unicode="z" horiz-adv-x="502" 
d="M55 0v69l291 367v4h-290v71h389v-70l-290 -366v-4h292v-71h-392z" />
    <glyph glyph-name="braceleft" unicode="{" horiz-adv-x="430" 
d="M127 298v-4q90 -12 90 -112v-170q0 -56 22 -80.5t78 -24.5h23v-65h-27q-91 0 -130.5 40.5t-39.5 126.5v157q0 86 -93 90v80q93 4 93 90v157q0 86 39.5 126.5t130.5 40.5h27v-65h-23q-56 0 -78 -24.5t-22 -80.5v-170q0 -100 -90 -112z" />
    <glyph glyph-name="bar" unicode="|" horiz-adv-x="274" 
d="M100 -138v898h74v-898h-74z" />
    <glyph glyph-name="braceright" unicode="}" horiz-adv-x="430" 
d="M287 426q0 -86 93 -90v-80q-93 -4 -93 -90v-157q0 -86 -39.5 -126.5t-130.5 -40.5h-27v65h23q56 0 78 24.5t22 80.5v170q0 100 90 112v4q-90 12 -90 112v170q0 56 -22 80.5t-78 24.5h-23v65h27q91 0 130.5 -40.5t39.5 -126.5v-157z" />
    <glyph glyph-name="asciitilde" unicode="~" horiz-adv-x="573" 
d="M385 217q-47 0 -97 27l-46 25q-28 15 -54 15q-54 0 -86 -57l-57 41q48 95 143 95q48 0 94 -26l46 -25q28 -16 57 -16q54 0 86 57l57 -41q-48 -95 -143 -95z" />
    <glyph glyph-name="uni00A0" unicode="&#xa0;" horiz-adv-x="300" 
 />
    <glyph glyph-name="exclamdown" unicode="&#xa1;" horiz-adv-x="278" 
d="M85 401v110h108v-110h-108zM93 -189v96l21 382h47l26 -382v-96h-94z" />
    <glyph glyph-name="cent" unicode="&#xa2;" horiz-adv-x="543" 
d="M493 262q-7 -76 -51.5 -123.5t-125.5 -55.5v-83h-68v83q-97 10 -147.5 79t-50.5 183q0 112 51 182.5t147 80.5v92h68v-92q82 -9 126 -58.5t49 -123.5h-84q-6 87 -91 106v-374q84 17 93 104h84zM135 345q0 -76 27.5 -126t85.5 -61v374q-58 -11 -85.5 -61.5t-27.5 -125.5z
" />
    <glyph glyph-name="sterling" unicode="&#xa3;" horiz-adv-x="601" 
d="M41 0v81q79 2 79 80v151h-80v73h80v130q0 81 59 139t157 58q96 0 155 -60t59 -140h-85q0 51 -34.5 88t-96.5 37t-96 -34.5t-34 -87.5v-130h249v-73h-249v-155q0 -57 -33 -75v-4h390v-78h-520z" />
    <glyph glyph-name="currency" unicode="&#xa4;" horiz-adv-x="594" 
d="M109 -14l-59 59l73 76q-35 54 -35 118q0 66 37 121l-75 77l60 59l75 -78q54 35 116 35q60 0 111 -31l72 74l60 -59l-70 -73q41 -57 41 -125q0 -70 -40 -123l69 -71l-59 -59l-70 72q-52 -33 -114 -33q-64 0 -119 37zM301 97q59 0 98.5 40t39.5 102t-39.5 101.5t-98.5 39.5
t-99.5 -40t-40.5 -101q0 -62 40.5 -102t99.5 -40z" />
    <glyph glyph-name="yen" unicode="&#xa5;" horiz-adv-x="649" 
d="M619 700v-10l-199 -317h132v-81h-183v-89h183v-81h-183v-122h-88v122h-184v81h184v89h-184v81h133l-200 317v10h98l196 -324h4l195 324h96z" />
    <glyph glyph-name="brokenbar" unicode="&#xa6;" horiz-adv-x="274" 
d="M100 402v358h74v-358h-74zM100 -138v358h74v-358h-74z" />
    <glyph glyph-name="section" unicode="&#xa7;" horiz-adv-x="545" 
d="M268 -245q-83 0 -135 49.5t-54 129.5h83q2 -50 30.5 -78.5t75.5 -28.5q48 0 73.5 23.5t25.5 64.5q0 46 -42 82l-210 171q-65 54 -65 135q0 87 86 135q-41 47 -41 109q0 72 50.5 117t131.5 45q83 0 135 -49.5t54 -129.5h-83q-2 50 -30.5 78.5t-75.5 28.5
q-46 0 -72.5 -23.5t-26.5 -64.5q0 -48 42 -82l189 -153q86 -69 86 -153q0 -42 -25 -77.5t-61 -57.5q41 -47 41 -109q0 -74 -48.5 -118t-133.5 -44zM360 72q24 13 38.5 34.5t14.5 45.5q0 53 -45 90l-183 150q-53 -29 -53 -86q0 -46 36 -76z" />
    <glyph glyph-name="dieresis" unicode="&#xa8;" horiz-adv-x="385" 
d="M54 617v103h103v-103h-103zM228 617v103h103v-103h-103z" />
    <glyph glyph-name="copyright" unicode="&#xa9;" horiz-adv-x="820" 
d="M410 709q153 0 251 -102.5t99 -256.5q-1 -154 -99 -256.5t-251 -102.5t-251 102.5t-99 256.5q1 154 99 256.5t251 102.5zM410 55q130 0 206 81.5t77 213.5q-1 132 -77 213.5t-206 81.5t-206 -81.5t-77 -213.5q1 -132 77 -213.5t206 -81.5zM412 203q88 0 98 81h63
q-5 -63 -46 -100t-114 -37q-85 0 -130 53.5t-45 146.5t45 147t129 54q75 0 115.5 -39t43.5 -100h-63q-3 38 -28 60t-68 22q-56 0 -83 -39.5t-27 -104.5t27 -104.5t83 -39.5z" />
    <glyph glyph-name="ordfeminine" unicode="&#xaa;" horiz-adv-x="385" 
d="M172 296q-53 0 -87.5 31t-34.5 77t37 77.5t107 31.5q36 0 80 -12v26q0 67 -75 67q-36 0 -54.5 -15.5t-18.5 -41.5h-59q0 49 37.5 80.5t94.5 31.5q63 0 99.5 -35t36.5 -85v-227h-54l-4 44h-3q-31 -50 -102 -50zM182 350q41 0 66.5 23.5t25.5 60.5v16q-42 12 -80 12
q-80 0 -80 -58q0 -54 68 -54z" />
    <glyph glyph-name="guillemotleft" unicode="&#xab;" horiz-adv-x="572" 
d="M206 66l-166 212v10l166 212h76v-10l-140 -207l140 -207v-10h-76zM436 66l-166 212v10l166 212h76v-10l-140 -207l140 -207v-10h-76z" />
    <glyph glyph-name="uni00AD" unicode="&#xad;" horiz-adv-x="466" 
d="M80 254v78h306v-78h-306z" />
    <glyph glyph-name="registered" unicode="&#xae;" horiz-adv-x="474" 
d="M237 298q-88 0 -145 58t-57 148t57 148t145 58t145 -58t57 -148t-57 -148t-145 -58zM237 343q70 0 112 43t42 118t-42 118t-112 43t-112 -43t-42 -118t42 -118t112 -43zM162 397v208h86q33 0 53.5 -18t20.5 -46q0 -47 -39 -64l49 -74v-6h-44l-47 74h-35v-74h-44zM206 510
h41q30 0 30 28t-30 28h-41v-56z" />
    <glyph glyph-name="macron" unicode="&#xaf;" horiz-adv-x="343" 
d="M35 617v81h273v-81h-273z" />
    <glyph glyph-name="degree" unicode="&#xb0;" horiz-adv-x="466" 
d="M233 368q-75 0 -124 49t-49 123t49 123t124 49t124 -49t49 -123t-49 -123t-124 -49zM233 432q47 0 75 31t28 77t-28 77t-75 31t-75 -31t-28 -77t28 -77t75 -31z" />
    <glyph glyph-name="plusminus" unicode="&#xb1;" horiz-adv-x="476" 
d="M200 210v167h-195v72h195v167h80v-167h191v-72h-191v-167h-80zM5 67v72h466v-72h-466z" />
    <glyph glyph-name="uni00B2" unicode="&#xb2;" horiz-adv-x="403" 
d="M51 253v63l154 153q38 38 51.5 61t13.5 51q0 25 -18.5 43.5t-52.5 18.5q-37 0 -55.5 -20.5t-18.5 -47.5h-75q0 56 41 97t108 40q70 0 108.5 -39t38.5 -90q0 -39 -18.5 -73t-64.5 -78l-110 -106v-3h200v-70h-302z" />
    <glyph glyph-name="uni00B3" unicode="&#xb3;" horiz-adv-x="416" 
d="M208 247q-73 0 -115.5 40t-42.5 101h71q1 -32 24.5 -52t62.5 -20t60 18.5t21 53.5q0 31 -21.5 48.5t-62.5 17.5h-52v68h51q74 0 74 65q0 24 -19 40.5t-53 16.5q-38 0 -57 -18.5t-21 -50.5h-72q2 62 41 99.5t111 37.5q66 1 106.5 -34t40.5 -91q0 -33 -16 -57.5t-38 -35.5
v-4q29 -11 47 -38t18 -63q0 -64 -43 -103t-115 -39z" />
    <glyph glyph-name="acute" unicode="&#xb4;" horiz-adv-x="261" 
d="M35 583v10l76 136h115v-10l-116 -136h-75z" />
    <glyph glyph-name="paragraph" unicode="&#xb6;" horiz-adv-x="647" 
d="M218 -104v457q-78 0 -133 55.5t-55 133.5t55 133t133 55h329v-69h-69v-765h-75v765h-110v-765h-75z" />
    <glyph glyph-name="periodcentered" unicode="&#xb7;" horiz-adv-x="238" 
d="M65 246v110h108v-110h-108z" />
    <glyph glyph-name="cedilla" unicode="&#xb8;" horiz-adv-x="300" 
d="M148 -218q-48 0 -80.5 23.5t-32.5 67.5h60q0 -34 52 -34q20 0 33.5 8.5t13.5 24.5q0 14 -12 23t-32 9h-32l-25 31l40 79h71l-36 -60q43 0 70 -22.5t27 -59.5q0 -39 -29 -64.5t-88 -25.5z" />
    <glyph glyph-name="uni00B9" unicode="&#xb9;" horiz-adv-x="288" 
d="M163 248v365h-4l-99 -76h-10v76l113 87h75v-452h-75z" />
    <glyph glyph-name="ordmasculine" unicode="&#xba;" horiz-adv-x="414" 
d="M207 296q-76 0 -116.5 49.5t-40.5 126.5t41 127t116 50q76 0 116.5 -50t40.5 -127t-40 -126.5t-117 -49.5zM207 356q88 0 88 116q0 117 -88 117t-88 -117q0 -116 88 -116z" />
    <glyph glyph-name="guillemotright" unicode="&#xbb;" horiz-adv-x="572" 
d="M136 66h-76v10l140 207l-140 207v10h76l166 -212v-10zM366 66h-76v10l140 207l-140 207v10h76l166 -212v-10z" />
    <glyph glyph-name="onequarter" unicode="&#xbc;" horiz-adv-x="891" 
d="M163 248v365h-4l-99 -76h-10v76l113 87h75v-452h-75zM175 0v10l434 690h77v-10l-432 -690h-79zM706 0v95h-206v77l184 280h96v-287h61v-70h-61v-95h-74zM575 165h131v201h-4l-127 -197v-4z" />
    <glyph glyph-name="onehalf" unicode="&#xbd;" horiz-adv-x="922" 
d="M163 248v365h-4l-99 -76h-10v76l113 87h75v-452h-75zM175 0v10l434 690h77v-10l-432 -690h-79zM570 0v63l154 153q38 38 51.5 61t13.5 51q0 25 -18.5 43.5t-52.5 18.5q-37 0 -55.5 -20.5t-18.5 -47.5h-75q0 56 41 96.5t108 40.5q70 0 108.5 -39t38.5 -90q0 -39 -18.5 -73
t-64.5 -78l-110 -106v-3h200v-70h-302z" />
    <glyph glyph-name="threequarters" unicode="&#xbe;" horiz-adv-x="981" 
d="M208 247q-73 0 -115.5 40t-42.5 101h71q1 -32 24.5 -52t62.5 -20t60 18.5t21 53.5q0 31 -21.5 48.5t-62.5 17.5h-52v68h51q74 0 74 65q0 24 -19 40.5t-53 16.5q-38 0 -57 -18.5t-21 -50.5h-72q2 62 41 99.5t111 37.5q66 1 106.5 -34t40.5 -91q0 -33 -16 -57.5t-38 -35.5
v-4q29 -11 47 -38t18 -63q0 -64 -43 -103t-115 -39zM265 0v10l434 690h77v-10l-432 -690h-79zM796 0v95h-206v77l184 280h96v-287h61v-70h-61v-95h-74zM665 165h131v201h-4l-127 -197v-4z" />
    <glyph glyph-name="questiondown" unicode="&#xbf;" horiz-adv-x="543" 
d="M228 401v110h108v-110h-108zM269 -199q-94 0 -151.5 49.5t-57.5 131.5q0 94 76 153l42 33q37 29 50.5 48.5t13.5 56.5v16h80v-16q0 -59 -20.5 -90.5t-69.5 -70.5l-32 -25q-52 -41 -52 -103q0 -48 31 -78t90 -30q65 0 96.5 34.5t31.5 92.5h86q0 -86 -55.5 -144t-158.5 -58
z" />
    <glyph glyph-name="Agrave" unicode="&#xc0;" horiz-adv-x="682" 
d="M399 772h-75l-116 136v10h115l76 -136v-10zM394 700l258 -690v-10h-93l-66 183h-306l-66 -183h-91v10l257 690h107zM215 261h250l-123 342h-4z" />
    <glyph glyph-name="Aacute" unicode="&#xc1;" horiz-adv-x="682" 
d="M478 908l-116 -136h-75v10l76 136h115v-10zM394 700l258 -690v-10h-93l-66 183h-306l-66 -183h-91v10l257 690h107zM215 261h250l-123 342h-4z" />
    <glyph glyph-name="Acircumflex" unicode="&#xc2;" horiz-adv-x="682" 
d="M341 854l-72 -80h-83v10l102 132h111l102 -132v-10h-84l-72 80h-4zM394 700l258 -690v-10h-93l-66 183h-306l-66 -183h-91v10l257 690h107zM215 261h250l-123 342h-4z" />
    <glyph glyph-name="Atilde" unicode="&#xc3;" horiz-adv-x="682" 
d="M266 833q-16 0 -26.5 -11.5t-10.5 -31.5h-60v15q0 47 27.5 72.5t70.5 25.5q32 0 67 -22l14 -9q23 -14 40 -14q16 0 26.5 12t10.5 31h59v-15q0 -48 -27 -73t-70 -25q-31 0 -66 22l-14 9q-23 14 -41 14zM394 700l258 -690v-10h-93l-66 183h-306l-66 -183h-91v10l257 690
h107zM215 261h250l-123 342h-4z" />
    <glyph glyph-name="Adieresis" unicode="&#xc4;" horiz-adv-x="682" 
d="M308 909v-103h-103v103h103zM482 909v-103h-103v103h103zM394 700l258 -690v-10h-93l-66 183h-306l-66 -183h-91v10l257 690h107zM215 261h250l-123 342h-4z" />
    <glyph glyph-name="Aring" unicode="&#xc5;" horiz-adv-x="682" 
d="M340 761q-48 0 -79.5 30.5t-31.5 78.5t31.5 79t79.5 31q50 0 81 -30.5t31 -79.5q0 -48 -31.5 -78.5t-80.5 -30.5zM339 919q-21 0 -34 -14t-13 -35t13 -34.5t34 -13.5q22 0 35.5 13.5t13.5 34.5t-13.5 35t-35.5 14zM394 700l258 -690v-10h-93l-66 183h-306l-66 -183h-91
v10l257 690h107zM215 261h250l-123 342h-4z" />
    <glyph glyph-name="AE" unicode="&#xc6;" horiz-adv-x="910" 
d="M30 0v10l257 690h563v-80h-426l82 -219h313v-80h-283l90 -242h224v-79h-291l-66 183h-306l-66 -183h-91zM215 261h250l-123 342h-4z" />
    <glyph glyph-name="Ccedilla" unicode="&#xc7;" horiz-adv-x="709" 
d="M369 72q164 0 191 155h89q-14 -104 -78 -166t-174 -69l-23 -38q43 0 70 -22.5t27 -59.5q0 -39 -29 -64.5t-88 -25.5q-48 0 -80.5 23.5t-32.5 67.5h60q0 -34 52 -34q20 0 33.5 8.5t13.5 24.5q0 14 -12 23t-32 9h-32l-25 31l29 58q-129 13 -198.5 108.5t-69.5 247.5
q0 165 81 262.5t228 97.5q124 0 196.5 -65t83.5 -178h-90q-9 75 -56.5 118t-133.5 43q-59 0 -102.5 -23t-68.5 -63.5t-36.5 -88t-11.5 -103.5t11.5 -103.5t36.5 -87.5t68.5 -63t102.5 -23z" />
    <glyph glyph-name="Egrave" unicode="&#xc8;" horiz-adv-x="610" 
d="M315 772l-116 136v10h115l76 -136v-10h-75zM100 0v700h450v-80h-363v-219h332v-80h-332v-242h363v-79h-450z" />
    <glyph glyph-name="Eacute" unicode="&#xc9;" horiz-adv-x="610" 
d="M278 772v10l76 136h115v-10l-116 -136h-75zM100 0v700h450v-80h-363v-219h332v-80h-332v-242h363v-79h-450z" />
    <glyph glyph-name="Ecircumflex" unicode="&#xca;" horiz-adv-x="610" 
d="M177 774v10l102 132h111l102 -132v-10h-84l-72 80h-4l-72 -80h-83zM100 0v700h450v-80h-363v-219h332v-80h-332v-242h363v-79h-450z" />
    <glyph glyph-name="Edieresis" unicode="&#xcb;" horiz-adv-x="610" 
d="M196 806v103h103v-103h-103zM370 806v103h103v-103h-103zM100 0v700h450v-80h-363v-219h332v-80h-332v-242h363v-79h-450z" />
    <glyph glyph-name="Igrave" unicode="&#xcc;" horiz-adv-x="288" 
d="M128 772l-116 136v10h115l76 -136v-10h-75zM100 0v700h88v-700h-88z" />
    <glyph glyph-name="Iacute" unicode="&#xcd;" horiz-adv-x="288" 
d="M91 772v10l76 136h115v-10l-116 -136h-75zM100 0v700h88v-700h-88z" />
    <glyph glyph-name="Icircumflex" unicode="&#xce;" horiz-adv-x="288" 
d="M-10 774v10l102 132h111l102 -132v-10h-84l-72 80h-4l-72 -80h-83zM100 0v700h88v-700h-88z" />
    <glyph glyph-name="Idieresis" unicode="&#xcf;" horiz-adv-x="288" 
d="M9 806v103h103v-103h-103zM183 806v103h103v-103h-103zM100 0v700h88v-700h-88z" />
    <glyph glyph-name="Eth" unicode="&#xd0;" horiz-adv-x="755" 
d="M383 700q147 0 229.5 -95t82.5 -255q0 -154 -80.5 -252t-231.5 -98h-232v321h-71v81h71v298h232zM374 79q114 0 172.5 76.5t58.5 194.5q0 117 -58.5 193.5t-172.5 76.5h-136v-218h197v-81h-197v-242h136z" />
    <glyph glyph-name="Ntilde" unicode="&#xd1;" horiz-adv-x="743" 
d="M430 788q-31 0 -66 22l-14 9q-23 14 -41 14q-16 0 -26.5 -11.5t-10.5 -31.5h-60v15q0 47 27.5 72.5t70.5 25.5q32 0 67 -22l14 -9q23 -14 40 -14q16 0 26.5 12t10.5 31h59v-15q0 -48 -27 -73t-70 -25zM100 0v700h95l358 -557h4v557h86v-700h-96l-358 554h-4v-554h-85z
" />
    <glyph glyph-name="Ograve" unicode="&#xd2;" horiz-adv-x="740" 
d="M359 772l-116 136v10h115l76 -136v-10h-75zM370 -9q-154 0 -232 99.5t-78 259.5t77.5 259.5t232.5 99.5q154 0 232 -99.5t78 -259.5q0 -159 -78 -259t-232 -100zM370 73q115 0 167.5 79t52.5 198t-52.5 198t-167.5 79q-60 0 -104.5 -23t-68.5 -63t-35.5 -87.5
t-11.5 -103.5q0 -119 52.5 -198t167.5 -79z" />
    <glyph glyph-name="Oacute" unicode="&#xd3;" horiz-adv-x="740" 
d="M322 772v10l76 136h115v-10l-116 -136h-75zM370 -9q-154 0 -232 99.5t-78 259.5t77.5 259.5t232.5 99.5q154 0 232 -99.5t78 -259.5q0 -159 -78 -259t-232 -100zM370 73q115 0 167.5 79t52.5 198t-52.5 198t-167.5 79q-60 0 -104.5 -23t-68.5 -63t-35.5 -87.5
t-11.5 -103.5q0 -119 52.5 -198t167.5 -79z" />
    <glyph glyph-name="Ocircumflex" unicode="&#xd4;" horiz-adv-x="740" 
d="M221 774v10l102 132h111l102 -132v-10h-84l-72 80h-4l-72 -80h-83zM370 -9q-154 0 -232 99.5t-78 259.5t77.5 259.5t232.5 99.5q154 0 232 -99.5t78 -259.5q0 -159 -78 -259t-232 -100zM370 73q115 0 167.5 79t52.5 198t-52.5 198t-167.5 79q-60 0 -104.5 -23t-68.5 -63
t-35.5 -87.5t-11.5 -103.5q0 -119 52.5 -198t167.5 -79z" />
    <glyph glyph-name="Otilde" unicode="&#xd5;" horiz-adv-x="740" 
d="M422 788q-31 0 -66 22l-14 9q-23 14 -41 14q-16 0 -26.5 -11.5t-10.5 -31.5h-60v15q0 47 27.5 72.5t70.5 25.5q32 0 67 -22l14 -9q23 -14 40 -14q16 0 26.5 12t10.5 31h59v-15q0 -48 -27 -73t-70 -25zM370 -9q-154 0 -232 99.5t-78 259.5t77.5 259.5t232.5 99.5
q154 0 232 -99.5t78 -259.5q0 -159 -78 -259t-232 -100zM370 73q115 0 167.5 79t52.5 198t-52.5 198t-167.5 79q-60 0 -104.5 -23t-68.5 -63t-35.5 -87.5t-11.5 -103.5q0 -119 52.5 -198t167.5 -79z" />
    <glyph glyph-name="Odieresis" unicode="&#xd6;" horiz-adv-x="740" 
d="M240 806v103h103v-103h-103zM414 806v103h103v-103h-103zM370 -9q-154 0 -232 99.5t-78 259.5t77.5 259.5t232.5 99.5q154 0 232 -99.5t78 -259.5q0 -159 -78 -259t-232 -100zM370 73q115 0 167.5 79t52.5 198t-52.5 198t-167.5 79q-60 0 -104.5 -23t-68.5 -63
t-35.5 -87.5t-11.5 -103.5q0 -119 52.5 -198t167.5 -79z" />
    <glyph glyph-name="multiply" unicode="&#xd7;" horiz-adv-x="411" 
d="M62 117l-54 54l149 145l-149 145l54 54l150 -146l150 146l54 -54l-149 -145l149 -145l-54 -54l-150 146z" />
    <glyph glyph-name="Oslash" unicode="&#xd8;" horiz-adv-x="740" 
d="M692 738v-10l-89 -120q77 -96 77 -258q0 -159 -78 -259t-232 -100q-109 0 -184 54l-61 -83h-77v10l89 120q-77 94 -77 258q0 160 77.5 259.5t232.5 99.5q110 0 183 -53l60 82h79zM150 350q0 -112 42 -183l309 419q-52 41 -131 41q-60 0 -104.5 -23t-68.5 -63t-35.5 -87.5
t-11.5 -103.5zM590 350q0 112 -42 183l-310 -418q53 -42 132 -42q115 0 167.5 79t52.5 198z" />
    <glyph glyph-name="Ugrave" unicode="&#xd9;" horiz-adv-x="714" 
d="M336 772l-116 136v10h115l76 -136v-10h-75zM356 -9q-124 0 -195 68t-71 188v453h87v-451q0 -83 45.5 -130.5t133.5 -47.5q89 0 134.5 47.5t45.5 130.5v451h88v-453q0 -120 -71 -188t-197 -68z" />
    <glyph glyph-name="Uacute" unicode="&#xda;" horiz-adv-x="714" 
d="M299 772v10l76 136h115v-10l-116 -136h-75zM356 -9q-124 0 -195 68t-71 188v453h87v-451q0 -83 45.5 -130.5t133.5 -47.5q89 0 134.5 47.5t45.5 130.5v451h88v-453q0 -120 -71 -188t-197 -68z" />
    <glyph glyph-name="Ucircumflex" unicode="&#xdb;" horiz-adv-x="714" 
d="M198 774v10l102 132h111l102 -132v-10h-84l-72 80h-4l-72 -80h-83zM356 -9q-124 0 -195 68t-71 188v453h87v-451q0 -83 45.5 -130.5t133.5 -47.5q89 0 134.5 47.5t45.5 130.5v451h88v-453q0 -120 -71 -188t-197 -68z" />
    <glyph glyph-name="Udieresis" unicode="&#xdc;" horiz-adv-x="714" 
d="M217 806v103h103v-103h-103zM391 806v103h103v-103h-103zM356 -9q-124 0 -195 68t-71 188v453h87v-451q0 -83 45.5 -130.5t133.5 -47.5q89 0 134.5 47.5t45.5 130.5v451h88v-453q0 -120 -71 -188t-197 -68z" />
    <glyph glyph-name="Yacute" unicode="&#xdd;" horiz-adv-x="649" 
d="M275 772v10l76 136h115v-10l-116 -136h-75zM281 0v292l-251 398v10h98l196 -324h4l195 324h96v-10l-250 -398v-292h-88z" />
    <glyph glyph-name="Thorn" unicode="&#xde;" horiz-adv-x="600" 
d="M100 0v700h88v-100h170q106 0 168.5 -61t62.5 -160q0 -101 -63 -163t-168 -62h-170v-154h-88zM188 234h159q73 0 112.5 37.5t39.5 107.5q0 67 -40.5 104.5t-111.5 37.5h-159v-287z" />
    <glyph glyph-name="germandbls" unicode="&#xdf;" horiz-adv-x="635" 
d="M410 -9q-84 0 -135 47.5t-53 130.5h84q0 -50 28 -76.5t76 -26.5q41 0 65.5 18.5t24.5 54.5q0 50 -68 73l-64 22q-67 23 -98.5 52t-31.5 82q0 39 18.5 66t45.5 41t54 26.5t45.5 31.5t18.5 47q0 42 -31 68.5t-90 26.5q-125 0 -125 -135v-540h-84v550q0 85 55 142.5
t154 57.5q98 0 152 -51t54 -119q0 -45 -19 -75.5t-46.5 -45t-55 -25t-46.5 -25.5t-19 -37q0 -14 5.5 -24t20.5 -19t25.5 -13t37.5 -14l43 -15q69 -24 101.5 -59t32.5 -89q0 -67 -52 -107.5t-123 -40.5z" />
    <glyph glyph-name="agrave" unicode="&#xe0;" horiz-adv-x="549" 
d="M255 583l-116 136v10h115l76 -136v-10h-75zM228 -9q-81 0 -129.5 45t-48.5 113q0 70 52.5 115t158.5 45h126v33q0 46 -29.5 76t-88.5 30q-54 0 -83 -26t-30 -65h-81q0 73 54.5 118t139.5 45q95 0 147.5 -50t52.5 -126v-344h-71l-6 72h-4q-48 -81 -160 -81zM243 61
q64 0 104 40t40 97v44h-126q-126 0 -126 -92q0 -40 27.5 -64.5t80.5 -24.5z" />
    <glyph glyph-name="aacute" unicode="&#xe1;" horiz-adv-x="549" 
d="M218 583v10l76 136h115v-10l-116 -136h-75zM228 -9q-81 0 -129.5 45t-48.5 113q0 70 52.5 115t158.5 45h126v33q0 46 -29.5 76t-88.5 30q-54 0 -83 -26t-30 -65h-81q0 73 54.5 118t139.5 45q95 0 147.5 -50t52.5 -126v-344h-71l-6 72h-4q-48 -81 -160 -81zM243 61
q64 0 104 40t40 97v44h-126q-126 0 -126 -92q0 -40 27.5 -64.5t80.5 -24.5z" />
    <glyph glyph-name="acircumflex" unicode="&#xe2;" horiz-adv-x="549" 
d="M117 585v10l102 132h111l102 -132v-10h-84l-72 80h-4l-72 -80h-83zM228 -9q-81 0 -129.5 45t-48.5 113q0 70 52.5 115t158.5 45h126v33q0 46 -29.5 76t-88.5 30q-54 0 -83 -26t-30 -65h-81q0 73 54.5 118t139.5 45q95 0 147.5 -50t52.5 -126v-344h-71l-6 72h-4
q-48 -81 -160 -81zM243 61q64 0 104 40t40 97v44h-126q-126 0 -126 -92q0 -40 27.5 -64.5t80.5 -24.5z" />
    <glyph glyph-name="atilde" unicode="&#xe3;" horiz-adv-x="549" 
d="M318 599q-31 0 -66 22l-14 9q-23 14 -41 14q-16 0 -26.5 -11.5t-10.5 -31.5h-60v15q0 47 27.5 72.5t70.5 25.5q32 0 67 -22l14 -9q23 -14 40 -14q16 0 26.5 12t10.5 31h59v-15q0 -48 -27 -73t-70 -25zM228 -9q-81 0 -129.5 45t-48.5 113q0 70 52.5 115t158.5 45h126v33
q0 46 -29.5 76t-88.5 30q-54 0 -83 -26t-30 -65h-81q0 73 54.5 118t139.5 45q95 0 147.5 -50t52.5 -126v-344h-71l-6 72h-4q-48 -81 -160 -81zM243 61q64 0 104 40t40 97v44h-126q-126 0 -126 -92q0 -40 27.5 -64.5t80.5 -24.5z" />
    <glyph glyph-name="adieresis" unicode="&#xe4;" horiz-adv-x="549" 
d="M136 617v103h103v-103h-103zM310 617v103h103v-103h-103zM228 -9q-81 0 -129.5 45t-48.5 113q0 70 52.5 115t158.5 45h126v33q0 46 -29.5 76t-88.5 30q-54 0 -83 -26t-30 -65h-81q0 73 54.5 118t139.5 45q95 0 147.5 -50t52.5 -126v-344h-71l-6 72h-4q-48 -81 -160 -81z
M243 61q64 0 104 40t40 97v44h-126q-126 0 -126 -92q0 -40 27.5 -64.5t80.5 -24.5z" />
    <glyph glyph-name="aring" unicode="&#xe5;" horiz-adv-x="549" 
d="M271 572q-48 0 -79.5 30.5t-31.5 78.5t31.5 79t79.5 31q50 0 81 -30.5t31 -79.5q0 -48 -31.5 -78.5t-80.5 -30.5zM270 633q22 0 35.5 13.5t13.5 34.5t-13.5 35t-35.5 14q-21 0 -34 -14t-13 -35t13 -34.5t34 -13.5zM228 -9q-81 0 -129.5 45t-48.5 113q0 70 52.5 115
t158.5 45h126v33q0 46 -29.5 76t-88.5 30q-54 0 -83 -26t-30 -65h-81q0 73 54.5 118t139.5 45q95 0 147.5 -50t52.5 -126v-344h-71l-6 72h-4q-48 -81 -160 -81zM243 61q64 0 104 40t40 97v44h-126q-126 0 -126 -92q0 -40 27.5 -64.5t80.5 -24.5z" />
    <glyph glyph-name="ae" unicode="&#xe6;" horiz-adv-x="882" 
d="M228 -9q-81 0 -129.5 45t-48.5 113q0 70 52.5 115t158.5 45h126v33q0 46 -29.5 76t-88.5 30q-54 0 -83 -26t-30 -65h-81q0 73 54.5 118t139.5 45q115 0 169 -78h4q58 78 169 78q105 0 163 -69.5t58 -179.5v-41h-364q0 -75 37 -119.5t107 -44.5q51 0 85 21t44 61h84
q-10 -70 -70 -113.5t-143 -43.5q-129 0 -186 104h-4q-21 -42 -70 -73t-124 -31zM469 300h276q0 64 -34.5 104.5t-99.5 40.5q-68 0 -104 -40.5t-38 -104.5zM243 61q64 0 104 40t40 97v44h-126q-126 0 -126 -92q0 -40 27.5 -64.5t80.5 -24.5z" />
    <glyph glyph-name="ccedilla" unicode="&#xe7;" horiz-adv-x="543" 
d="M493 172q-7 -79 -54.5 -126.5t-133.5 -53.5l-23 -38q43 0 70 -22.5t27 -59.5q0 -39 -29 -64.5t-88 -25.5q-48 0 -80.5 23.5t-32.5 67.5h60q0 -34 52 -34q20 0 33.5 8.5t13.5 24.5q0 14 -12 23t-32 9h-32l-25 31l30 59q-91 14 -139 82.5t-48 178.5q0 122 59.5 193.5
t171.5 71.5q98 0 151 -51t59 -133h-84q-4 51 -37.5 80t-88.5 29q-75 0 -110.5 -52.5t-35.5 -137.5q0 -86 35.5 -138t110.5 -52q57 0 90 28t38 79h84z" />
    <glyph glyph-name="egrave" unicode="&#xe8;" horiz-adv-x="552" 
d="M265 583l-116 136v10h115l76 -136v-10h-75zM282 -9q-110 0 -171 73.5t-61 190.5t59 191t172 74q105 0 163 -69.5t58 -179.5v-41h-364q0 -75 37 -119.5t107 -44.5q51 0 85 21t44 61h84q-10 -70 -70 -113.5t-143 -43.5zM139 300h276q0 64 -34.5 104.5t-99.5 40.5
q-68 0 -104 -40.5t-38 -104.5z" />
    <glyph glyph-name="eacute" unicode="&#xe9;" horiz-adv-x="552" 
d="M228 583v10l76 136h115v-10l-116 -136h-75zM282 -9q-110 0 -171 73.5t-61 190.5t59 191t172 74q105 0 163 -69.5t58 -179.5v-41h-364q0 -75 37 -119.5t107 -44.5q51 0 85 21t44 61h84q-10 -70 -70 -113.5t-143 -43.5zM139 300h276q0 64 -34.5 104.5t-99.5 40.5
q-68 0 -104 -40.5t-38 -104.5z" />
    <glyph glyph-name="ecircumflex" unicode="&#xea;" horiz-adv-x="552" 
d="M127 585v10l102 132h111l102 -132v-10h-84l-72 80h-4l-72 -80h-83zM282 -9q-110 0 -171 73.5t-61 190.5t59 191t172 74q105 0 163 -69.5t58 -179.5v-41h-364q0 -75 37 -119.5t107 -44.5q51 0 85 21t44 61h84q-10 -70 -70 -113.5t-143 -43.5zM139 300h276
q0 64 -34.5 104.5t-99.5 40.5q-68 0 -104 -40.5t-38 -104.5z" />
    <glyph glyph-name="edieresis" unicode="&#xeb;" horiz-adv-x="552" 
d="M146 617v103h103v-103h-103zM320 617v103h103v-103h-103zM282 -9q-110 0 -171 73.5t-61 190.5t59 191t172 74q105 0 163 -69.5t58 -179.5v-41h-364q0 -75 37 -119.5t107 -44.5q51 0 85 21t44 61h84q-10 -70 -70 -113.5t-143 -43.5zM139 300h276q0 64 -34.5 104.5
t-99.5 40.5q-68 0 -104 -40.5t-38 -104.5z" />
    <glyph glyph-name="igrave" unicode="&#xec;" horiz-adv-x="254" 
d="M116 583l-116 136v10h115l76 -136v-10h-75zM90 0v511h84v-511h-84z" />
    <glyph glyph-name="iacute" unicode="&#xed;" horiz-adv-x="254" 
d="M79 583v10l76 136h115v-10l-116 -136h-75zM90 0v511h84v-511h-84z" />
    <glyph glyph-name="icircumflex" unicode="&#xee;" horiz-adv-x="254" 
d="M-22 585v10l102 132h111l102 -132v-10h-84l-72 80h-4l-72 -80h-83zM90 0v511h84v-511h-84z" />
    <glyph glyph-name="idieresis" unicode="&#xef;" horiz-adv-x="254" 
d="M-3 617v103h103v-103h-103zM171 617v103h103v-103h-103zM90 0v511h84v-511h-84z" />
    <glyph glyph-name="eth" unicode="&#xf0;" horiz-adv-x="562" 
d="M512 256v-1q0 -117 -58.5 -190.5t-172.5 -73.5q-115 0 -173 73.5t-58 190.5t59 191t172 74q24 0 51 -5q-34 43 -78 84l-104 -61l-35 54l87 52q-67 52 -129 86v10h107q49 -28 87 -58l95 56l35 -55l-77 -45q156 -141 185 -310q7 -32 7 -72zM281 66q75 0 110.5 51t35.5 138
t-35.5 138.5t-110.5 51.5q-74 0 -110 -51.5t-36 -138.5t36 -138t110 -51z" />
    <glyph glyph-name="ntilde" unicode="&#xf1;" horiz-adv-x="591" 
d="M368 599q-31 0 -66 22l-14 9q-23 14 -41 14q-16 0 -26.5 -11.5t-10.5 -31.5h-60v15q0 47 27.5 72.5t70.5 25.5q32 0 67 -22l14 -9q23 -14 40 -14q16 0 26.5 12t10.5 31h59v-15q0 -48 -27 -73t-70 -25zM90 0v511h73l7 -80h4q46 89 158 89q84 0 131.5 -50t47.5 -138v-332
h-84v319q0 126 -118 126q-64 0 -99.5 -43t-35.5 -120v-282h-84z" />
    <glyph glyph-name="ograve" unicode="&#xf2;" horiz-adv-x="562" 
d="M265 583l-116 136v10h115l76 -136v-10h-75zM281 -9q-115 0 -173 73.5t-58 190.5t59 191t172 74t172 -74t59 -191t-58.5 -190.5t-172.5 -73.5zM281 66q75 0 110.5 51t35.5 138t-35.5 138.5t-110.5 51.5q-74 0 -110 -51.5t-36 -138.5t36 -138t110 -51z" />
    <glyph glyph-name="oacute" unicode="&#xf3;" horiz-adv-x="562" 
d="M228 583v10l76 136h115v-10l-116 -136h-75zM281 -9q-115 0 -173 73.5t-58 190.5t59 191t172 74t172 -74t59 -191t-58.5 -190.5t-172.5 -73.5zM281 66q75 0 110.5 51t35.5 138t-35.5 138.5t-110.5 51.5q-74 0 -110 -51.5t-36 -138.5t36 -138t110 -51z" />
    <glyph glyph-name="ocircumflex" unicode="&#xf4;" horiz-adv-x="562" 
d="M127 585v10l102 132h111l102 -132v-10h-84l-72 80h-4l-72 -80h-83zM281 -9q-115 0 -173 73.5t-58 190.5t59 191t172 74t172 -74t59 -191t-58.5 -190.5t-172.5 -73.5zM281 66q75 0 110.5 51t35.5 138t-35.5 138.5t-110.5 51.5q-74 0 -110 -51.5t-36 -138.5t36 -138
t110 -51z" />
    <glyph glyph-name="otilde" unicode="&#xf5;" horiz-adv-x="562" 
d="M328 599q-31 0 -66 22l-14 9q-23 14 -41 14q-16 0 -26.5 -11.5t-10.5 -31.5h-60v15q0 47 27.5 72.5t70.5 25.5q32 0 67 -22l14 -9q23 -14 40 -14q16 0 26.5 12t10.5 31h59v-15q0 -48 -27 -73t-70 -25zM281 -9q-115 0 -173 73.5t-58 190.5t59 191t172 74t172 -74t59 -191
t-58.5 -190.5t-172.5 -73.5zM281 66q75 0 110.5 51t35.5 138t-35.5 138.5t-110.5 51.5q-74 0 -110 -51.5t-36 -138.5t36 -138t110 -51z" />
    <glyph glyph-name="odieresis" unicode="&#xf6;" horiz-adv-x="562" 
d="M146 617v103h103v-103h-103zM320 617v103h103v-103h-103zM281 -9q-115 0 -173 73.5t-58 190.5t59 191t172 74t172 -74t59 -191t-58.5 -190.5t-172.5 -73.5zM281 66q75 0 110.5 51t35.5 138t-35.5 138.5t-110.5 51.5q-74 0 -110 -51.5t-36 -138.5t36 -138t110 -51z" />
    <glyph glyph-name="divide" unicode="&#xf7;" horiz-adv-x="476" 
d="M238 418q-29 0 -44 16t-15 44q0 27 15 43t44 16q28 0 43.5 -16t15.5 -43t-15.5 -43.5t-43.5 -16.5zM5 277v72h466v-72h-466zM238 89q-29 0 -44 16t-15 44q0 27 15 43t44 16q28 0 43.5 -16t15.5 -43t-15.5 -43.5t-43.5 -16.5z" />
    <glyph glyph-name="oslash" unicode="&#xf8;" horiz-adv-x="562" 
d="M512 549v-10l-61 -91q61 -71 61 -193q0 -117 -58.5 -190.5t-172.5 -73.5q-70 0 -119 29l-39 -58h-73v10l60 90q-60 70 -60 193q0 117 59 191t172 74q68 0 118 -28l38 57h75zM135 255q0 -73 25 -120l195 292q-30 18 -74 18q-74 0 -110 -51.5t-36 -138.5zM427 255
q0 74 -25 121l-196 -291q32 -19 75 -19q75 0 110.5 51t35.5 138z" />
    <glyph glyph-name="ugrave" unicode="&#xf9;" horiz-adv-x="581" 
d="M276 583l-116 136v10h115l76 -136v-10h-75zM259 -8q-84 0 -131.5 50t-47.5 138v331h84v-318q0 -126 118 -126q64 0 99.5 43t35.5 120v281h84v-511h-73l-7 81h-4q-46 -89 -158 -89z" />
    <glyph glyph-name="uacute" unicode="&#xfa;" horiz-adv-x="581" 
d="M239 583v10l76 136h115v-10l-116 -136h-75zM259 -8q-84 0 -131.5 50t-47.5 138v331h84v-318q0 -126 118 -126q64 0 99.5 43t35.5 120v281h84v-511h-73l-7 81h-4q-46 -89 -158 -89z" />
    <glyph glyph-name="ucircumflex" unicode="&#xfb;" horiz-adv-x="581" 
d="M138 585v10l102 132h111l102 -132v-10h-84l-72 80h-4l-72 -80h-83zM259 -8q-84 0 -131.5 50t-47.5 138v331h84v-318q0 -126 118 -126q64 0 99.5 43t35.5 120v281h84v-511h-73l-7 81h-4q-46 -89 -158 -89z" />
    <glyph glyph-name="udieresis" unicode="&#xfc;" horiz-adv-x="581" 
d="M157 617v103h103v-103h-103zM331 617v103h103v-103h-103zM259 -8q-84 0 -131.5 50t-47.5 138v331h84v-318q0 -126 118 -126q64 0 99.5 43t35.5 120v281h84v-511h-73l-7 81h-4q-46 -89 -158 -89z" />
    <glyph glyph-name="yacute" unicode="&#xfd;" horiz-adv-x="527" 
d="M216 583v10l76 136h115v-10l-116 -136h-75zM20 511h90l155 -401h4l150 401h88v-10l-283 -730h-85v10l87 223l-1 3l-205 494v10z" />
    <glyph glyph-name="thorn" unicode="&#xfe;" horiz-adv-x="600" 
d="M332 520q101 0 158.5 -70.5t58.5 -194.5q-1 -118 -57 -191t-160 -73q-106 0 -154 80h-4v-300h-84v969h84v-300h4q48 80 154 80zM318 66q75 0 110.5 53t35.5 136q0 84 -35.5 137t-110.5 53q-72 0 -109 -54t-37 -136t37 -135.5t109 -53.5z" />
    <glyph glyph-name="ydieresis" unicode="&#xff;" horiz-adv-x="527" 
d="M134 617v103h103v-103h-103zM308 617v103h103v-103h-103zM20 511h90l155 -401h4l150 401h88v-10l-283 -730h-85v10l87 223l-1 3l-205 494v10z" />
    <glyph glyph-name="Amacron" unicode="&#x100;" horiz-adv-x="682" 
d="M479 887v-81h-273v81h273zM394 700l258 -690v-10h-93l-66 183h-306l-66 -183h-91v10l257 690h107zM215 261h250l-123 342h-4z" />
    <glyph glyph-name="amacron" unicode="&#x101;" horiz-adv-x="549" 
d="M137 617v81h273v-81h-273zM228 -9q-81 0 -129.5 45t-48.5 113q0 70 52.5 115t158.5 45h126v33q0 46 -29.5 76t-88.5 30q-54 0 -83 -26t-30 -65h-81q0 73 54.5 118t139.5 45q95 0 147.5 -50t52.5 -126v-344h-71l-6 72h-4q-48 -81 -160 -81zM243 61q64 0 104 40t40 97v44
h-126q-126 0 -126 -92q0 -40 27.5 -64.5t80.5 -24.5z" />
    <glyph glyph-name="Abreve" unicode="&#x102;" horiz-adv-x="682" 
d="M340 774q-69 0 -107.5 39.5t-38.5 102.5h73q4 -65 73 -65t73 65h73q0 -64 -37.5 -103t-108.5 -39zM394 700l258 -690v-10h-93l-66 183h-306l-66 -183h-91v10l257 690h107zM215 261h250l-123 342h-4z" />
    <glyph glyph-name="abreve" unicode="&#x103;" horiz-adv-x="549" 
d="M271 585q-69 0 -107.5 39.5t-38.5 102.5h73q4 -65 73 -65t73 65h73q0 -64 -37.5 -103t-108.5 -39zM228 -9q-81 0 -129.5 45t-48.5 113q0 70 52.5 115t158.5 45h126v33q0 46 -29.5 76t-88.5 30q-54 0 -83 -26t-30 -65h-81q0 73 54.5 118t139.5 45q95 0 147.5 -50
t52.5 -126v-344h-71l-6 72h-4q-48 -81 -160 -81zM243 61q64 0 104 40t40 97v44h-126q-126 0 -126 -92q0 -40 27.5 -64.5t80.5 -24.5z" />
    <glyph glyph-name="Aogonek" unicode="&#x104;" horiz-adv-x="682" 
d="M652 0q-85 -40 -85 -97q0 -24 15.5 -35.5t37.5 -11.5h32v-72h-50q-48 0 -81.5 27.5t-33.5 73.5q0 72 72 115l-66 183h-306l-66 -183h-91v10l257 690h107l258 -690v-10zM215 261h250l-123 342h-4z" />
    <glyph glyph-name="aogonek" unicode="&#x105;" horiz-adv-x="549" 
d="M469 0q-85 -40 -85 -97q0 -24 15.5 -35.5t37.5 -11.5h32v-72h-50q-48 0 -81.5 27.5t-33.5 73.5q0 82 93 127l-5 60h-4q-48 -81 -160 -81q-81 0 -129.5 45t-48.5 113q0 70 52.5 115t158.5 45h126v33q0 46 -29.5 76t-88.5 30q-54 0 -83 -26t-30 -65h-81q0 73 54.5 118
t139.5 45q95 0 147.5 -50t52.5 -126v-344zM387 198v44h-126q-126 0 -126 -92q0 -40 27.5 -64.5t80.5 -24.5q64 0 104 40t40 97z" />
    <glyph glyph-name="Cacute" unicode="&#x106;" horiz-adv-x="709" 
d="M316 772v10l76 136h115v-10l-116 -136h-75zM369 -9q-148 0 -228.5 97t-80.5 261q0 165 81 262.5t228 97.5q124 0 196.5 -65t83.5 -178h-90q-9 75 -56.5 118t-133.5 43q-59 0 -102.5 -23t-68.5 -63.5t-36.5 -88t-11.5 -103.5t11.5 -103.5t36.5 -87.5t68.5 -63t102.5 -23
q164 0 191 155h89q-15 -111 -86 -173.5t-194 -62.5z" />
    <glyph glyph-name="cacute" unicode="&#x107;" horiz-adv-x="543" 
d="M229 583v10l76 136h115v-10l-116 -136h-75zM282 -9q-113 0 -172.5 70.5t-59.5 193.5q0 122 59.5 193.5t171.5 71.5q98 0 151 -51t59 -133h-84q-4 51 -37.5 80t-88.5 29q-75 0 -110.5 -52.5t-35.5 -137.5q0 -86 35.5 -138t110.5 -52q57 0 90 28t38 79h84
q-8 -84 -61 -132.5t-150 -48.5z" />
    <glyph glyph-name="Ccircumflex" unicode="&#x108;" horiz-adv-x="709" 
d="M215 774v10l102 132h111l102 -132v-10h-84l-72 80h-4l-72 -80h-83zM369 -9q-148 0 -228.5 97t-80.5 261q0 165 81 262.5t228 97.5q124 0 196.5 -65t83.5 -178h-90q-9 75 -56.5 118t-133.5 43q-59 0 -102.5 -23t-68.5 -63.5t-36.5 -88t-11.5 -103.5t11.5 -103.5
t36.5 -87.5t68.5 -63t102.5 -23q164 0 191 155h89q-15 -111 -86 -173.5t-194 -62.5z" />
    <glyph glyph-name="ccircumflex" unicode="&#x109;" horiz-adv-x="543" 
d="M128 585v10l102 132h111l102 -132v-10h-84l-72 80h-4l-72 -80h-83zM282 -9q-113 0 -172.5 70.5t-59.5 193.5q0 122 59.5 193.5t171.5 71.5q98 0 151 -51t59 -133h-84q-4 51 -37.5 80t-88.5 29q-75 0 -110.5 -52.5t-35.5 -137.5q0 -86 35.5 -138t110.5 -52q57 0 90 28
t38 79h84q-8 -84 -61 -132.5t-150 -48.5z" />
    <glyph glyph-name="Cdotaccent" unicode="&#x10a;" horiz-adv-x="709" 
d="M322 806v98h94v-98h-94zM369 -9q-148 0 -228.5 97t-80.5 261q0 165 81 262.5t228 97.5q124 0 196.5 -65t83.5 -178h-90q-9 75 -56.5 118t-133.5 43q-59 0 -102.5 -23t-68.5 -63.5t-36.5 -88t-11.5 -103.5t11.5 -103.5t36.5 -87.5t68.5 -63t102.5 -23q164 0 191 155h89
q-15 -111 -86 -173.5t-194 -62.5z" />
    <glyph glyph-name="cdotaccent" unicode="&#x10b;" horiz-adv-x="543" 
d="M235 617v98h94v-98h-94zM282 -9q-113 0 -172.5 70.5t-59.5 193.5q0 122 59.5 193.5t171.5 71.5q98 0 151 -51t59 -133h-84q-4 51 -37.5 80t-88.5 29q-75 0 -110.5 -52.5t-35.5 -137.5q0 -86 35.5 -138t110.5 -52q57 0 90 28t38 79h84q-8 -84 -61 -132.5t-150 -48.5z" />
    <glyph glyph-name="Ccaron" unicode="&#x10c;" horiz-adv-x="709" 
d="M314 774l-102 132v10h83l72 -80h4l72 80h84v-10l-102 -132h-111zM369 -9q-148 0 -228.5 97t-80.5 261q0 165 81 262.5t228 97.5q124 0 196.5 -65t83.5 -178h-90q-9 75 -56.5 118t-133.5 43q-59 0 -102.5 -23t-68.5 -63.5t-36.5 -88t-11.5 -103.5t11.5 -103.5t36.5 -87.5
t68.5 -63t102.5 -23q164 0 191 155h89q-15 -111 -86 -173.5t-194 -62.5z" />
    <glyph glyph-name="ccaron" unicode="&#x10d;" horiz-adv-x="543" 
d="M227 585l-102 132v10h83l72 -80h4l72 80h84v-10l-102 -132h-111zM282 -9q-113 0 -172.5 70.5t-59.5 193.5q0 122 59.5 193.5t171.5 71.5q98 0 151 -51t59 -133h-84q-4 51 -37.5 80t-88.5 29q-75 0 -110.5 -52.5t-35.5 -137.5q0 -86 35.5 -138t110.5 -52q57 0 90 28t38 79
h84q-8 -84 -61 -132.5t-150 -48.5z" />
    <glyph glyph-name="Dcaron" unicode="&#x10e;" horiz-adv-x="704" 
d="M256 774l-102 132v10h83l72 -80h4l72 80h84v-10l-102 -132h-111zM100 0v700h232q147 0 229.5 -95t82.5 -255q0 -154 -80.5 -252t-231.5 -98h-232zM187 79h136q114 0 172.5 76.5t58.5 194.5q0 117 -58.5 193.5t-172.5 76.5h-136v-541z" />
    <glyph glyph-name="dcaron" unicode="&#x10f;" 
d="M267 -9q-101 0 -158.5 70.5t-58.5 194.5q1 118 57 191t160 73q106 0 154 -80h4v300h84v-740h-73l-11 71h-4q-48 -80 -154 -80zM565 570v170h94v-10l-35 -160h-59zM281 66q72 0 109 54t37 136t-37 135.5t-109 53.5q-75 0 -110.5 -53t-35.5 -136q0 -84 35.5 -137t110.5 -53
z" />
    <glyph glyph-name="Dcroat" unicode="&#x110;" horiz-adv-x="755" 
d="M383 700q147 0 229.5 -95t82.5 -255q0 -154 -80.5 -252t-231.5 -98h-232v321h-71v81h71v298h232zM374 79q114 0 172.5 76.5t58.5 194.5q0 117 -58.5 193.5t-172.5 76.5h-136v-218h197v-81h-197v-242h136z" />
    <glyph glyph-name="dcroat" unicode="&#x111;" 
d="M576 665v-65h-67v-600h-73l-11 71h-4q-48 -80 -154 -80q-101 0 -158.5 70.5t-58.5 194.5q1 118 57 191t160 73q106 0 154 -80h4v160h-113v65h113v75h84v-75h67zM281 66q72 0 109 54t37 136t-37 135.5t-109 53.5q-75 0 -110.5 -53t-35.5 -136q0 -84 35.5 -137t110.5 -53z
" />
    <glyph glyph-name="Emacron" unicode="&#x112;" horiz-adv-x="610" 
d="M197 806v81h273v-81h-273zM100 0v700h450v-80h-363v-219h332v-80h-332v-242h363v-79h-450z" />
    <glyph glyph-name="emacron" unicode="&#x113;" horiz-adv-x="552" 
d="M147 617v81h273v-81h-273zM282 -9q-110 0 -171 73.5t-61 190.5t59 191t172 74q105 0 163 -69.5t58 -179.5v-41h-364q0 -75 37 -119.5t107 -44.5q51 0 85 21t44 61h84q-10 -70 -70 -113.5t-143 -43.5zM139 300h276q0 64 -34.5 104.5t-99.5 40.5q-68 0 -104 -40.5
t-38 -104.5z" />
    <glyph glyph-name="Ebreve" unicode="&#x114;" horiz-adv-x="610" 
d="M331 774q-69 0 -107.5 39.5t-38.5 102.5h73q4 -65 73 -65t73 65h73q0 -64 -37.5 -103t-108.5 -39zM100 0v700h450v-80h-363v-219h332v-80h-332v-242h363v-79h-450z" />
    <glyph glyph-name="ebreve" unicode="&#x115;" horiz-adv-x="552" 
d="M281 585q-69 0 -107.5 39.5t-38.5 102.5h73q4 -65 73 -65t73 65h73q0 -64 -37.5 -103t-108.5 -39zM282 -9q-110 0 -171 73.5t-61 190.5t59 191t172 74q105 0 163 -69.5t58 -179.5v-41h-364q0 -75 37 -119.5t107 -44.5q51 0 85 21t44 61h84q-10 -70 -70 -113.5t-143 -43.5
zM139 300h276q0 64 -34.5 104.5t-99.5 40.5q-68 0 -104 -40.5t-38 -104.5z" />
    <glyph glyph-name="Edotaccent" unicode="&#x116;" horiz-adv-x="610" 
d="M284 806v98h94v-98h-94zM100 0v700h450v-80h-363v-219h332v-80h-332v-242h363v-79h-450z" />
    <glyph glyph-name="edotaccent" unicode="&#x117;" horiz-adv-x="552" 
d="M234 617v98h94v-98h-94zM282 -9q-110 0 -171 73.5t-61 190.5t59 191t172 74q105 0 163 -69.5t58 -179.5v-41h-364q0 -75 37 -119.5t107 -44.5q51 0 85 21t44 61h84q-10 -70 -70 -113.5t-143 -43.5zM139 300h276q0 64 -34.5 104.5t-99.5 40.5q-68 0 -104 -40.5t-38 -104.5
z" />
    <glyph glyph-name="Eogonek" unicode="&#x118;" horiz-adv-x="610" 
d="M550 620h-363v-219h332v-80h-332v-242h363v-79h-2q-85 -40 -85 -97q0 -24 15.5 -35.5t37.5 -11.5h32v-72h-50q-48 0 -81.5 27.5t-33.5 73.5q0 72 71 115h-354v700h450v-80z" />
    <glyph glyph-name="eogonek" unicode="&#x119;" horiz-adv-x="552" 
d="M502 271v-41h-364q0 -75 37 -119.5t107 -44.5q51 0 85 21t44 61h84q-8 -54 -47 -93t-96 -55q-85 -40 -85 -97q0 -24 15.5 -35.5t37.5 -11.5h32v-72h-50q-48 0 -81.5 27.5t-33.5 73.5q0 65 61 108q-94 12 -146 83.5t-52 178.5q0 117 59 191t172 74q105 0 163 -69.5
t58 -179.5zM139 300h276q0 64 -34.5 104.5t-99.5 40.5q-68 0 -104 -40.5t-38 -104.5z" />
    <glyph glyph-name="Ecaron" unicode="&#x11a;" horiz-adv-x="610" 
d="M276 774l-102 132v10h83l72 -80h4l72 80h84v-10l-102 -132h-111zM100 0v700h450v-80h-363v-219h332v-80h-332v-242h363v-79h-450z" />
    <glyph glyph-name="ecaron" unicode="&#x11b;" horiz-adv-x="552" 
d="M226 585l-102 132v10h83l72 -80h4l72 80h84v-10l-102 -132h-111zM282 -9q-110 0 -171 73.5t-61 190.5t59 191t172 74q105 0 163 -69.5t58 -179.5v-41h-364q0 -75 37 -119.5t107 -44.5q51 0 85 21t44 61h84q-10 -70 -70 -113.5t-143 -43.5zM139 300h276q0 64 -34.5 104.5
t-99.5 40.5q-68 0 -104 -40.5t-38 -104.5z" />
    <glyph glyph-name="Gcircumflex" unicode="&#x11c;" horiz-adv-x="721" 
d="M213 774v10l102 132h111l102 -132v-10h-84l-72 80h-4l-72 -80h-83zM366 -9q-148 0 -227 96.5t-79 260.5q0 166 79.5 263.5t226.5 97.5q125 0 199 -63.5t84 -169.5h-90q-7 68 -57 109.5t-136 41.5q-59 0 -102 -23.5t-67.5 -64t-35.5 -88t-11 -103.5q0 -119 51.5 -197.5
t164.5 -78.5q101 0 156.5 61t55.5 156h-192v79h275v-59q0 -147 -78 -232.5t-217 -85.5z" />
    <glyph glyph-name="gcircumflex" unicode="&#x11d;" 
d="M127 585v10l102 132h111l102 -132v-10h-84l-72 80h-4l-72 -80h-83zM283 -238q-96 0 -156 49t-62 124h81q3 -42 37.5 -71.5t99.5 -29.5q70 0 106 38.5t36 99.5v99h-4q-48 -80 -154 -80q-104 0 -160 73t-57 191q1 124 58.5 194.5t158.5 70.5q106 0 154 -80h4l11 71h73v-541
q0 -91 -60 -149.5t-166 -58.5zM281 66q72 0 109 53.5t37 135.5t-37 136t-109 54q-75 0 -110.5 -53t-35.5 -137q0 -83 35.5 -136t110.5 -53z" />
    <glyph glyph-name="Gbreve" unicode="&#x11e;" horiz-adv-x="721" 
d="M367 774q-69 0 -107.5 39.5t-38.5 102.5h73q4 -65 73 -65t73 65h73q0 -64 -37.5 -103t-108.5 -39zM366 -9q-148 0 -227 96.5t-79 260.5q0 166 79.5 263.5t226.5 97.5q125 0 199 -63.5t84 -169.5h-90q-7 68 -57 109.5t-136 41.5q-59 0 -102 -23.5t-67.5 -64t-35.5 -88
t-11 -103.5q0 -119 51.5 -197.5t164.5 -78.5q101 0 156.5 61t55.5 156h-192v79h275v-59q0 -147 -78 -232.5t-217 -85.5z" />
    <glyph glyph-name="gbreve" unicode="&#x11f;" 
d="M281 585q-69 0 -107.5 39.5t-38.5 102.5h73q4 -65 73 -65t73 65h73q0 -64 -37.5 -103t-108.5 -39zM283 -238q-96 0 -156 49t-62 124h81q3 -42 37.5 -71.5t99.5 -29.5q70 0 106 38.5t36 99.5v99h-4q-48 -80 -154 -80q-104 0 -160 73t-57 191q1 124 58.5 194.5t158.5 70.5
q106 0 154 -80h4l11 71h73v-541q0 -91 -60 -149.5t-166 -58.5zM281 66q72 0 109 53.5t37 135.5t-37 136t-109 54q-75 0 -110.5 -53t-35.5 -137q0 -83 35.5 -136t110.5 -53z" />
    <glyph glyph-name="Gdotaccent" unicode="&#x120;" horiz-adv-x="721" 
d="M320 806v98h94v-98h-94zM366 -9q-148 0 -227 96.5t-79 260.5q0 166 79.5 263.5t226.5 97.5q125 0 199 -63.5t84 -169.5h-90q-7 68 -57 109.5t-136 41.5q-59 0 -102 -23.5t-67.5 -64t-35.5 -88t-11 -103.5q0 -119 51.5 -197.5t164.5 -78.5q101 0 156.5 61t55.5 156h-192
v79h275v-59q0 -147 -78 -232.5t-217 -85.5z" />
    <glyph glyph-name="gdotaccent" unicode="&#x121;" 
d="M234 617v98h94v-98h-94zM283 -238q-96 0 -156 49t-62 124h81q3 -42 37.5 -71.5t99.5 -29.5q70 0 106 38.5t36 99.5v99h-4q-48 -80 -154 -80q-104 0 -160 73t-57 191q1 124 58.5 194.5t158.5 70.5q106 0 154 -80h4l11 71h73v-541q0 -91 -60 -149.5t-166 -58.5zM281 66
q72 0 109 53.5t37 135.5t-37 136t-109 54q-75 0 -110.5 -53t-35.5 -137q0 -83 35.5 -136t110.5 -53z" />
    <glyph glyph-name="Gcommaaccent" unicode="&#x122;" horiz-adv-x="721" 
d="M366 -9q-148 0 -227 96.5t-79 260.5q0 166 79.5 263.5t226.5 97.5q125 0 199 -63.5t84 -169.5h-90q-7 68 -57 109.5t-136 41.5q-59 0 -102 -23.5t-67.5 -64t-35.5 -88t-11 -103.5q0 -119 51.5 -197.5t164.5 -78.5q101 0 156.5 61t55.5 156h-192v79h275v-59
q0 -147 -78 -232.5t-217 -85.5zM312 -211v10l18 150h94v-10l-49 -150h-63z" />
    <glyph glyph-name="gcommaaccent" unicode="&#x123;" 
d="M355 735v-10l-18 -150h-94v10l49 150h63zM283 -238q-96 0 -156 49t-62 124h81q3 -42 37.5 -71.5t99.5 -29.5q70 0 106 38.5t36 99.5v99h-4q-48 -80 -154 -80q-104 0 -160 73t-57 191q1 124 58.5 194.5t158.5 70.5q106 0 154 -80h4l11 71h73v-541q0 -91 -60 -149.5
t-166 -58.5zM281 66q72 0 109 53.5t37 135.5t-37 136t-109 54q-75 0 -110.5 -53t-35.5 -137q0 -83 35.5 -136t110.5 -53z" />
    <glyph glyph-name="Hcircumflex" unicode="&#x124;" horiz-adv-x="735" 
d="M362 854l-72 -80h-83v10l102 132h111l102 -132v-10h-84l-72 80h-4zM548 700h87v-700h-87v321h-361v-321h-87v700h87v-298h361v298z" />
    <glyph glyph-name="hcircumflex" unicode="&#x125;" horiz-adv-x="595" 
d="M-22 785v10l102 132h111l102 -132v-10h-84l-72 80h-4l-72 -80h-83zM90 0v740h84v-309h4q46 89 156 89q85 0 133 -50t48 -138v-332h-84v319q0 126 -120 126q-63 0 -100 -44t-37 -121v-280h-84z" />
    <glyph glyph-name="Hbar" unicode="&#x126;" horiz-adv-x="735" 
d="M694 602v-71h-59v-531h-87v321h-361v-321h-87v531h-61v71h61v98h87v-98h361v98h87v-98h59zM548 402v129h-361v-129h361z" />
    <glyph glyph-name="hbar" unicode="&#x127;" horiz-adv-x="595" 
d="M334 520q85 0 133 -50t48 -138v-332h-84v319q0 126 -120 126q-63 0 -100 -44t-37 -121v-280h-84v600h-66v65h66v75h84v-75h114v-65h-114v-169h4q46 89 156 89z" />
    <glyph glyph-name="Itilde" unicode="&#x128;" horiz-adv-x="288" 
d="M191 788q-31 0 -66 22l-14 9q-23 14 -41 14q-16 0 -26.5 -11.5t-10.5 -31.5h-60v15q0 47 27.5 72.5t70.5 25.5q32 0 67 -22l14 -9q23 -14 40 -14q16 0 26.5 12t10.5 31h59v-15q0 -48 -27 -73t-70 -25zM100 0v700h88v-700h-88z" />
    <glyph glyph-name="itilde" unicode="&#x129;" horiz-adv-x="254" 
d="M179 599q-31 0 -66 22l-14 9q-23 14 -41 14q-16 0 -26.5 -11.5t-10.5 -31.5h-60v15q0 47 27.5 72.5t70.5 25.5q32 0 67 -22l14 -9q23 -14 40 -14q16 0 26.5 12t10.5 31h59v-15q0 -48 -27 -73t-70 -25zM90 0v511h84v-511h-84z" />
    <glyph glyph-name="Imacron" unicode="&#x12a;" horiz-adv-x="288" 
d="M10 806v81h273v-81h-273zM100 0v700h88v-700h-88z" />
    <glyph glyph-name="imacron" unicode="&#x12b;" horiz-adv-x="254" 
d="M-2 617v81h273v-81h-273zM90 0v511h84v-511h-84z" />
    <glyph glyph-name="Ibreve" unicode="&#x12c;" horiz-adv-x="288" 
d="M144 774q-69 0 -107.5 39.5t-38.5 102.5h73q4 -65 73 -65t73 65h73q0 -64 -37.5 -103t-108.5 -39zM100 0v700h88v-700h-88z" />
    <glyph glyph-name="ibreve" unicode="&#x12d;" horiz-adv-x="254" 
d="M132 585q-69 0 -107.5 39.5t-38.5 102.5h73q4 -65 73 -65t73 65h73q0 -64 -37.5 -103t-108.5 -39zM90 0v511h84v-511h-84z" />
    <glyph glyph-name="Iogonek" unicode="&#x12e;" horiz-adv-x="288" 
d="M188 0q-85 -40 -85 -97q0 -24 15.5 -35.5t37.5 -11.5h32v-72h-50q-48 0 -81.5 27.5t-33.5 73.5q0 75 77 118v697h88v-700z" />
    <glyph glyph-name="iogonek" unicode="&#x12f;" horiz-adv-x="254" 
d="M85 715h94v-98h-94v98zM90 6v505h84v-511q-85 -40 -85 -97q0 -24 15.5 -35.5t37.5 -11.5h32v-72h-50q-48 0 -81.5 27.5t-33.5 73.5q0 76 81 121z" />
    <glyph glyph-name="Idotaccent" unicode="&#x130;" horiz-adv-x="288" 
d="M97 806v98h94v-98h-94zM100 0v700h88v-700h-88z" />
    <glyph glyph-name="dotlessi" unicode="&#x131;" horiz-adv-x="254" 
d="M90 0v511h84v-511h-84z" />
    <glyph glyph-name="IJ" unicode="&#x132;" horiz-adv-x="820" 
d="M100 0v700h88v-700h-88zM523 -9q-95 0 -150 57.5t-55 151.5h88q0 -58 30.5 -92t88.5 -34t87.5 34.5t29.5 94.5v497h88v-497q0 -97 -55.5 -154.5t-151.5 -57.5z" />
    <glyph glyph-name="ij" unicode="&#x133;" horiz-adv-x="522" 
d="M85 617v98h94v-98h-94zM353 617v98h94v-98h-94zM90 0v511h84v-511h-84zM254 -238v74h38q66 0 66 73v602h84v-601q0 -74 -36 -111t-112 -37h-40z" />
    <glyph glyph-name="Jcircumflex" unicode="&#x134;" horiz-adv-x="532" 
d="M240 774v10l102 132h111l102 -132v-10h-84l-72 80h-4l-72 -80h-83zM235 -9q-95 0 -150 57.5t-55 151.5h88q0 -58 30.5 -92t88.5 -34t87.5 34.5t29.5 94.5v497h88v-497q0 -97 -55.5 -154.5t-151.5 -57.5z" />
    <glyph glyph-name="jcircumflex" unicode="&#x135;" horiz-adv-x="268" 
d="M-10 585v10l102 132h111l102 -132v-10h-84l-72 80h-4l-72 -80h-83zM0 -238v74h38q66 0 66 73v602h84v-601q0 -74 -36 -111t-112 -37h-40z" />
    <glyph glyph-name="Kcommaaccent" unicode="&#x136;" horiz-adv-x="631" 
d="M297 369l324 -359v-10h-105l-329 364v-364h-87v700h87v-326l320 326h104v-10zM292 -201l18 150h94v-10l-49 -150h-63v10z" />
    <glyph glyph-name="kcommaaccent" unicode="&#x137;" horiz-adv-x="515" 
d="M90 740h84v-740h-84v740zM282 287l213 -277v-10h-97l-224 287l216 224h99v-10zM222 -201l18 150h94v-10l-49 -150h-63v10z" />
    <glyph glyph-name="kgreenlandic" unicode="&#x138;" horiz-adv-x="515" 
d="M90 511h84v-511h-84v511zM282 277l213 -267v-10h-97l-224 277l216 234h99v-10z" />
    <glyph glyph-name="Lacute" unicode="&#x139;" horiz-adv-x="550" 
d="M90 772v10l76 136h115v-10l-116 -136h-75zM100 0v700h87v-620h338v-80h-425z" />
    <glyph glyph-name="lacute" unicode="&#x13a;" horiz-adv-x="254" 
d="M79 783v10l76 136h115v-10l-116 -136h-75zM90 0v740h84v-740h-84z" />
    <glyph glyph-name="Lcommaaccent" unicode="&#x13b;" horiz-adv-x="550" 
d="M100 0v700h87v-620h338v-80h-425zM249 -211v10l18 150h94v-10l-49 -150h-63z" />
    <glyph glyph-name="lcommaaccent" unicode="&#x13c;" horiz-adv-x="254" 
d="M90 0v740h84v-740h-84zM65 -211v10l18 150h94v-10l-49 -150h-63z" />
    <glyph glyph-name="Lcaron" unicode="&#x13d;" horiz-adv-x="550" 
d="M100 0v700h87v-620h338v-80h-425zM320 530v170h94v-10l-35 -160h-59z" />
    <glyph glyph-name="lcaron" unicode="&#x13e;" horiz-adv-x="274" 
d="M90 0v740h84v-740h-84zM230 570v170h94v-10l-35 -160h-59z" />
    <glyph glyph-name="Ldot" unicode="&#x13f;" horiz-adv-x="600" 
d="M100 0v700h87v-620h338v-80h-425zM337 315v110h108v-110h-108z" />
    <glyph glyph-name="ldot" unicode="&#x140;" horiz-adv-x="368" 
d="M90 0v740h84v-740h-84zM235 316v110h108v-110h-108z" />
    <glyph glyph-name="Lslash" unicode="&#x141;" horiz-adv-x="620" 
d="M257 80h338v-80h-425v267l-60 -24h-10v77l70 28v352h87v-318l180 72h10v-79l-190 -74v-221z" />
    <glyph glyph-name="lslash" unicode="&#x142;" horiz-adv-x="357" 
d="M317 454v-79l-98 -50v-325h-84v282l-75 -39h-10v77l85 44v376h84v-332l88 46h10z" />
    <glyph glyph-name="Nacute" unicode="&#x143;" horiz-adv-x="743" 
d="M330 772v10l76 136h115v-10l-116 -136h-75zM100 0v700h95l358 -557h4v557h86v-700h-96l-358 554h-4v-554h-85z" />
    <glyph glyph-name="nacute" unicode="&#x144;" horiz-adv-x="591" 
d="M268 583v10l76 136h115v-10l-116 -136h-75zM90 0v511h73l7 -80h4q46 89 158 89q84 0 131.5 -50t47.5 -138v-332h-84v319q0 126 -118 126q-64 0 -99.5 -43t-35.5 -120v-282h-84z" />
    <glyph glyph-name="Ncommaaccent" unicode="&#x145;" horiz-adv-x="743" 
d="M100 0v700h95l358 -557h4v557h86v-700h-96l-358 554h-4v-554h-85zM307 -211v10l18 150h94v-10l-49 -150h-63z" />
    <glyph glyph-name="ncommaaccent" unicode="&#x146;" horiz-adv-x="591" 
d="M90 0v511h73l7 -80h4q46 89 158 89q84 0 131.5 -50t47.5 -138v-332h-84v319q0 126 -118 126q-64 0 -99.5 -43t-35.5 -120v-282h-84zM240 -211v10l18 150h94v-10l-49 -150h-63z" />
    <glyph glyph-name="Ncaron" unicode="&#x147;" horiz-adv-x="743" 
d="M328 774l-102 132v10h83l72 -80h4l72 80h84v-10l-102 -132h-111zM100 0v700h95l358 -557h4v557h86v-700h-96l-358 554h-4v-554h-85z" />
    <glyph glyph-name="ncaron" unicode="&#x148;" horiz-adv-x="591" 
d="M266 585l-102 132v10h83l72 -80h4l72 80h84v-10l-102 -132h-111zM90 0v511h73l7 -80h4q46 89 158 89q84 0 131.5 -50t47.5 -138v-332h-84v319q0 126 -118 126q-64 0 -99.5 -43t-35.5 -120v-282h-84z" />
    <glyph glyph-name="napostrophe" unicode="&#x149;" horiz-adv-x="591" 
d="M-44 463v10l31 227h99v-10l-62 -227h-68zM90 0v511h73l7 -80h4q46 89 158 89q84 0 131.5 -50t47.5 -138v-332h-84v319q0 126 -118 126q-64 0 -99.5 -43t-35.5 -120v-282h-84z" />
    <glyph glyph-name="Eng" unicode="&#x14a;" horiz-adv-x="743" 
d="M557 700h86v-727q0 -97 -55.5 -154.5t-151.5 -57.5v83q59 0 90 34.5t31 94.5v27h-10l-358 554h-4v-554h-85v700h95l358 -557h4v557z" />
    <glyph glyph-name="eng" unicode="&#x14b;" horiz-adv-x="591" 
d="M332 520q84 0 131.5 -50t47.5 -138v-422q0 -74 -36 -111t-112 -37q-19 0 -40 6v71q19 -3 38 -3q66 0 66 73v410q0 126 -118 126q-64 0 -99.5 -43t-35.5 -120v-282h-84v511h73l7 -80h4q46 89 158 89z" />
    <glyph glyph-name="Omacron" unicode="&#x14c;" horiz-adv-x="740" 
d="M241 806v81h273v-81h-273zM370 -9q-154 0 -232 99.5t-78 259.5t77.5 259.5t232.5 99.5q154 0 232 -99.5t78 -259.5q0 -159 -78 -259t-232 -100zM370 73q115 0 167.5 79t52.5 198t-52.5 198t-167.5 79q-60 0 -104.5 -23t-68.5 -63t-35.5 -87.5t-11.5 -103.5
q0 -119 52.5 -198t167.5 -79z" />
    <glyph glyph-name="omacron" unicode="&#x14d;" horiz-adv-x="562" 
d="M147 617v81h273v-81h-273zM281 -9q-115 0 -173 73.5t-58 190.5t59 191t172 74t172 -74t59 -191t-58.5 -190.5t-172.5 -73.5zM281 66q75 0 110.5 51t35.5 138t-35.5 138.5t-110.5 51.5q-74 0 -110 -51.5t-36 -138.5t36 -138t110 -51z" />
    <glyph glyph-name="Obreve" unicode="&#x14e;" horiz-adv-x="740" 
d="M375 774q-69 0 -107.5 39.5t-38.5 102.5h73q4 -65 73 -65t73 65h73q0 -64 -37.5 -103t-108.5 -39zM370 -9q-154 0 -232 99.5t-78 259.5t77.5 259.5t232.5 99.5q154 0 232 -99.5t78 -259.5q0 -159 -78 -259t-232 -100zM370 73q115 0 167.5 79t52.5 198t-52.5 198
t-167.5 79q-60 0 -104.5 -23t-68.5 -63t-35.5 -87.5t-11.5 -103.5q0 -119 52.5 -198t167.5 -79z" />
    <glyph glyph-name="obreve" unicode="&#x14f;" horiz-adv-x="562" 
d="M281 585q-69 0 -107.5 39.5t-38.5 102.5h73q4 -65 73 -65t73 65h73q0 -64 -37.5 -103t-108.5 -39zM281 -9q-115 0 -173 73.5t-58 190.5t59 191t172 74t172 -74t59 -191t-58.5 -190.5t-172.5 -73.5zM281 66q75 0 110.5 51t35.5 138t-35.5 138.5t-110.5 51.5
q-74 0 -110 -51.5t-36 -138.5t36 -138t110 -51z" />
    <glyph glyph-name="Ohungarumlaut" unicode="&#x150;" horiz-adv-x="740" 
d="M262 772v10l54 136h102v-10l-93 -136h-63zM400 772v10l54 136h102v-10l-93 -136h-63zM370 -9q-154 0 -232 99.5t-78 259.5t77.5 259.5t232.5 99.5q154 0 232 -99.5t78 -259.5q0 -159 -78 -259t-232 -100zM370 73q115 0 167.5 79t52.5 198t-52.5 198t-167.5 79
q-60 0 -104.5 -23t-68.5 -63t-35.5 -87.5t-11.5 -103.5q0 -119 52.5 -198t167.5 -79z" />
    <glyph glyph-name="ohungarumlaut" unicode="&#x151;" horiz-adv-x="562" 
d="M168 583v10l54 136h102v-10l-93 -136h-63zM306 583v10l54 136h102v-10l-93 -136h-63zM281 -9q-115 0 -173 73.5t-58 190.5t59 191t172 74t172 -74t59 -191t-58.5 -190.5t-172.5 -73.5zM281 66q75 0 110.5 51t35.5 138t-35.5 138.5t-110.5 51.5q-74 0 -110 -51.5
t-36 -138.5t36 -138t110 -51z" />
    <glyph glyph-name="OE" unicode="&#x152;" horiz-adv-x="1100" 
d="M1040 620h-363v-219h332v-80h-332v-242h363v-79h-450v80q-78 -89 -220 -89q-154 0 -232 99.5t-78 259.5t77.5 259.5t232.5 99.5q142 0 220 -88v79h450v-80zM370 73q115 0 167.5 79t52.5 198t-52.5 198t-167.5 79q-60 0 -104.5 -23t-68.5 -63t-35.5 -87.5t-11.5 -103.5
q0 -119 52.5 -198t167.5 -79z" />
    <glyph glyph-name="oe" unicode="&#x153;" horiz-adv-x="929" 
d="M879 271v-41h-364q0 -75 37 -119.5t107 -44.5q51 0 85 21t44 61h84q-10 -70 -70 -113.5t-143 -43.5q-127 0 -188 97q-61 -97 -190 -97q-115 0 -173 73.5t-58 190.5t59 191t172 74q127 0 188 -97q61 97 189 97q105 0 163 -69.5t58 -179.5zM281 66q75 0 110.5 51t35.5 138
t-35.5 138.5t-110.5 51.5q-74 0 -110 -51.5t-36 -138.5t36 -138t110 -51zM516 300h276q0 64 -34.5 104.5t-99.5 40.5q-68 0 -104 -40.5t-38 -104.5z" />
    <glyph glyph-name="Racute" unicode="&#x154;" horiz-adv-x="670" 
d="M482 908l-116 -136h-75v10l76 136h115v-10zM448 288l188 -278v-10h-95l-184 277h-170v-277h-87v700h277q104 0 163 -59t59 -151q0 -77 -40.5 -129.5t-110.5 -72.5zM187 620v-263h185q66 0 101 34.5t35 97.5q0 62 -35.5 96.5t-100.5 34.5h-185z" />
    <glyph glyph-name="racute" unicode="&#x155;" horiz-adv-x="390" 
d="M169 583v10l76 136h115v-10l-116 -136h-75zM90 0v511h73l7 -86h4q16 43 52 67.5t83 24.5h46v-81h-40q-141 0 -141 -188v-248h-84z" />
    <glyph glyph-name="Rcommaaccent" unicode="&#x156;" horiz-adv-x="670" 
d="M448 288l188 -278v-10h-95l-184 277h-170v-277h-87v700h277q104 0 163 -59t59 -151q0 -77 -40.5 -129.5t-110.5 -72.5zM187 620v-263h185q66 0 101 34.5t35 97.5q0 62 -35.5 96.5t-100.5 34.5h-185zM291 -201l18 150h94v-10l-49 -150h-63v10z" />
    <glyph glyph-name="rcommaaccent" unicode="&#x157;" horiz-adv-x="390" 
d="M90 0v511h73l7 -86h4q16 43 52 67.5t83 24.5h46v-81h-40q-141 0 -141 -188v-248h-84zM88 -211v10l18 150h94v-10l-49 -150h-63z" />
    <glyph glyph-name="Rcaron" unicode="&#x158;" horiz-adv-x="670" 
d="M400 774h-111l-102 132v10h83l72 -80h4l72 80h84v-10zM448 288l188 -278v-10h-95l-184 277h-170v-277h-87v700h277q104 0 163 -59t59 -151q0 -77 -40.5 -129.5t-110.5 -72.5zM187 620v-263h185q66 0 101 34.5t35 97.5q0 62 -35.5 96.5t-100.5 34.5h-185z" />
    <glyph glyph-name="rcaron" unicode="&#x159;" horiz-adv-x="390" 
d="M167 585l-102 132v10h83l72 -80h4l72 80h84v-10l-102 -132h-111zM90 0v511h73l7 -86h4q16 43 52 67.5t83 24.5h46v-81h-40q-141 0 -141 -188v-248h-84z" />
    <glyph glyph-name="Sacute" unicode="&#x15a;" horiz-adv-x="632" 
d="M264 772v10l76 136h115v-10l-116 -136h-75zM315 -9q-125 0 -193.5 59t-71.5 160h89q4 -66 49.5 -103t126.5 -37q171 0 171 122q0 48 -32 74.5t-93 39.5l-102 22q-93 20 -139.5 65.5t-46.5 123.5q0 89 64 140.5t179 51.5q112 0 180 -57.5t69 -150.5h-89q-3 59 -43.5 93.5
t-118.5 34.5q-150 0 -150 -112q0 -78 119 -104l95 -20q199 -41 199 -201q0 -94 -70 -147.5t-192 -53.5z" />
    <glyph glyph-name="sacute" unicode="&#x15b;" horiz-adv-x="511" 
d="M208 583v10l76 136h115v-10l-116 -136h-75zM259 -9q-92 0 -149.5 47.5t-59.5 130.5h84q0 -50 34 -76.5t91 -26.5q117 0 117 73q0 56 -78 73l-102 19q-63 13 -96.5 50t-33.5 93q0 64 51 105t135 41q87 0 142 -45t55 -120h-82q-2 47 -33.5 70.5t-81.5 23.5
q-48 0 -76.5 -19.5t-28.5 -55.5q0 -58 89 -72l80 -15q75 -17 110 -50.5t35 -97.5q0 -68 -58 -108t-144 -40z" />
    <glyph glyph-name="Scircumflex" unicode="&#x15c;" horiz-adv-x="632" 
d="M163 774v10l102 132h111l102 -132v-10h-84l-72 80h-4l-72 -80h-83zM315 -9q-125 0 -193.5 59t-71.5 160h89q4 -66 49.5 -103t126.5 -37q171 0 171 122q0 48 -32 74.5t-93 39.5l-102 22q-93 20 -139.5 65.5t-46.5 123.5q0 89 64 140.5t179 51.5q112 0 180 -57.5t69 -150.5
h-89q-3 59 -43.5 93.5t-118.5 34.5q-150 0 -150 -112q0 -78 119 -104l95 -20q199 -41 199 -201q0 -94 -70 -147.5t-192 -53.5z" />
    <glyph glyph-name="scircumflex" unicode="&#x15d;" horiz-adv-x="511" 
d="M107 585v10l102 132h111l102 -132v-10h-84l-72 80h-4l-72 -80h-83zM259 -9q-92 0 -149.5 47.5t-59.5 130.5h84q0 -50 34 -76.5t91 -26.5q117 0 117 73q0 56 -78 73l-102 19q-63 13 -96.5 50t-33.5 93q0 64 51 105t135 41q87 0 142 -45t55 -120h-82q-2 47 -33.5 70.5
t-81.5 23.5q-48 0 -76.5 -19.5t-28.5 -55.5q0 -58 89 -72l80 -15q75 -17 110 -50.5t35 -97.5q0 -68 -58 -108t-144 -40z" />
    <glyph glyph-name="Scedilla" unicode="&#x15e;" horiz-adv-x="632" 
d="M577 192q0 -88 -62.5 -141t-171.5 -59l-23 -38q43 0 70 -22.5t27 -59.5q0 -39 -29 -64.5t-88 -25.5q-48 0 -80.5 23.5t-32.5 67.5h60q0 -34 52 -34q20 0 33.5 8.5t13.5 24.5q0 14 -12 23t-32 9h-32l-25 31l29 58q-106 10 -163.5 67t-60.5 150h89q4 -66 49.5 -103
t126.5 -37q171 0 171 122q0 48 -32 74.5t-93 39.5l-102 22q-93 20 -139.5 65.5t-46.5 123.5q0 89 64 140.5t179 51.5q112 0 180 -57.5t69 -150.5h-89q-3 59 -43.5 93.5t-118.5 34.5q-150 0 -150 -112q0 -78 119 -104l95 -20q199 -41 199 -201z" />
    <glyph glyph-name="scedilla" unicode="&#x15f;" horiz-adv-x="511" 
d="M461 139q0 -62 -48.5 -101t-124.5 -46l-23 -38q43 0 70 -22.5t27 -59.5q0 -39 -29 -64.5t-88 -25.5q-48 0 -80.5 23.5t-32.5 67.5h60q0 -34 52 -34q20 0 33.5 8.5t13.5 24.5q0 14 -12 23t-32 9h-32l-25 31l30 58q-76 10 -122 56.5t-48 119.5h84q0 -50 34 -76.5t91 -26.5
q117 0 117 73q0 56 -78 73l-102 19q-63 13 -96.5 50t-33.5 93q0 64 51 105t135 41q87 0 142 -45t55 -120h-82q-2 47 -33.5 70.5t-81.5 23.5q-48 0 -76.5 -19.5t-28.5 -55.5q0 -58 89 -72l80 -15q75 -17 110 -50.5t35 -97.5z" />
    <glyph glyph-name="Scaron" unicode="&#x160;" horiz-adv-x="632" 
d="M262 774l-102 132v10h83l72 -80h4l72 80h84v-10l-102 -132h-111zM315 -9q-125 0 -193.5 59t-71.5 160h89q4 -66 49.5 -103t126.5 -37q171 0 171 122q0 48 -32 74.5t-93 39.5l-102 22q-93 20 -139.5 65.5t-46.5 123.5q0 89 64 140.5t179 51.5q112 0 180 -57.5t69 -150.5
h-89q-3 59 -43.5 93.5t-118.5 34.5q-150 0 -150 -112q0 -78 119 -104l95 -20q199 -41 199 -201q0 -94 -70 -147.5t-192 -53.5z" />
    <glyph glyph-name="scaron" unicode="&#x161;" horiz-adv-x="511" 
d="M206 585l-102 132v10h83l72 -80h4l72 80h84v-10l-102 -132h-111zM259 -9q-92 0 -149.5 47.5t-59.5 130.5h84q0 -50 34 -76.5t91 -26.5q117 0 117 73q0 56 -78 73l-102 19q-63 13 -96.5 50t-33.5 93q0 64 51 105t135 41q87 0 142 -45t55 -120h-82q-2 47 -33.5 70.5
t-81.5 23.5q-48 0 -76.5 -19.5t-28.5 -55.5q0 -58 89 -72l80 -15q75 -17 110 -50.5t35 -97.5q0 -68 -58 -108t-144 -40z" />
    <glyph glyph-name="uni0162" unicode="&#x162;" horiz-adv-x="592" 
d="M252 0v620h-217v80h522v-80h-217v-620h-88zM228 -211v10l18 150h94v-10l-49 -150h-63z" />
    <glyph glyph-name="uni0163" unicode="&#x163;" horiz-adv-x="381" 
d="M260 0q-73 0 -104 35t-31 102v303h-85v71h87v137h82v-137h125v-71h-125v-296q0 -37 16 -53.5t51 -16.5h60v-74h-76zM171 -211v10l18 150h94v-10l-49 -150h-63z" />
    <glyph glyph-name="Tcaron" unicode="&#x164;" horiz-adv-x="592" 
d="M244 774l-102 132v10h83l72 -80h4l72 80h84v-10l-102 -132h-111zM252 0v620h-217v80h522v-80h-217v-620h-88z" />
    <glyph glyph-name="tcaron" unicode="&#x165;" horiz-adv-x="381" 
d="M270 570v170h94v-10l-35 -160h-59zM260 0q-73 0 -104 35t-31 102v303h-85v71h87v137h82v-137h125v-71h-125v-296q0 -37 16 -53.5t51 -16.5h60v-74h-76z" />
    <glyph glyph-name="Tbar" unicode="&#x166;" horiz-adv-x="592" 
d="M557 620h-217v-200h177v-75h-177v-345h-88v345h-177v75h177v200h-217v80h522v-80z" />
    <glyph glyph-name="tbar" unicode="&#x167;" horiz-adv-x="381" 
d="M326 71h10v-72q-32 -8 -76 -8q-73 0 -104 35t-31 102v155h-85v71h85v86h-85v71h87v109l72 28h10v-137h125v-71h-125v-86h117v-71h-117v-148q0 -37 16 -53.5t51 -16.5q28 0 50 6z" />
    <glyph glyph-name="Utilde" unicode="&#x168;" horiz-adv-x="714" 
d="M399 788q-31 0 -66 22l-14 9q-23 14 -41 14q-16 0 -26.5 -11.5t-10.5 -31.5h-60v15q0 47 27.5 72.5t70.5 25.5q32 0 67 -22l14 -9q23 -14 40 -14q16 0 26.5 12t10.5 31h59v-15q0 -48 -27 -73t-70 -25zM356 -9q-124 0 -195 68t-71 188v453h87v-451q0 -83 45.5 -130.5
t133.5 -47.5q89 0 134.5 47.5t45.5 130.5v451h88v-453q0 -120 -71 -188t-197 -68z" />
    <glyph glyph-name="utilde" unicode="&#x169;" horiz-adv-x="581" 
d="M339 599q-31 0 -66 22l-14 9q-23 14 -41 14q-16 0 -26.5 -11.5t-10.5 -31.5h-60v15q0 47 27.5 72.5t70.5 25.5q32 0 67 -22l14 -9q23 -14 40 -14q16 0 26.5 12t10.5 31h59v-15q0 -48 -27 -73t-70 -25zM259 -8q-84 0 -131.5 50t-47.5 138v331h84v-318q0 -126 118 -126
q64 0 99.5 43t35.5 120v281h84v-511h-73l-7 81h-4q-46 -89 -158 -89z" />
    <glyph glyph-name="Umacron" unicode="&#x16a;" horiz-adv-x="714" 
d="M218 806v81h273v-81h-273zM356 -9q-124 0 -195 68t-71 188v453h87v-451q0 -83 45.5 -130.5t133.5 -47.5q89 0 134.5 47.5t45.5 130.5v451h88v-453q0 -120 -71 -188t-197 -68z" />
    <glyph glyph-name="umacron" unicode="&#x16b;" horiz-adv-x="581" 
d="M158 617v81h273v-81h-273zM259 -8q-84 0 -131.5 50t-47.5 138v331h84v-318q0 -126 118 -126q64 0 99.5 43t35.5 120v281h84v-511h-73l-7 81h-4q-46 -89 -158 -89z" />
    <glyph glyph-name="Ubreve" unicode="&#x16c;" horiz-adv-x="714" 
d="M352 774q-69 0 -107.5 39.5t-38.5 102.5h73q4 -65 73 -65t73 65h73q0 -64 -37.5 -103t-108.5 -39zM356 -9q-124 0 -195 68t-71 188v453h87v-451q0 -83 45.5 -130.5t133.5 -47.5q89 0 134.5 47.5t45.5 130.5v451h88v-453q0 -120 -71 -188t-197 -68z" />
    <glyph glyph-name="ubreve" unicode="&#x16d;" horiz-adv-x="581" 
d="M292 585q-69 0 -107.5 39.5t-38.5 102.5h73q4 -65 73 -65t73 65h73q0 -64 -37.5 -103t-108.5 -39zM259 -8q-84 0 -131.5 50t-47.5 138v331h84v-318q0 -126 118 -126q64 0 99.5 43t35.5 120v281h84v-511h-73l-7 81h-4q-46 -89 -158 -89z" />
    <glyph glyph-name="Uring" unicode="&#x16e;" horiz-adv-x="714" 
d="M352 761q-48 0 -79.5 30.5t-31.5 78.5t31.5 79t79.5 31q50 0 81 -30.5t31 -79.5q0 -48 -31.5 -78.5t-80.5 -30.5zM351 822q22 0 35.5 13.5t13.5 34.5t-13.5 35t-35.5 14q-21 0 -34 -14t-13 -35t13 -34.5t34 -13.5zM356 -9q-124 0 -195 68t-71 188v453h87v-451
q0 -83 45.5 -130.5t133.5 -47.5q89 0 134.5 47.5t45.5 130.5v451h88v-453q0 -120 -71 -188t-197 -68z" />
    <glyph glyph-name="uring" unicode="&#x16f;" horiz-adv-x="581" 
d="M292 572q-48 0 -79.5 30.5t-31.5 78.5t31.5 79t79.5 31q50 0 81 -30.5t31 -79.5q0 -48 -31.5 -78.5t-80.5 -30.5zM291 633q22 0 35.5 13.5t13.5 34.5t-13.5 35t-35.5 14q-21 0 -34 -14t-13 -35t13 -34.5t34 -13.5zM259 -8q-84 0 -131.5 50t-47.5 138v331h84v-318
q0 -126 118 -126q64 0 99.5 43t35.5 120v281h84v-511h-73l-7 81h-4q-46 -89 -158 -89z" />
    <glyph glyph-name="Uhungarumlaut" unicode="&#x170;" horiz-adv-x="714" 
d="M239 772v10l54 136h102v-10l-93 -136h-63zM377 772v10l54 136h102v-10l-93 -136h-63zM356 -9q-124 0 -195 68t-71 188v453h87v-451q0 -83 45.5 -130.5t133.5 -47.5q89 0 134.5 47.5t45.5 130.5v451h88v-453q0 -120 -71 -188t-197 -68z" />
    <glyph glyph-name="uhungarumlaut" unicode="&#x171;" horiz-adv-x="581" 
d="M179 583v10l54 136h102v-10l-93 -136h-63zM317 583v10l54 136h102v-10l-93 -136h-63zM259 -8q-84 0 -131.5 50t-47.5 138v331h84v-318q0 -126 118 -126q64 0 99.5 43t35.5 120v281h84v-511h-73l-7 81h-4q-46 -89 -158 -89z" />
    <glyph glyph-name="Uogonek" unicode="&#x172;" horiz-adv-x="714" 
d="M536 700h88v-453q0 -103 -52.5 -168t-148.5 -82q-78 -41 -78 -94q0 -24 15.5 -35.5t37.5 -11.5h32v-72h-50q-48 0 -81.5 27.5t-33.5 73.5q0 65 59 107q-109 9 -171.5 76t-62.5 179v453h87v-451q0 -83 45.5 -130.5t133.5 -47.5q89 0 134.5 47.5t45.5 130.5v451z" />
    <glyph glyph-name="uogonek" unicode="&#x173;" horiz-adv-x="581" 
d="M501 0q-85 -40 -85 -97q0 -24 15.5 -35.5t37.5 -11.5h32v-72h-50q-48 0 -81.5 27.5t-33.5 73.5q0 82 91 126l-6 70h-4q-46 -89 -158 -89q-84 0 -131.5 50t-47.5 138v331h84v-318q0 -126 118 -126q64 0 99.5 43t35.5 120v281h84v-511z" />
    <glyph glyph-name="Wcircumflex" unicode="&#x174;" horiz-adv-x="906" 
d="M297 774v10l102 132h111l102 -132v-10h-84l-72 80h-4l-72 -80h-83zM202 0l-172 690v10h85l134 -564h4l154 564h90l156 -564h4l133 564h86v-10l-174 -690h-88l-159 559h-4l-162 -559h-87z" />
    <glyph glyph-name="wcircumflex" unicode="&#x175;" horiz-adv-x="750" 
d="M225 574v10l102 132h111l102 -132v-10h-84l-72 80h-4l-72 -80h-83zM165 0l-145 501v10h87l102 -397h4l120 397h86l120 -397h4l102 397h85v-10l-144 -501h-87l-120 397h-4l-123 -397h-87z" />
    <glyph glyph-name="Ycircumflex" unicode="&#x176;" horiz-adv-x="649" 
d="M174 774v10l102 132h111l102 -132v-10h-84l-72 80h-4l-72 -80h-83zM281 0v292l-251 398v10h98l196 -324h4l195 324h96v-10l-250 -398v-292h-88z" />
    <glyph glyph-name="ycircumflex" unicode="&#x177;" horiz-adv-x="527" 
d="M115 585v10l102 132h111l102 -132v-10h-84l-72 80h-4l-72 -80h-83zM20 511h90l155 -401h4l150 401h88v-10l-283 -730h-85v10l87 223l-1 3l-205 494v10z" />
    <glyph glyph-name="Ydieresis" unicode="&#x178;" horiz-adv-x="649" 
d="M193 806v103h103v-103h-103zM367 806v103h103v-103h-103zM281 0v292l-251 398v10h98l196 -324h4l195 324h96v-10l-250 -398v-292h-88z" />
    <glyph glyph-name="Zacute" unicode="&#x179;" horiz-adv-x="597" 
d="M243 772v10l76 136h115v-10l-116 -136h-75zM40 0v77l402 538v4h-393v81h502v-79l-401 -537v-4h407v-80h-517z" />
    <glyph glyph-name="zacute" unicode="&#x17a;" horiz-adv-x="502" 
d="M198 583v10l76 136h115v-10l-116 -136h-75zM55 0v69l291 367v4h-290v71h389v-70l-290 -366v-4h292v-71h-392z" />
    <glyph glyph-name="Zdotaccent" unicode="&#x17b;" horiz-adv-x="597" 
d="M249 806v98h94v-98h-94zM40 0v77l402 538v4h-393v81h502v-79l-401 -537v-4h407v-80h-517z" />
    <glyph glyph-name="zdotaccent" unicode="&#x17c;" horiz-adv-x="502" 
d="M204 617v98h94v-98h-94zM55 0v69l291 367v4h-290v71h389v-70l-290 -366v-4h292v-71h-392z" />
    <glyph glyph-name="Zcaron" unicode="&#x17d;" horiz-adv-x="597" 
d="M241 774l-102 132v10h83l72 -80h4l72 80h84v-10l-102 -132h-111zM40 0v77l402 538v4h-393v81h502v-79l-401 -537v-4h407v-80h-517z" />
    <glyph glyph-name="zcaron" unicode="&#x17e;" horiz-adv-x="502" 
d="M196 585l-102 132v10h83l72 -80h4l72 80h84v-10l-102 -132h-111zM55 0v69l291 367v4h-290v71h389v-70l-290 -366v-4h292v-71h-392z" />
    <glyph glyph-name="florin" unicode="&#x192;" horiz-adv-x="434" 
d="M40 -229v10l86 561h-85v70h96l23 153q23 159 170 159h64v-72h-59q-78 -1 -92 -91l-23 -149h132v-70h-142l-86 -571h-84z" />
    <glyph glyph-name="uni01CD" unicode="&#x1cd;" horiz-adv-x="682" 
d="M396 774h-111l-102 132v10h83l72 -80h4l72 80h84v-10zM394 700l258 -690v-10h-93l-66 183h-306l-66 -183h-91v10l257 690h107zM215 261h250l-123 342h-4z" />
    <glyph glyph-name="uni01CE" unicode="&#x1ce;" horiz-adv-x="549" 
d="M216 585l-102 132v10h83l72 -80h4l72 80h84v-10l-102 -132h-111zM228 -9q-81 0 -129.5 45t-48.5 113q0 70 52.5 115t158.5 45h126v33q0 46 -29.5 76t-88.5 30q-54 0 -83 -26t-30 -65h-81q0 73 54.5 118t139.5 45q95 0 147.5 -50t52.5 -126v-344h-71l-6 72h-4
q-48 -81 -160 -81zM243 61q64 0 104 40t40 97v44h-126q-126 0 -126 -92q0 -40 27.5 -64.5t80.5 -24.5z" />
    <glyph glyph-name="uni01CF" unicode="&#x1cf;" horiz-adv-x="288" 
d="M89 774l-102 132v10h83l72 -80h4l72 80h84v-10l-102 -132h-111zM100 0v700h88v-700h-88z" />
    <glyph glyph-name="uni01D0" unicode="&#x1d0;" horiz-adv-x="254" 
d="M77 585l-102 132v10h83l72 -80h4l72 80h84v-10l-102 -132h-111zM90 0v511h84v-511h-84z" />
    <glyph glyph-name="uni01D1" unicode="&#x1d1;" horiz-adv-x="740" 
d="M320 774l-102 132v10h83l72 -80h4l72 80h84v-10l-102 -132h-111zM370 -9q-154 0 -232 99.5t-78 259.5t77.5 259.5t232.5 99.5q154 0 232 -99.5t78 -259.5q0 -159 -78 -259t-232 -100zM370 73q115 0 167.5 79t52.5 198t-52.5 198t-167.5 79q-60 0 -104.5 -23t-68.5 -63
t-35.5 -87.5t-11.5 -103.5q0 -119 52.5 -198t167.5 -79z" />
    <glyph glyph-name="uni01D2" unicode="&#x1d2;" horiz-adv-x="562" 
d="M226 585l-102 132v10h83l72 -80h4l72 80h84v-10l-102 -132h-111zM281 -9q-115 0 -173 73.5t-58 190.5t59 191t172 74t172 -74t59 -191t-58.5 -190.5t-172.5 -73.5zM281 66q75 0 110.5 51t35.5 138t-35.5 138.5t-110.5 51.5q-74 0 -110 -51.5t-36 -138.5t36 -138t110 -51z
" />
    <glyph glyph-name="Gcaron" unicode="&#x1e6;" horiz-adv-x="721" 
d="M312 774l-102 132v10h83l72 -80h4l72 80h84v-10l-102 -132h-111zM366 -9q-148 0 -227 96.5t-79 260.5q0 166 79.5 263.5t226.5 97.5q125 0 199 -63.5t84 -169.5h-90q-7 68 -57 109.5t-136 41.5q-59 0 -102 -23.5t-67.5 -64t-35.5 -88t-11 -103.5q0 -119 51.5 -197.5
t164.5 -78.5q101 0 156.5 61t55.5 156h-192v79h275v-59q0 -147 -78 -232.5t-217 -85.5z" />
    <glyph glyph-name="gcaron" unicode="&#x1e7;" 
d="M226 585l-102 132v10h83l72 -80h4l72 80h84v-10l-102 -132h-111zM283 -238q-96 0 -156 49t-62 124h81q3 -42 37.5 -71.5t99.5 -29.5q70 0 106 38.5t36 99.5v99h-4q-48 -80 -154 -80q-104 0 -160 73t-57 191q1 124 58.5 194.5t158.5 70.5q106 0 154 -80h4l11 71h73v-541
q0 -91 -60 -149.5t-166 -58.5zM281 66q72 0 109 53.5t37 135.5t-37 136t-109 54q-75 0 -110.5 -53t-35.5 -137q0 -83 35.5 -136t110.5 -53z" />
    <glyph glyph-name="Scommaaccent" unicode="&#x218;" horiz-adv-x="632" 
d="M315 -9q-125 0 -193.5 59t-71.5 160h89q4 -66 49.5 -103t126.5 -37q171 0 171 122q0 48 -32 74.5t-93 39.5l-102 22q-93 20 -139.5 65.5t-46.5 123.5q0 89 64 140.5t179 51.5q112 0 180 -57.5t69 -150.5h-89q-3 59 -43.5 93.5t-118.5 34.5q-150 0 -150 -112
q0 -78 119 -104l95 -20q199 -41 199 -201q0 -94 -70 -147.5t-192 -53.5zM251 -211v10l18 150h94v-10l-49 -150h-63z" />
    <glyph glyph-name="scommaaccent" unicode="&#x219;" horiz-adv-x="511" 
d="M259 -9q-92 0 -149.5 47.5t-59.5 130.5h84q0 -50 34 -76.5t91 -26.5q117 0 117 73q0 56 -78 73l-102 19q-63 13 -96.5 50t-33.5 93q0 64 51 105t135 41q87 0 142 -45t55 -120h-82q-2 47 -33.5 70.5t-81.5 23.5q-48 0 -76.5 -19.5t-28.5 -55.5q0 -58 89 -72l80 -15
q75 -17 110 -50.5t35 -97.5q0 -68 -58 -108t-144 -40zM196 -211v10l18 150h94v-10l-49 -150h-63z" />
    <glyph glyph-name="uni021A" unicode="&#x21a;" horiz-adv-x="592" 
d="M340 0h-15l-28 -46q43 0 70 -22.5t27 -59.5q0 -39 -29 -64.5t-88 -25.5q-48 0 -80.5 23.5t-32.5 67.5h60q0 -34 52 -34q20 0 33.5 8.5t13.5 24.5q0 14 -12 23t-32 9h-32l-25 31l33 65h-3v620h-217v80h522v-80h-217v-620z" />
    <glyph glyph-name="uni021B" unicode="&#x21b;" horiz-adv-x="381" 
d="M240 -46q43 0 70 -22.5t27 -59.5q0 -39 -29 -64.5t-88 -25.5q-48 0 -80.5 23.5t-32.5 67.5h60q0 -34 52 -34q20 0 33.5 8.5t13.5 24.5q0 14 -12 23t-32 9h-32l-25 31l37 73q-77 23 -77 129v303h-85v71h87v137h82v-137h125v-71h-125v-296q0 -37 16 -53.5t51 -16.5h60v-74
h-68z" />
    <glyph glyph-name="uni0237" unicode="&#x237;" horiz-adv-x="268" 
d="M0 -238v74h38q66 0 66 73v602h84v-601q0 -74 -36 -111t-112 -37h-40z" />
    <glyph glyph-name="circumflex" unicode="&#x2c6;" horiz-adv-x="385" 
d="M35 585v10l102 132h111l102 -132v-10h-84l-72 80h-4l-72 -80h-83z" />
    <glyph glyph-name="caron" unicode="&#x2c7;" horiz-adv-x="385" 
d="M137 585l-102 132v10h83l72 -80h4l72 80h84v-10l-102 -132h-111z" />
    <glyph glyph-name="breve" unicode="&#x2d8;" horiz-adv-x="362" 
d="M181 585q-69 0 -107.5 39.5t-38.5 102.5h73q4 -65 73 -65t73 65h73q0 -64 -37.5 -103t-108.5 -39z" />
    <glyph glyph-name="dotaccent" unicode="&#x2d9;" horiz-adv-x="176" 
d="M41 617v98h94v-98h-94z" />
    <glyph glyph-name="ring" unicode="&#x2da;" horiz-adv-x="293" 
d="M146 572q-48 0 -79.5 30.5t-31.5 78.5t31.5 79t79.5 31q50 0 81 -30.5t31 -79.5q0 -48 -31.5 -78.5t-80.5 -30.5zM145 633q22 0 35.5 13.5t13.5 34.5t-13.5 35t-35.5 14q-21 0 -34 -14t-13 -35t13 -34.5t34 -13.5z" />
    <glyph glyph-name="ogonek" unicode="&#x2db;" horiz-adv-x="235" 
d="M150 -216q-48 0 -81.5 27.5t-33.5 73.5q0 86 102 131l63 -16q-85 -40 -85 -97q0 -24 15.5 -35.5t37.5 -11.5h32v-72h-50z" />
    <glyph glyph-name="tilde" unicode="&#x2dc;" horiz-adv-x="385" 
d="M253 599q-31 0 -66 22l-14 9q-23 14 -41 14q-16 0 -26.5 -11.5t-10.5 -31.5h-60v15q0 47 27.5 72.5t70.5 25.5q32 0 67 -22l14 -9q23 -14 40 -14q16 0 26.5 12t10.5 31h59v-15q0 -48 -27 -73t-70 -25z" />
    <glyph glyph-name="hungarumlaut" unicode="&#x2dd;" horiz-adv-x="364" 
d="M35 583v10l54 136h102v-10l-93 -136h-63zM173 583v10l54 136h102v-10l-93 -136h-63z" />
    <glyph glyph-name="uni0326" unicode="&#x326;" horiz-adv-x="0" 
d="M-162 -211v10l18 150h94v-10l-49 -150h-63z" />
    <glyph glyph-name="Wgrave" unicode="&#x1e80;" horiz-adv-x="906" 
d="M435 772l-116 136v10h115l76 -136v-10h-75zM202 0l-172 690v10h85l134 -564h4l154 564h90l156 -564h4l133 564h86v-10l-174 -690h-88l-159 559h-4l-162 -559h-87z" />
    <glyph glyph-name="wgrave" unicode="&#x1e81;" horiz-adv-x="750" 
d="M363 572l-116 136v10h115l76 -136v-10h-75zM165 0l-145 501v10h87l102 -397h4l120 397h86l120 -397h4l102 397h85v-10l-144 -501h-87l-120 397h-4l-123 -397h-87z" />
    <glyph glyph-name="Wacute" unicode="&#x1e82;" horiz-adv-x="906" 
d="M398 772v10l76 136h115v-10l-116 -136h-75zM202 0l-172 690v10h85l134 -564h4l154 564h90l156 -564h4l133 564h86v-10l-174 -690h-88l-159 559h-4l-162 -559h-87z" />
    <glyph glyph-name="wacute" unicode="&#x1e83;" horiz-adv-x="750" 
d="M326 572v10l76 136h115v-10l-116 -136h-75zM165 0l-145 501v10h87l102 -397h4l120 397h86l120 -397h4l102 397h85v-10l-144 -501h-87l-120 397h-4l-123 -397h-87z" />
    <glyph glyph-name="Wdieresis" unicode="&#x1e84;" horiz-adv-x="906" 
d="M316 806v103h103v-103h-103zM490 806v103h103v-103h-103zM202 0l-172 690v10h85l134 -564h4l154 564h90l156 -564h4l133 564h86v-10l-174 -690h-88l-159 559h-4l-162 -559h-87z" />
    <glyph glyph-name="wdieresis" unicode="&#x1e85;" horiz-adv-x="750" 
d="M244 606v103h103v-103h-103zM418 606v103h103v-103h-103zM165 0l-145 501v10h87l102 -397h4l120 397h86l120 -397h4l102 397h85v-10l-144 -501h-87l-120 397h-4l-123 -397h-87z" />
    <glyph glyph-name="uni1EBC" unicode="&#x1ebc;" horiz-adv-x="610" 
d="M378 788q-31 0 -66 22l-14 9q-23 14 -41 14q-16 0 -26.5 -11.5t-10.5 -31.5h-60v15q0 47 27.5 72.5t70.5 25.5q32 0 67 -22l14 -9q23 -14 40 -14q16 0 26.5 12t10.5 31h59v-15q0 -48 -27 -73t-70 -25zM100 0v700h450v-80h-363v-219h332v-80h-332v-242h363v-79h-450z" />
    <glyph glyph-name="uni1EBD" unicode="&#x1ebd;" horiz-adv-x="552" 
d="M328 599q-31 0 -66 22l-14 9q-23 14 -41 14q-16 0 -26.5 -11.5t-10.5 -31.5h-60v15q0 47 27.5 72.5t70.5 25.5q32 0 67 -22l14 -9q23 -14 40 -14q16 0 26.5 12t10.5 31h59v-15q0 -48 -27 -73t-70 -25zM282 -9q-110 0 -171 73.5t-61 190.5t59 191t172 74q105 0 163 -69.5
t58 -179.5v-41h-364q0 -75 37 -119.5t107 -44.5q51 0 85 21t44 61h84q-10 -70 -70 -113.5t-143 -43.5zM139 300h276q0 64 -34.5 104.5t-99.5 40.5q-68 0 -104 -40.5t-38 -104.5z" />
    <glyph glyph-name="Ygrave" unicode="&#x1ef2;" horiz-adv-x="649" 
d="M312 772l-116 136v10h115l76 -136v-10h-75zM281 0v292l-251 398v10h98l196 -324h4l195 324h96v-10l-250 -398v-292h-88z" />
    <glyph glyph-name="ygrave" unicode="&#x1ef3;" horiz-adv-x="527" 
d="M253 583l-116 136v10h115l76 -136v-10h-75zM20 511h90l155 -401h4l150 401h88v-10l-283 -730h-85v10l87 223l-1 3l-205 494v10z" />
    <glyph glyph-name="uni2000" unicode="&#x2000;" horiz-adv-x="490" 
 />
    <glyph glyph-name="uni2001" unicode="&#x2001;" horiz-adv-x="980" 
 />
    <glyph glyph-name="uni2002" unicode="&#x2002;" horiz-adv-x="490" 
 />
    <glyph glyph-name="uni2003" unicode="&#x2003;" horiz-adv-x="980" 
 />
    <glyph glyph-name="uni2004" unicode="&#x2004;" horiz-adv-x="326" 
 />
    <glyph glyph-name="uni2005" unicode="&#x2005;" horiz-adv-x="245" 
 />
    <glyph glyph-name="uni2006" unicode="&#x2006;" horiz-adv-x="163" 
 />
    <glyph glyph-name="uni2007" unicode="&#x2007;" horiz-adv-x="163" 
 />
    <glyph glyph-name="uni2008" unicode="&#x2008;" horiz-adv-x="122" 
 />
    <glyph glyph-name="uni2009" unicode="&#x2009;" horiz-adv-x="196" 
 />
    <glyph glyph-name="uni200A" unicode="&#x200a;" horiz-adv-x="54" 
 />
    <glyph glyph-name="uni2010" unicode="&#x2010;" horiz-adv-x="466" 
d="M80 254v78h306v-78h-306z" />
    <glyph glyph-name="uni2011" unicode="&#x2011;" horiz-adv-x="466" 
d="M80 254v78h306v-78h-306z" />
    <glyph glyph-name="figuredash" unicode="&#x2012;" horiz-adv-x="466" 
d="M80 254v78h306v-78h-306z" />
    <glyph glyph-name="endash" unicode="&#x2013;" horiz-adv-x="622" 
d="M60 254v78h502v-78h-502z" />
    <glyph glyph-name="emdash" unicode="&#x2014;" horiz-adv-x="1102" 
d="M60 254v78h982v-78h-982z" />
    <glyph glyph-name="quoteleft" unicode="&#x2018;" horiz-adv-x="214" 
d="M172 700v-10l-31 -227h-99v10l62 227h68z" />
    <glyph glyph-name="quoteright" unicode="&#x2019;" horiz-adv-x="214" 
d="M42 463v10l31 227h99v-10l-62 -227h-68z" />
    <glyph glyph-name="quotesinglbase" unicode="&#x201a;" horiz-adv-x="214" 
d="M42 -134v10l31 227h99v-10l-62 -227h-68z" />
    <glyph glyph-name="quotedblleft" unicode="&#x201c;" horiz-adv-x="384" 
d="M172 700v-10l-31 -227h-99v10l62 227h68zM342 700v-10l-31 -227h-99v10l62 227h68z" />
    <glyph glyph-name="quotedblright" unicode="&#x201d;" horiz-adv-x="384" 
d="M42 463v10l31 227h99v-10l-62 -227h-68zM212 463v10l31 227h99v-10l-62 -227h-68z" />
    <glyph glyph-name="quotedblbase" unicode="&#x201e;" horiz-adv-x="384" 
d="M42 -134v10l31 227h99v-10l-62 -227h-68zM212 -134v10l31 227h99v-10l-62 -227h-68z" />
    <glyph glyph-name="dagger" unicode="&#x2020;" horiz-adv-x="494" 
d="M394 557v-72h-110v-149l-10 -165h-54l-10 165v149h-110v72h110v143h74v-143h110z" />
    <glyph glyph-name="daggerdbl" unicode="&#x2021;" horiz-adv-x="494" 
d="M282 485l-8 -135l8 -134h112v-72h-110v-143h-74v143h-110v72h112l8 134l-8 135h-112v72h110v143h74v-143h110v-72h-112z" />
    <glyph glyph-name="bullet" unicode="&#x2022;" horiz-adv-x="386" 
d="M193 156q-64 0 -98.5 37.5t-34.5 100.5q0 61 34.5 98t98.5 37q62 0 97.5 -37.5t35.5 -97.5q0 -62 -35 -100t-98 -38z" />
    <glyph glyph-name="ellipsis" unicode="&#x2026;" horiz-adv-x="778" 
d="M65 0v110h108v-110h-108zM335 0v110h108v-110h-108zM605 0v110h108v-110h-108z" />
    <glyph glyph-name="uni202F" unicode="&#x202f;" horiz-adv-x="196" 
 />
    <glyph glyph-name="perthousand" unicode="&#x2030;" horiz-adv-x="1204" 
d="M217 348q-74 0 -110.5 50t-36.5 132t36.5 132t110.5 50t110.5 -50t36.5 -132t-36.5 -132t-110.5 -50zM151 0v10l474 690h77v-10l-472 -690h-79zM217 412q76 0 76 118t-76 118t-76 -118t76 -118zM637 -9q-74 0 -110.5 50t-36.5 132t36.5 132t110.5 50t110.5 -50t36.5 -132
t-36.5 -132t-110.5 -50zM987 -9q-74 0 -110.5 50t-36.5 132t36.5 132t110.5 50t110.5 -50t36.5 -132t-36.5 -132t-110.5 -50zM637 55q76 0 76 118t-76 118t-76 -118t76 -118zM987 55q76 0 76 118t-76 118t-76 -118t76 -118z" />
    <glyph glyph-name="guilsinglleft" unicode="&#x2039;" horiz-adv-x="342" 
d="M206 66l-166 212v10l166 212h76v-10l-140 -207l140 -207v-10h-76z" />
    <glyph glyph-name="guilsinglright" unicode="&#x203a;" horiz-adv-x="342" 
d="M60 66v10l140 207l-140 207v10h76l166 -212v-10l-166 -212h-76z" />
    <glyph glyph-name="fraction" unicode="&#x2044;" horiz-adv-x="531" 
d="M-10 -100v10l474 890h77v-10l-472 -890h-79z" />
    <glyph glyph-name="uni205F" unicode="&#x205f;" horiz-adv-x="245" 
 />
    <glyph glyph-name="Euro" unicode="&#x20ac;" horiz-adv-x="759" 
d="M419 72q164 0 191 155h89q-15 -111 -86 -173.5t-194 -62.5q-119 0 -194.5 63.5t-101.5 175.5h-63v76h52q-2 28 -2 43q0 24 1 36h-51v76h61q24 116 101 182t197 66q124 0 196.5 -65t83.5 -178h-90q-9 75 -56.5 118t-133.5 43q-84 0 -134.5 -45t-70.5 -121h271l-20 -76
h-264q-1 -12 -1 -36q0 -15 2 -43h248l-20 -76h-214q46 -158 203 -158z" />
    <glyph glyph-name="uni2116" unicode="&#x2116;" horiz-adv-x="1157" 
d="M891 333q-83 0 -124.5 52t-41.5 136q0 83 42 135.5t124 52.5t124 -52.5t42 -135.5t-41.5 -135.5t-124.5 -52.5zM100 0v700h95l358 -557h4v557h86v-700h-96l-358 554h-4v-554h-85zM891 402q93 0 93 119t-93 119t-93 -119q0 -55 23 -87t70 -32zM744 206v71h306v-71h-306z
" />
    <glyph glyph-name="trademark" unicode="&#x2122;" horiz-adv-x="733" 
d="M137 373v269h-102v58h264v-58h-101v-269h-61zM355 373v327h68l103 -174h2l103 174h67v-327h-58v234h-2l-106 -178h-10l-107 179h-2v-235h-58z" />
    <glyph glyph-name="minus" unicode="&#x2212;" horiz-adv-x="476" 
d="M5 277v72h466v-72h-466z" />
    <glyph glyph-name="notequal" unicode="&#x2260;" horiz-adv-x="476" 
d="M471 370h-158l-72 -118h230v-72h-275l-49 -80h-72v10l43 70h-113v72h158l72 118h-230v72h275l49 80h72v-10l-43 -70h113v-72z" />
    <glyph glyph-name="lessequal" unicode="&#x2264;" horiz-adv-x="521" 
d="M471 128l-421 184v100l421 184v-81l-357 -151v-4l357 -151v-81zM50 0v72h421v-72h-421z" />
    <glyph glyph-name="greaterequal" unicode="&#x2265;" horiz-adv-x="521" 
d="M50 128v81l357 151v4l-357 151v81l421 -184v-100zM50 0v72h421v-72h-421z" />
    <glyph glyph-name="uni25FC" unicode="&#x25fc;" horiz-adv-x="510" 
d="M0 510h510v-510h-510v510z" />
    <glyph glyph-name="i.loclTRK" horiz-adv-x="254" 
d="M85 617v98h94v-98h-94zM90 0v511h84v-511h-84z" />
    <glyph glyph-name="a.ss01" 
d="M268 -9q-105 0 -161.5 73.5t-56.5 189.5q0 119 56 192.5t161 73.5q106 0 154 -80h4l11 71h73v-511h-73l-7 71h-4q-20 -37 -61 -58.5t-96 -21.5zM281 66q73 0 109.5 53t36.5 136q0 82 -37 136t-109 54q-75 0 -110.5 -53t-35.5 -137q0 -85 35.5 -137t110.5 -52z" />
    <glyph glyph-name="aacute.ss01" 
d="M241 583v10l76 136h115v-10l-116 -136h-75zM268 -9q-105 0 -161.5 73.5t-56.5 189.5q0 119 56 192.5t161 73.5q106 0 154 -80h4l11 71h73v-511h-73l-7 71h-4q-20 -37 -61 -58.5t-96 -21.5zM281 66q73 0 109.5 53t36.5 136q0 82 -37 136t-109 54q-75 0 -110.5 -53
t-35.5 -137q0 -85 35.5 -137t110.5 -52z" />
    <glyph glyph-name="abreve.ss01" 
d="M294 585q-69 0 -107.5 39.5t-38.5 102.5h73q4 -65 73 -65t73 65h73q0 -64 -37.5 -103t-108.5 -39zM268 -9q-105 0 -161.5 73.5t-56.5 189.5q0 119 56 192.5t161 73.5q106 0 154 -80h4l11 71h73v-511h-73l-7 71h-4q-20 -37 -61 -58.5t-96 -21.5zM281 66q73 0 109.5 53
t36.5 136q0 82 -37 136t-109 54q-75 0 -110.5 -53t-35.5 -137q0 -85 35.5 -137t110.5 -52z" />
    <glyph glyph-name="uni01CE.ss01" 
d="M239 585l-102 132v10h83l72 -80h4l72 80h84v-10l-102 -132h-111zM268 -9q-105 0 -161.5 73.5t-56.5 189.5q0 119 56 192.5t161 73.5q106 0 154 -80h4l11 71h73v-511h-73l-7 71h-4q-20 -37 -61 -58.5t-96 -21.5zM281 66q73 0 109.5 53t36.5 136q0 82 -37 136t-109 54
q-75 0 -110.5 -53t-35.5 -137q0 -85 35.5 -137t110.5 -52z" />
    <glyph glyph-name="acircumflex.ss01" 
d="M140 585v10l102 132h111l102 -132v-10h-84l-72 80h-4l-72 -80h-83zM268 -9q-105 0 -161.5 73.5t-56.5 189.5q0 119 56 192.5t161 73.5q106 0 154 -80h4l11 71h73v-511h-73l-7 71h-4q-20 -37 -61 -58.5t-96 -21.5zM281 66q73 0 109.5 53t36.5 136q0 82 -37 136t-109 54
q-75 0 -110.5 -53t-35.5 -137q0 -85 35.5 -137t110.5 -52z" />
    <glyph glyph-name="adieresis.ss01" 
d="M159 617v103h103v-103h-103zM333 617v103h103v-103h-103zM268 -9q-105 0 -161.5 73.5t-56.5 189.5q0 119 56 192.5t161 73.5q106 0 154 -80h4l11 71h73v-511h-73l-7 71h-4q-20 -37 -61 -58.5t-96 -21.5zM281 66q73 0 109.5 53t36.5 136q0 82 -37 136t-109 54
q-75 0 -110.5 -53t-35.5 -137q0 -85 35.5 -137t110.5 -52z" />
    <glyph glyph-name="agrave.ss01" 
d="M278 583l-116 136v10h115l76 -136v-10h-75zM268 -9q-105 0 -161.5 73.5t-56.5 189.5q0 119 56 192.5t161 73.5q106 0 154 -80h4l11 71h73v-511h-73l-7 71h-4q-20 -37 -61 -58.5t-96 -21.5zM281 66q73 0 109.5 53t36.5 136q0 82 -37 136t-109 54q-75 0 -110.5 -53
t-35.5 -137q0 -85 35.5 -137t110.5 -52z" />
    <glyph glyph-name="amacron.ss01" 
d="M160 617v81h273v-81h-273zM268 -9q-105 0 -161.5 73.5t-56.5 189.5q0 119 56 192.5t161 73.5q106 0 154 -80h4l11 71h73v-511h-73l-7 71h-4q-20 -37 -61 -58.5t-96 -21.5zM281 66q73 0 109.5 53t36.5 136q0 82 -37 136t-109 54q-75 0 -110.5 -53t-35.5 -137
q0 -85 35.5 -137t110.5 -52z" />
    <glyph glyph-name="aogonek.ss01" 
d="M509 0q-85 -40 -85 -97q0 -24 15.5 -35.5t37.5 -11.5h32v-72h-50q-48 0 -81.5 27.5t-33.5 73.5q0 82 91 126l-6 60h-4q-20 -37 -61 -58.5t-96 -21.5q-105 0 -161.5 73.5t-56.5 189.5q0 119 56 192.5t161 73.5q106 0 154 -80h4l11 71h73v-511zM281 66q73 0 109.5 53
t36.5 136q0 82 -37 136t-109 54q-75 0 -110.5 -53t-35.5 -137q0 -85 35.5 -137t110.5 -52z" />
    <glyph glyph-name="aring.ss01" 
d="M294 572q-48 0 -79.5 30.5t-31.5 78.5t31.5 79t79.5 31q50 0 81 -30.5t31 -79.5q0 -48 -31.5 -78.5t-80.5 -30.5zM293 633q22 0 35.5 13.5t13.5 34.5t-13.5 35t-35.5 14q-21 0 -34 -14t-13 -35t13 -34.5t34 -13.5zM268 -9q-105 0 -161.5 73.5t-56.5 189.5q0 119 56 192.5
t161 73.5q106 0 154 -80h4l11 71h73v-511h-73l-7 71h-4q-20 -37 -61 -58.5t-96 -21.5zM281 66q73 0 109.5 53t36.5 136q0 82 -37 136t-109 54q-75 0 -110.5 -53t-35.5 -137q0 -85 35.5 -137t110.5 -52z" />
    <glyph glyph-name="atilde.ss01" 
d="M341 599q-31 0 -66 22l-14 9q-23 14 -41 14q-16 0 -26.5 -11.5t-10.5 -31.5h-60v15q0 47 27.5 72.5t70.5 25.5q32 0 67 -22l14 -9q23 -14 40 -14q16 0 26.5 12t10.5 31h59v-15q0 -48 -27 -73t-70 -25zM268 -9q-105 0 -161.5 73.5t-56.5 189.5q0 119 56 192.5t161 73.5
q106 0 154 -80h4l11 71h73v-511h-73l-7 71h-4q-20 -37 -61 -58.5t-96 -21.5zM281 66q73 0 109.5 53t36.5 136q0 82 -37 136t-109 54q-75 0 -110.5 -53t-35.5 -137q0 -85 35.5 -137t110.5 -52z" />
    <glyph glyph-name="caron.Slovak" horiz-adv-x="174" 
d="M40 530v170h94v-10l-35 -160h-59z" />
    </font>
</defs>
</svg>
