<svg width="24" height="24" viewBox="0 0 24 24" fill="none" xmlns="http://www.w3.org/2000/svg">
<g clip-path="url(#clip0)">
<path d="M22.6427 22.9943L15.511 15.2137C17.1175 13.5322 18.001 11.334 18.001 9C18.001 6.59625 17.065 4.33575 15.3647 2.63625C13.6645 0.93675 11.4047 0 9.00098 0C6.59723 0 4.33673 0.936 2.63723 2.63625C0.937727 4.3365 0.000976562 6.59625 0.000976562 9C0.000976562 11.4037 0.936977 13.6643 2.63723 15.3638C4.33748 17.0632 6.59723 18 9.00098 18C11.0725 18 13.0352 17.3055 14.6267 16.026L21.7585 23.8057C21.877 23.9355 22.0382 24 22.201 24C22.3465 24 22.4912 23.9482 22.6067 23.8425C22.8512 23.6182 22.867 23.2388 22.6442 22.995L22.6427 22.9943ZM1.20023 9C1.20023 4.6995 4.69973 1.2 9.00023 1.2C13.3007 1.2 16.8002 4.6995 16.8002 9C16.8002 13.3005 13.3007 16.8 9.00023 16.8C4.69973 16.8 1.20023 13.3005 1.20023 9Z" fill="#1C1D20"/>
<path d="M13.8001 9.5999H4.2001C3.8686 9.5999 3.6001 9.3314 3.6001 8.9999C3.6001 8.6684 3.8686 8.3999 4.2001 8.3999H13.8001C14.1316 8.3999 14.4001 8.6684 14.4001 8.9999C14.4001 9.3314 14.1316 9.5999 13.8001 9.5999Z" fill="#1C1D20"/>
</g>
<defs>
<clipPath id="clip0">
<rect width="24" height="24" fill="white"/>
</clipPath>
</defs>
</svg>
